/* XPM */
static char *pacman42so_long51736849867[] = {
/* columns rows colors chars-per-pixel */
"57 59 70 1 ",
"  c #010102",
". c #0C0500",
"X c #060906",
"o c #0C0A01",
"O c #03030A",
"+ c #09040B",
"@ c #06090B",
"# c #0A0A0C",
"$ c #110600",
"% c #130B00",
"& c #1A0D00",
"* c #100B0F",
"= c #0F100B",
"- c #151201",
"; c #1B1300",
": c #1D1900",
"> c #13120B",
", c #030213",
"< c #0B0615",
"1 c #060912",
"2 c #0B0C12",
"3 c #01011B",
"4 c #0C0D18",
"5 c #100E14",
"6 c #180D1B",
"7 c #0D1112",
"8 c #121314",
"9 c #171916",
"0 c #14141A",
"q c #18161B",
"w c #231500",
"e c #241C01",
"r c #281E00",
"t c #2C2604",
"y c #312500",
"u c #332E10",
"i c #FDEF06",
"p c #FCEF0B",
"a c #FEF105",
"s c #FDF00C",
"d c #FCEF13",
"f c #FBEE1A",
"g c #FDF013",
"h c #FEF21D",
"j c #FBEF26",
"k c #FCEF2A",
"l c #FDF124",
"z c #FCF02A",
"x c #FAEF33",
"c c #F9EE3B",
"v c #FBF033",
"b c #F7EC45",
"n c #F9ED43",
"m c #F6EC4F",
"M c #F8EC4C",
"N c #F6EB54",
"B c #F8EA52",
"V c #F5EA59",
"C c #F9E95B",
"Z c #F2E767",
"A c #F3E965",
"S c #F4E76E",
"D c #F3E86B",
"F c #EFE77B",
"G c #F3E773",
"H c #F2E67B",
"J c #EEE584",
"K c #EDE58A",
"L c #ECE493",
"P c #EBE39A",
/* pixels */
"                @X    OOO  OO OO   2+                    ",
"                 8 #O82 OOXO OOOX8  O                    ",
"                 OO<,+O.      O+X  #O0                   ",
"                 OO+e$%.o..$$o.$$$;  OO                  ",
"       O    O   9 O;FVCNNNNNVVNCVAJ-X @                  ",
"       O Oq@O o.o o$NzzzzzzzzzzzkcA%.o X o  oX           ",
"       qOO #  .%%o&ebzzzzzzzzzzzkxmt%%o$oo X  2          ",
"        O@@ XuKSDDSVczzzzzzzzzzzkknBADSJPoo # O          ",
"       X  q2<$SnnnnckzzzzzzzzzzzzzxxnnbmD-:X#OO          ",
"        O  .$&mzzzzzzzzzzzzzzzzzzzzzzzzvnNAKX,           ",
"       XOo$KDmxzzzkkzzzzzzzzzzzzzzzzzzzkxccDo O          ",
"         %%AnzzzzzzzzzzzzzzzzzzzzzzzzzzzxvnD.O#          ",
"      O oo;NczzzzzzzzzzzzzzzzzzzzzzkzzzxnVAL*,+          ",
"OO @OO+.KANnvzzzzzlzlzlllllzlzzzzzzzzzzxB;- +,5          ",
" X 8O#.$AccvzzzzjzhhhhhhdghhhhlzzzzzzzzcV$o-O,O          ",
" @   ;$tMzzzzzzzzzgspgpsssggpdlzzzzzzvMDKt X 1+          ",
",O .tJAnvzzzzzzzzhsaaaaaaasaaslzzzzkzm&$o  <OO           ",
",OO .SnzzzzzzzzzzlsaaaaaaaaaaslzzzxccA$OO4@OO O          ",
"  2-;SnzzzzzzzzzzlssaaasssggsshzkknBAKoO OO O OO         ",
"OO  &GnzzzzzzzzzzlgsaashhhhgpsllkcBw%oo2 OO OO           ",
"3,5.%SnzzzzzzzzzzlhpsshllllhddfzkcA%- O 1O<              ",
"3<.%:VczzzllllzzzlhhdhlzzzklhhlxMSK$.O#  O               ",
"O-HBbczzzjlhhhjzzzlllljzkzzzlllM&$$ #1                   ",
" oNzzzzzzjfffflzzzzzkzzzkzkkxccD$6 7  2                  ",
"+$BjzzzzzzzlllzzzzzzzzzzzzzknNAKe X 1                    ",
"+wVjzzzzzzzzzzjzzzzzzzzzzzzcN;&$  8O #                   ",
"+$VkzzkzzzzzjzzzzzzzzzzzzkzcA%.o# O X9O                  ",
"+$VkzzzzzzllzjzzzzzzklzzzxBDKoXOO <4   O                 ",
" $Vzzzzlllhhzzzzzzzzzzzzzm%.o.#XX  O2O=                  ",
"O$VzlzllhfffzzzzzzzzzzzzzN%; X  #X OO1                   ",
"+$Vzklsspgdllzzzzzzzzkzzzn&%: >    O  X                  ",
"+.NzklgsdgllzzzkzzkzkkkzzcVFL-  OO #  O                  ",
".$VjzzlllllzzzzzzzzzjkzzzzcBH$ XO6O   O                  ",
"+$VjzzzzzzzzzzzzzzzzkzzzzzzcV;%t+<O   O                  ",
"+.VjzzzzzzzkzzzzzzzzzzzzzzzzcnNH$O 2 O                   ",
" $DccckzzzzkzzzzzzzzzzzzzzzzzzzN;.X#OO                   ",
"+.KANnvzzzzzzzzzzzzzzzzzzzkzzzzn&$o. 0    OO             ",
"*.o$;VvzvzzzzzzzzzzzzzzzzzllllzxVHP$ #O 4O1OO O          ",
"  ..%DnzzzzzkzzzzzzzzzzzzzhhppfzcVH%.O,1OO  OO@          ",
"+  .%SnzzzzzzzzzzzzzzlllhhdsasghzcC&$:#,O7=OOOO          ",
" +#.oDnzzzkzzzlkzzzlhhggsaaaasglzkcnBF.  O   O1          ",
"OO  oGmcxzzzzzzlhllhsssaaaaaashlzzkkkB&$  X O OO         ",
"OO X-LGVczkzzllhsssaaaaaaaaasglzzzzzknw&w. O@OO          ",
"O2# X:;ynkzzzzlfgsssssssaaasghzzzzzkkcCGLr. OOOO         ",
"+O  X .$BkzzzklzllhllllhggsgfhlzzzzzzxcBH&. 2,           ",
"  O O  .FNncvzzzzzzzlzzlhhhllljzzzzzzzzcC;%$ ,O          ",
"       +e$;VcjzzzzzzzzzllllzzzzzzzzzzzkkcnNH$<O          ",
"        O.$FNczzzzzzzzzzzzzzzzzzzzzkkkkkkkzV;<O          ",
"       0 XoLFVczzzzzzzzzzzzzzzzzzzkzzzzzzzzV.2           ",
"       OO=o-$;nzzzzzzzzzzzzzzzzzzzlzzzzzcbNF- O          ",
"       1OO> o%BzzzzzzzzzzzzzzzzzzzkkzkzcV-ooXO1          ",
"      O OOOOO;FVVVNmvzzzzzzzzzzzzkcnBVVAJo O1 OO         ",
"        OO@2  .$:$$wmzzzzzzzzzzzzcCw$%&$.. 2@OO          ",
"           O  O  + oAccnnncccncnnBH%. +                  ",
"               +   oKSSSDDDDDDDDDHLr$                    ",
"               XXO# ;%%%%$o%$%$$%$;o XO                  ",
"                  7  o. .+  .  %   X                     ",
"               #O   O     .  + OOOO#X@@                  ",
"                O@@233,O      OO,,,O                     "
};
