/* XPM */
static char * exit_10_xpm[] = {
"57 59 157 2",
"  	c #000000",
". 	c #020202",
"+ 	c #040404",
"@ 	c #060606",
"# 	c #080808",
"$ 	c #0A0A0A",
"% 	c #0C0C0C",
"& 	c #0E0E0E",
"* 	c #0F0F0F",
"= 	c #131313",
"- 	c #171717",
"; 	c #191919",
"> 	c #1B1B1B",
", 	c #1D1D1D",
"' 	c #141414",
") 	c #1A1A1A",
"! 	c #1F1F1F",
"~ 	c #222222",
"{ 	c #262626",
"] 	c #282828",
"^ 	c #2A2A2A",
"/ 	c #2C2C2C",
"( 	c #272727",
"_ 	c #2D2D2D",
": 	c #313131",
"< 	c #353535",
"[ 	c #363636",
"} 	c #393939",
"| 	c #3B3B3B",
"1 	c #0D0D0D",
"2 	c #161616",
"3 	c #242424",
"4 	c #2B2B2B",
"5 	c #303030",
"6 	c #3A3A3A",
"7 	c #404040",
"8 	c #434343",
"9 	c #454545",
"0 	c #484848",
"a 	c #4B4B4B",
"b 	c #111111",
"c 	c #292929",
"d 	c #383838",
"e 	c #3F3F3F",
"f 	c #4D4D4D",
"g 	c #515151",
"h 	c #545454",
"i 	c #575757",
"j 	c #5A5A5A",
"k 	c #2E2E2E",
"l 	c #373737",
"m 	c #464646",
"n 	c #535353",
"o 	c #5B5B5B",
"p 	c #5F5F5F",
"q 	c #636363",
"r 	c #676767",
"s 	c #696969",
"t 	c #1E1E1E",
"u 	c #444444",
"v 	c #4C4C4C",
"w 	c #606060",
"x 	c #666666",
"y 	c #6A6A6A",
"z 	c #6F6F6F",
"A 	c #737373",
"B 	c #767676",
"C 	c #787878",
"D 	c #343434",
"E 	c #3E3E3E",
"F 	c #474747",
"G 	c #505050",
"H 	c #585858",
"I 	c #616161",
"J 	c #686868",
"K 	c #6D6D6D",
"L 	c #757575",
"M 	c #7A7A7A",
"N 	c #7E7E7E",
"O 	c #828282",
"P 	c #868686",
"Q 	c #888888",
"R 	c #5C5C5C",
"S 	c #6E6E6E",
"T 	c #7C7C7C",
"U 	c #838383",
"V 	c #898989",
"W 	c #8E8E8E",
"X 	c #929292",
"Y 	c #959595",
"Z 	c #979797",
"` 	c #989898",
" .	c #565656",
"..	c #8B8B8B",
"+.	c #919191",
"@.	c #9E9E9E",
"#.	c #A3A3A3",
"$.	c #A4A4A4",
"%.	c #A6A6A6",
"&.	c #A8A8A8",
"*.	c #878787",
"=.	c #999999",
"-.	c #A1A1A1",
";.	c #A7A7A7",
">.	c #ADADAD",
",.	c #B3B3B3",
"'.	c #B5B5B5",
").	c #B6B6B6",
"!.	c #B8B8B8",
"~.	c #808080",
"{.	c #AEAEAE",
"].	c #BBBBBB",
"^.	c #C1C1C1",
"/.	c #C4C4C4",
"(.	c #C5C5C5",
"_.	c #C7C7C7",
":.	c #8C8C8C",
"<.	c #A2A2A2",
"[.	c #ABABAB",
"}.	c #BCBCBC",
"|.	c #C9C9C9",
"1.	c #CDCDCD",
"2.	c #D0D0D0",
"3.	c #D3D3D3",
"4.	c #D5D5D5",
"5.	c #D6D6D6",
"6.	c #DADADA",
"7.	c #DDDDDD",
"8.	c #E0E0E0",
"9.	c #E1E1E1",
"0.	c #CCCCCC",
"a.	c #DBDBDB",
"b.	c #E6E6E6",
"c.	c #E8E8E8",
"d.	c #EBEBEB",
"e.	c #ECECEC",
"f.	c #CECECE",
"g.	c #DEDEDE",
"h.	c #E5E5E5",
"i.	c #EFEFEF",
"j.	c #F1F1F1",
"k.	c #F3F3F3",
"l.	c #F4F4F4",
"m.	c #DFDFDF",
"n.	c #E7E7E7",
"o.	c #EDEDED",
"p.	c #F2F2F2",
"q.	c #F5F5F5",
"r.	c #F8F8F8",
"s.	c #F9F9F9",
"t.	c #EEEEEE",
"u.	c #FAFAFA",
"v.	c #FCFCFC",
"w.	c #FDFDFD",
"x.	c #FBFBFB",
"y.	c #FEFEFE",
"z.	c #FFFFFF",
"                                                                                                                  ",
"                                                                                                                  ",
"                                                                                                                  ",
"                                                . . . + + + + . . .                                               ",
"                                        . . + @ # $ % & & & & % $ # @ + . .                                       ",
"                                    . + # % * = - ; > , , , , > ; - = * % # + .                                   ",
"                                . @ $ * ' ) ! ~ { ] ^ / / / / ^ ] { ~ ! ) ' * $ @ .                               ",
"                            . + # * - , ~ ( _ : < [ } | | | | } [ < : _ ( ~ , - * # + .                           ",
"                          . @ 1 2 , 3 4 5 [ 6 7 8 9 0 a a a a 0 9 8 7 6 [ 5 4 3 , 2 1 @ .                         ",
"                        + # b ) ~ c : d e 9 0 f g h i j j j j i h g f 0 9 e d : c ~ ) b # +                       ",
"                      + $ = , { k l e m f n i o p q r s s s s r q p o i n f m e l k { , = $ +                     ",
"                    + $ 2 t ] : | u v n j w x y z A B C C C C B A z y x w j n v u | : ] t 2 $ +                   ",
"                  + $ 2 ! c D E F G H I J K L M N O P Q Q Q Q P O N M L K J I H G F E D c ! 2 $ +                 ",
"                . # = t c D e a n R x S L T U V W X Y Z ` ` Z Y X W V U T L S x R n a e D c t = # .               ",
"              . @ b , ] D e a  .p s A M U ..+.` @.#.$.%.&.&.%.$.#.@.` +...U M A s p  .a e D ] , b @ .             ",
"              + 1 ) { : E a  .w s L N *.+.=.-.;.>.,.'.).!.!.).'.,.>.;.-.=.+.*.N L s w  .a E : { ) 1 +             ",
"            . # 2 ~ k | F n p s L ~...Y @.%.{.'.].^./.(._._.(./.^.].'.{.%.@.Y ..~.L s p n F | k ~ 2 # .           ",
"            @ * , c l u G R s L ~.:.` <.[.'.}./.|.1.2.3.4.4.3.2.1.|./.}.'.[.<.` :.~.L s R G u l c , * @           ",
"          . $ - 3 : e v H x A N ..` #.>.!.^.|.2.5.6.7.8.9.9.8.7.6.5.2.|.^.!.>.#.` ..N A x H v e : 3 - $ .         ",
"          + * , 4 d m n I S M *.Y <.>.!./.0.4.a.9.b.c.d.e.e.d.c.b.9.a.4.0./.!.>.<.Y *.M S I n m d 4 , * +         ",
"        . # ' ~ 5 e f j J L U +.@.[.!./.f.5.g.h.d.i.j.k.l.l.k.j.i.d.h.g.5.f./.!.[.@.+.U L J j f e 5 ~ ' # .       ",
"        . % ) ( [ 9 n w K T ..=.%.'.^.0.5.m.n.o.p.q.r.s.s.s.s.r.q.p.o.n.m.5.0.^.'.%.=...T K w n 9 [ ( ) % .       ",
"        + * ! _ 6 0 i x L U +.-.{.}.|.4.g.n.t.l.r.u.v.w.w.w.w.v.u.r.l.t.n.g.4.|.}.{.-.+.U L x i 0 6 _ ! * +       ",
"        @ = ~ : 7 f o y M V ` ;.'./.2.a.h.o.l.s.x.w.y.y.y.y.y.y.w.x.s.l.o.h.a.2./.'.;.` V M y o f 7 : ~ = @       ",
"      . # - { < 8 g p z N W @.>.].|.5.9.d.p.r.x.w.y.z.z.z.z.z.z.y.w.x.r.p.d.9.5.|.].>.@.W N z p g 8 < { - # .     ",
"      . $ ; ] [ 9 h q A O X #.,.^.1.6.b.i.q.u.w.y.z.z.z.z.z.z.z.z.y.w.u.q.i.b.6.1.^.,.#.X O A q h 9 [ ] ; $ .     ",
"      . % > ^ } 0 i r B P Y $.'./.2.7.c.j.r.v.y.z.z.z.z.z.z.z.z.z.z.y.v.r.j.c.7.2./.'.$.Y P B r i 0 } ^ > % .     ",
"      + & , / | a j s C Q Z %.).(.3.8.d.k.s.w.y.z.z.z.z.z.z.z.z.z.z.y.w.s.k.d.8.3.(.).%.Z Q C s j a | / , & +     ",
"      + & , / | a j s C Q ` &.!._.4.9.e.l.s.w.y.z.z.z.z.z.z.z.z.z.z.y.w.s.l.e.9.4._.!.&.` Q C s j a | / , & +     ",
"      + & , / | a j s C Q ` &.!._.4.9.e.l.s.w.y.z.z.z.z.z.z.z.z.z.z.y.w.s.l.e.9.4._.!.&.` Q C s j a | / , & +     ",
"      + & , / | a j s C Q Z %.).(.3.8.d.k.s.w.y.z.z.z.z.z.z.z.z.z.z.y.w.s.k.d.8.3.(.).%.Z Q C s j a | / , & +     ",
"      . % > ^ } 0 i r B P Y $.'./.2.7.c.j.r.v.y.z.z.z.z.z.z.z.z.z.z.y.v.r.j.c.7.2./.'.$.Y P B r i 0 } ^ > % .     ",
"      . $ ; ] [ 9 h q A O X #.,.^.1.6.b.i.q.u.w.y.z.z.z.z.z.z.z.z.y.w.u.q.i.b.6.1.^.,.#.X O A q h 9 [ ] ; $ .     ",
"      . # - { < 8 g p z N W @.>.].|.5.9.d.p.r.x.w.y.z.z.z.z.z.z.y.w.x.r.p.d.9.5.|.].>.@.W N z p g 8 < { - # .     ",
"        @ = ~ : 7 f o y M V ` ;.'./.2.a.h.o.l.s.x.w.y.y.y.y.y.y.w.x.s.l.o.h.a.2./.'.;.` V M y o f 7 : ~ = @       ",
"        + * ! _ 6 0 i x L U +.-.{.}.|.4.g.n.t.l.r.u.v.w.w.w.w.v.u.r.l.t.n.g.4.|.}.{.-.+.U L x i 0 6 _ ! * +       ",
"        . % ) ( [ 9 n w K T ..=.%.'.^.0.5.m.n.o.p.q.r.s.s.s.s.r.q.p.o.n.m.5.0.^.'.%.=...T K w n 9 [ ( ) % .       ",
"        . # ' ~ 5 e f j J L U +.@.[.!./.f.5.g.h.d.i.j.k.l.l.k.j.i.d.h.g.5.f./.!.[.@.+.U L J j f e 5 ~ ' # .       ",
"          + * , 4 d m n I S M *.Y <.>.!./.0.4.a.9.b.c.d.e.e.d.c.b.9.a.4.0./.!.>.<.Y *.M S I n m d 4 , * +         ",
"          . $ - 3 : e v H x A N ..` #.>.!.^.|.2.5.6.7.8.9.9.8.7.6.5.2.|.^.!.>.#.` ..N A x H v e : 3 - $ .         ",
"            @ * , c l u G R s L ~.:.` <.[.'.}./.|.1.2.3.4.4.3.2.1.|./.}.'.[.<.` :.~.L s R G u l c , * @           ",
"            . # 2 ~ k | F n p s L ~...Y @.%.{.'.].^./.(._._.(./.^.].'.{.%.@.Y ..~.L s p n F | k ~ 2 # .           ",
"              + 1 ) { : E a  .w s L N *.+.=.-.;.>.,.'.).!.!.).'.,.>.;.-.=.+.*.N L s w  .a E : { ) 1 +             ",
"              . @ b , ] D e a  .p s A M U ..+.` @.#.$.%.&.&.%.$.#.@.` +...U M A s p  .a e D ] , b @ .             ",
"                . # = t c D e a n R x S L T U V W X Y Z ` ` Z Y X W V U T L S x R n a e D c t = # .               ",
"                  + $ 2 ! c D E F G H I J K L M N O P Q Q Q Q P O N M L K J I H G F E D c ! 2 $ +                 ",
"                    + $ 2 t ] : | u v n j w x y z A B C C C C B A z y x w j n v u | : ] t 2 $ +                   ",
"                      + $ = , { k l e m f n i o p q r s s s s r q p o i n f m e l k { , = $ +                     ",
"                        + # b ) ~ c : d e 9 0 f g h i j j j j i h g f 0 9 e d : c ~ ) b # +                       ",
"                          . @ 1 2 , 3 4 5 [ 6 7 8 9 0 a a a a 0 9 8 7 6 [ 5 4 3 , 2 1 @ .                         ",
"                            . + # * - , ~ ( _ : < [ } | | | | } [ < : _ ( ~ , - * # + .                           ",
"                                . @ $ * ' ) ! ~ { ] ^ / / / / ^ ] { ~ ! ) ' * $ @ .                               ",
"                                    . + # % * = - ; > , , , , > ; - = * % # + .                                   ",
"                                        . . + @ # $ % & & & & % $ # @ + . .                                       ",
"                                                . . . + + + + . . .                                               ",
"                                                                                                                  ",
"                                                                                                                  ",
"                                                                                                                  ",
"                                                                                                                  "};
