/* XPM */
static char * exit_9_xpm[] = {
"57 59 157 2",
"  	c #000000",
". 	c #010101",
"+ 	c #020202",
"@ 	c #030303",
"# 	c #040404",
"$ 	c #050505",
"% 	c #060606",
"& 	c #070707",
"* 	c #080808",
"= 	c #0B0B0B",
"- 	c #0E0E0E",
"; 	c #101010",
"> 	c #111111",
", 	c #131313",
"' 	c #151515",
") 	c #171717",
"! 	c #1B1B1B",
"~ 	c #1C1C1C",
"{ 	c #1E1E1E",
"] 	c #1F1F1F",
"^ 	c #202020",
"/ 	c #242424",
"( 	c #272727",
"_ 	c #282828",
": 	c #2B2B2B",
"< 	c #2C2C2C",
"[ 	c #0D0D0D",
"} 	c #191919",
"| 	c #232323",
"1 	c #303030",
"2 	c #333333",
"3 	c #353535",
"4 	c #383838",
"5 	c #3A3A3A",
"6 	c #090909",
"7 	c #1D1D1D",
"8 	c #2A2A2A",
"9 	c #3C3C3C",
"0 	c #3F3F3F",
"a 	c #424242",
"b 	c #454545",
"c 	c #474747",
"d 	c #1A1A1A",
"e 	c #212121",
"f 	c #292929",
"g 	c #363636",
"h 	c #414141",
"i 	c #484848",
"j 	c #4C4C4C",
"k 	c #4F4F4F",
"l 	c #535353",
"m 	c #555555",
"n 	c #141414",
"o 	c #343434",
"p 	c #3B3B3B",
"q 	c #4D4D4D",
"r 	c #525252",
"s 	c #565656",
"t 	c #5A5A5A",
"u 	c #5E5E5E",
"v 	c #616161",
"w 	c #636363",
"x 	c #262626",
"y 	c #2F2F2F",
"z 	c #373737",
"A 	c #464646",
"B 	c #4E4E4E",
"C 	c #545454",
"D 	c #595959",
"E 	c #606060",
"F 	c #656565",
"G 	c #696969",
"H 	c #6C6C6C",
"I 	c #707070",
"J 	c #727272",
"K 	c #494949",
"L 	c #676767",
"M 	c #6D6D6D",
"N 	c #737373",
"O 	c #787878",
"P 	c #7C7C7C",
"Q 	c #7F7F7F",
"R 	c #818181",
"S 	c #828282",
"T 	c #444444",
"U 	c #757575",
"V 	c #7B7B7B",
"W 	c #888888",
"X 	c #8D8D8D",
"Y 	c #8F8F8F",
"Z 	c #919191",
"` 	c #939393",
" .	c #686868",
"..	c #717171",
"+.	c #838383",
"@.	c #8B8B8B",
"#.	c #929292",
"$.	c #989898",
"%.	c #9E9E9E",
"&.	c #A0A0A0",
"*.	c #A1A1A1",
"=.	c #A4A4A4",
"-.	c #6B6B6B",
";.	c #999999",
">.	c #A7A7A7",
",.	c #ADADAD",
"'.	c #B1B1B1",
").	c #B2B2B2",
"!.	c #B4B4B4",
"~.	c #767676",
"{.	c #8C8C8C",
"].	c #969696",
"^.	c #A8A8A8",
"/.	c #B6B6B6",
"(.	c #BBBBBB",
"_.	c #BFBFBF",
":.	c #C2C2C2",
"<.	c #C4C4C4",
"[.	c #8E8E8E",
"}.	c #AEAEAE",
"|.	c #C5C5C5",
"1.	c #CACACA",
"2.	c #CECECE",
"3.	c #D2D2D2",
"4.	c #D3D3D3",
"5.	c #BABABA",
"6.	c #CCCCCC",
"7.	c #D9D9D9",
"8.	c #DCDCDC",
"9.	c #DFDFDF",
"0.	c #E1E1E1",
"a.	c #BCBCBC",
"b.	c #C6C6C6",
"c.	c #CFCFCF",
"d.	c #D8D8D8",
"e.	c #E5E5E5",
"f.	c #E8E8E8",
"g.	c #EBEBEB",
"h.	c #ECECEC",
"i.	c #D0D0D0",
"j.	c #DADADA",
"k.	c #E3E3E3",
"l.	c #E9E9E9",
"m.	c #EEEEEE",
"n.	c #F2F2F2",
"o.	c #F3F3F3",
"p.	c #F4F4F4",
"q.	c #E4E4E4",
"r.	c #F5F5F5",
"s.	c #F8F8F8",
"t.	c #FAFAFA",
"u.	c #F7F7F7",
"v.	c #FCFCFC",
"w.	c #FDFDFD",
"x.	c #FBFBFB",
"y.	c #FEFEFE",
"z.	c #FFFFFF",
"                                                                                                                  ",
"                                                                                                                  ",
"                                                                                                                  ",
"                                                . . . + + + + . . .                                               ",
"                                        . . + @ # $ % & & & & % $ # @ + . .                                       ",
"                                    . + # % * = - ; > , , , , > ; - = * % # + .                                   ",
"                                . @ $ * = ; ' ) ! ~ { ] ] ] ] { ~ ! ) ' ; = * $ @ .                               ",
"                            . + # * - , ) ! ^ / ( _ : < < < < : _ ( / ^ ! ) , - * # + .                           ",
"                          . @ & [ , } { | _ : 1 2 3 4 5 5 5 5 4 3 2 1 : _ | { } , [ & @ .                         ",
"                        + # 6 ; ) 7 / 8 1 3 4 9 0 a b c c c c b a 0 9 4 3 1 8 / 7 ) ; 6 # +                       ",
"                      + $ = , d e f 1 g 9 h b i j k l m m m m l k j i b h 9 g 1 f e d , = $ +                     ",
"                    + $ [ n ~ / < o p h c q r s t u v w w w w v u t s r q c h p o < / ~ n [ $ +                   ",
"                  + $ [ ' 7 x y z 0 A B C D E F G H I J J J J I H G F E D C B A 0 z y x 7 ' [ $ +                 ",
"                . # = n 7 x 1 5 h K r t E L M N O P Q R S S R Q P O N M L E t r K h 5 1 x 7 n = # .               ",
"              . @ 6 , ~ x 1 5 T j m u F M U V S W X Y Z ` ` Z Y X W S V U M F u m j T 5 1 x ~ , 6 @ .             ",
"              + & ; d / y 5 T q m E  ...V +.@.#.$.%.&.*.=.=.*.&.%.$.#.@.+.V .. .E m q T 5 y / d ; & +             ",
"            . # [ ) e < z h j m E -.U Q W Z ;.&.>.,.'.).!.!.).'.,.>.&.;.Z W Q U -.E m j h z < e ) [ # .           ",
"            @ * , 7 f o 0 K m E -.~.S {.].&.^.'./.(._.:.<.<.:._.(./.'.^.&.].{.S ~.-.E m K 0 o f 7 , * @           ",
"          . $ - } / 1 p A r u  .U S [.$.=.}./._.|.1.2.3.4.4.3.2.1.|._./.}.=.$.[.S U  .u r A p 1 / } - $ .         ",
"          + * , { 8 g h B t F ..Q {.$.=.'.5.<.6.4.7.8.9.0.0.9.8.7.4.6.<.5.'.=.$.{.Q ..F t B h g 8 { , * +         ",
"        . # = ) | 1 9 c C E M V W ].=.'.a.b.c.d.9.e.f.g.h.h.g.f.e.9.d.c.b.a.'.=.].W V M E C c 9 1 | ) = # .       ",
"        . % ; ! _ 3 h q D L U +.Z &.}.5.b.i.j.k.l.m.n.o.p.p.o.n.m.l.k.j.i.b.5.}.&.Z +.U L D q h 3 _ ! ; % .       ",
"        + * ' ^ : 4 b r E M V @.;.^./.<.c.j.q.h.n.r.s.t.t.t.t.s.r.n.h.q.j.c.<./.^.;.@.V M E r b 4 : ^ ' * +       ",
"        @ = ) / 1 9 i s F N S #.&.'._.6.d.k.h.o.u.t.v.w.w.w.w.v.t.u.o.h.k.d.6._.'.&.#.S N F s i 9 1 / ) = @       ",
"      . # - ! ( 2 0 j t G O W $.>./.|.4.9.l.n.u.x.w.y.y.z.z.y.y.w.x.u.n.l.9.4.|./.>.$.W O G t j 0 2 ( ! - # .     ",
"      . $ ; ~ _ 3 a k u H P X %.,.(.1.7.e.m.r.t.w.y.z.z.z.z.z.z.y.w.t.r.m.e.7.1.(.,.%.X P H u k a 3 _ ~ ; $ .     ",
"      . % > { : 4 b l v I Q Y &.'._.2.8.f.n.s.v.y.z.z.z.z.z.z.z.z.y.v.s.n.f.8.2._.'.&.Y Q I v l b 4 : { > % .     ",
"      + & , ] < 5 c m w J R Z *.).:.3.9.g.o.t.w.y.z.z.z.z.z.z.z.z.y.w.t.o.g.9.3.:.).*.Z R J w m c 5 < ] , & +     ",
"      + & , ] < 5 c m w J S ` =.!.<.4.0.h.p.t.w.z.z.z.z.z.z.z.z.z.z.w.t.p.h.0.4.<.!.=.` S J w m c 5 < ] , & +     ",
"      + & , ] < 5 c m w J S ` =.!.<.4.0.h.p.t.w.z.z.z.z.z.z.z.z.z.z.w.t.p.h.0.4.<.!.=.` S J w m c 5 < ] , & +     ",
"      + & , ] < 5 c m w J R Z *.).:.3.9.g.o.t.w.y.z.z.z.z.z.z.z.z.y.w.t.o.g.9.3.:.).*.Z R J w m c 5 < ] , & +     ",
"      . % > { : 4 b l v I Q Y &.'._.2.8.f.n.s.v.y.z.z.z.z.z.z.z.z.y.v.s.n.f.8.2._.'.&.Y Q I v l b 4 : { > % .     ",
"      . $ ; ~ _ 3 a k u H P X %.,.(.1.7.e.m.r.t.w.y.z.z.z.z.z.z.y.w.t.r.m.e.7.1.(.,.%.X P H u k a 3 _ ~ ; $ .     ",
"      . # - ! ( 2 0 j t G O W $.>./.|.4.9.l.n.u.x.w.y.y.z.z.y.y.w.x.u.n.l.9.4.|./.>.$.W O G t j 0 2 ( ! - # .     ",
"        @ = ) / 1 9 i s F N S #.&.'._.6.d.k.h.o.u.t.v.w.w.w.w.v.t.u.o.h.k.d.6._.'.&.#.S N F s i 9 1 / ) = @       ",
"        + * ' ^ : 4 b r E M V @.;.^./.<.c.j.q.h.n.r.s.t.t.t.t.s.r.n.h.q.j.c.<./.^.;.@.V M E r b 4 : ^ ' * +       ",
"        . % ; ! _ 3 h q D L U +.Z &.}.5.b.i.j.k.l.m.n.o.p.p.o.n.m.l.k.j.i.b.5.}.&.Z +.U L D q h 3 _ ! ; % .       ",
"        . # = ) | 1 9 c C E M V W ].=.'.a.b.c.d.9.e.f.g.h.h.g.f.e.9.d.c.b.a.'.=.].W V M E C c 9 1 | ) = # .       ",
"          + * , { 8 g h B t F ..Q {.$.=.'.5.<.6.4.7.8.9.0.0.9.8.7.4.6.<.5.'.=.$.{.Q ..F t B h g 8 { , * +         ",
"          . $ - } / 1 p A r u  .U S [.$.=.}./._.|.1.2.3.4.4.3.2.1.|._./.}.=.$.[.S U  .u r A p 1 / } - $ .         ",
"            @ * , 7 f o 0 K m E -.~.S {.].&.^.'./.(._.:.<.<.:._.(./.'.^.&.].{.S ~.-.E m K 0 o f 7 , * @           ",
"            . # [ ) e < z h j m E -.U Q W Z ;.&.>.,.'.).!.!.).'.,.>.&.;.Z W Q U -.E m j h z < e ) [ # .           ",
"              + & ; d / y 5 T q m E  ...V +.@.#.$.%.&.*.=.=.*.&.%.$.#.@.+.V .. .E m q T 5 y / d ; & +             ",
"              . @ 6 , ~ x 1 5 T j m u F M U V S W X Y Z ` ` Z Y X W S V U M F u m j T 5 1 x ~ , 6 @ .             ",
"                . # = n 7 x 1 5 h K r t E L M N O P Q R S S R Q P O N M L E t r K h 5 1 x 7 n = # .               ",
"                  + $ [ ' 7 x y z 0 A B C D E F G H I J J J J I H G F E D C B A 0 z y x 7 ' [ $ +                 ",
"                    + $ [ n ~ / < o p h c q r s t u v w w w w v u t s r q c h p o < / ~ n [ $ +                   ",
"                      + $ = , d e f 1 g 9 h b i j k l m m m m l k j i b h 9 g 1 f e d , = $ +                     ",
"                        + # 6 ; ) 7 / 8 1 3 4 9 0 a b c c c c b a 0 9 4 3 1 8 / 7 ) ; 6 # +                       ",
"                          . @ & [ , } { | _ : 1 2 3 4 5 5 5 5 4 3 2 1 : _ | { } , [ & @ .                         ",
"                            . + # * - , ) ! ^ / ( _ : < < < < : _ ( / ^ ! ) , - * # + .                           ",
"                                . @ $ * = ; ' ) ! ~ { ] ] ] ] { ~ ! ) ' ; = * $ @ .                               ",
"                                    . + # % * = - ; > , , , , > ; - = * % # + .                                   ",
"                                        . . + @ # $ % & & & & % $ # @ + . .                                       ",
"                                                . . . + + + + . . .                                               ",
"                                                                                                                  ",
"                                                                                                                  ",
"                                                                                                                  ",
"                                                                                                                  "};
