/* XPM */
static char * exit_8_xpm[] = {
"57 59 146 2",
"  	c #000000",
". 	c #010101",
"+ 	c #020202",
"@ 	c #030303",
"# 	c #040404",
"$ 	c #060606",
"% 	c #070707",
"& 	c #080808",
"* 	c #090909",
"= 	c #0A0A0A",
"- 	c #0D0D0D",
"; 	c #0F0F0F",
"> 	c #101010",
", 	c #131313",
"' 	c #141414",
") 	c #050505",
"! 	c #0C0C0C",
"~ 	c #171717",
"{ 	c #191919",
"] 	c #1B1B1B",
"^ 	c #1D1D1D",
"/ 	c #1F1F1F",
"( 	c #121212",
"_ 	c #212121",
": 	c #232323",
"< 	c #252525",
"[ 	c #282828",
"} 	c #2A2A2A",
"| 	c #111111",
"1 	c #1C1C1C",
"2 	c #2B2B2B",
"3 	c #2E2E2E",
"4 	c #313131",
"5 	c #343434",
"6 	c #363636",
"7 	c #1A1A1A",
"8 	c #202020",
"9 	c #2F2F2F",
"0 	c #333333",
"a 	c #373737",
"b 	c #3B3B3B",
"c 	c #3E3E3E",
"d 	c #414141",
"e 	c #434343",
"f 	c #161616",
"g 	c #292929",
"h 	c #303030",
"i 	c #353535",
"j 	c #3A3A3A",
"k 	c #404040",
"l 	c #454545",
"m 	c #494949",
"n 	c #4C4C4C",
"o 	c #505050",
"p 	c #525252",
"q 	c #2C2C2C",
"r 	c #474747",
"s 	c #4D4D4D",
"t 	c #535353",
"u 	c #585858",
"v 	c #5C5C5C",
"w 	c #5F5F5F",
"x 	c #616161",
"y 	c #626262",
"z 	c #272727",
"A 	c #555555",
"B 	c #5B5B5B",
"C 	c #686868",
"D 	c #6D6D6D",
"E 	c #6F6F6F",
"F 	c #717171",
"G 	c #737373",
"H 	c #484848",
"I 	c #515151",
"J 	c #636363",
"K 	c #6B6B6B",
"L 	c #727272",
"M 	c #797979",
"N 	c #7F7F7F",
"O 	c #818181",
"P 	c #838383",
"Q 	c #868686",
"R 	c #4B4B4B",
"S 	c #7A7A7A",
"T 	c #828282",
"U 	c #898989",
"V 	c #909090",
"W 	c #949494",
"X 	c #969696",
"Y 	c #989898",
"Z 	c #565656",
"` 	c #6C6C6C",
" .	c #777777",
"..	c #8A8A8A",
"+.	c #9A9A9A",
"@.	c #A0A0A0",
"#.	c #A5A5A5",
"$.	c #A8A8A8",
"%.	c #ABABAB",
"&.	c #6E6E6E",
"*.	c #919191",
"=.	c #A4A4A4",
"-.	c #ACACAC",
";.	c #B2B2B2",
">.	c #B6B6B6",
",.	c #BBBBBB",
"'.	c #BDBDBD",
").	c #9F9F9F",
"!.	c #AAAAAA",
"~.	c #B4B4B4",
"{.	c #C4C4C4",
"].	c #C8C8C8",
"^.	c #CCCCCC",
"/.	c #CECECE",
"(.	c #A1A1A1",
"_.	c #ADADAD",
":.	c #B8B8B8",
"<.	c #C3C3C3",
"[.	c #D4D4D4",
"}.	c #D8D8D8",
"|.	c #DCDCDC",
"1.	c #DEDEDE",
"2.	c #B9B9B9",
"3.	c #C6C6C6",
"4.	c #D1D1D1",
"5.	c #DADADA",
"6.	c #E1E1E1",
"7.	c #E6E6E6",
"8.	c #E9E9E9",
"9.	c #EAEAEA",
"0.	c #D2D2D2",
"a.	c #ECECEC",
"b.	c #F0F0F0",
"c.	c #F3F3F3",
"d.	c #F4F4F4",
"e.	c #E8E8E8",
"f.	c #EFEFEF",
"g.	c #F7F7F7",
"h.	c #FAFAFA",
"i.	c #FBFBFB",
"j.	c #F5F5F5",
"k.	c #F9F9F9",
"l.	c #FCFCFC",
"m.	c #FDFDFD",
"n.	c #FEFEFE",
"o.	c #FFFFFF",
"                                                                                                                  ",
"                                                                                                                  ",
"                                                                                                                  ",
"                                                                                                                  ",
"                                                                                                                  ",
"                                                . . + + + + + + . .                                               ",
"                                          . @ # $ % & * * * * & % $ # @ .                                         ",
"                                    . + # $ = - ; > , ' ' ' ' , > ; - = $ # + .                                   ",
"                                . + ) & ! > , ~ { ] ^ / / / / ^ ] { ~ , > ! & ) + .                               ",
"                              . # % - ( ~ ] ^ _ : < [ } } } } [ < : _ ^ ] ~ ( - % # .                             ",
"                            + ) = | ~ 1 _ < [ 2 3 4 5 6 6 6 6 5 4 3 2 [ < _ 1 ~ | = ) +                           ",
"                        . + % - , 7 8 < } 9 0 a b c d e e e e d c b a 0 9 } < 8 7 , - % + .                       ",
"                      . @ % ; f ^ : g h i j k l m n o p p p p o n m l k j i h g : ^ f ; % @ .                     ",
"                      + % ; ~ / < q 0 j k r s t u v w x y y x w v u t s r k j 0 q < / ~ ; % +                     ",
"                    + % ; ~ / z 3 6 c l s A B y C D E F G G F E D C y B A s l c 6 3 z / ~ ; % +                   ",
"                  . ) - f / z 9 6 k H I B J K L M N O P Q Q P O N M L K J B I H k 6 9 z / f - ) .                 ",
"                . # = , ^ < 3 6 k R A w C F S T U V W X Y Y X W V U T S F C w A R k 6 3 < ^ , = # .               ",
"                + % | 7 : q 6 k R Z y `  .O ..W +.@.#.$.%.%.$.#.@.+.W ..O  .` y Z R k 6 q : 7 | % +               ",
"              . ) - ~ 8 g 0 c H A y &.M Q *.+.=.-.;.>.,.'.'.,.>.;.-.=.+.*.Q M &.y A H c 0 g 8 ~ - ) .             ",
"              + & ( 1 < h j l I w ` M Q W ).!.~.'.{.].^././.^.].{.'.~.!.).W Q M ` w I l j h < 1 ( & +             ",
"              # ! ~ _ } i k s B C  .Q W (._.:.<.^.[.}.|.1.1.|.}.[.^.<.:._.(.W Q  .C B s k i } _ ~ ! #             ",
"            . $ > ] < 9 j r A J F O *.)._.2.3.4.5.6.7.8.9.9.8.7.6.5.4.3.2._.).*.O F J A r j 9 < ] > $ .           ",
"            @ = , ^ [ 0 k s B K S ..+.!.:.3.0.1.7.a.b.c.d.d.c.b.a.7.1.0.3.:.!.+...S K B s k 0 [ ^ , = @           ",
"            # - ~ _ 2 a l t y L T W =.~.<.4.1.e.f.d.g.h.i.i.h.g.d.f.e.1.4.<.~.=.W T L y t l a 2 _ ~ - #           ",
"          . $ ; { : 3 b m u C M U +.-.'.^.5.7.f.j.k.l.m.n.n.m.l.k.j.f.7.5.^.'.-.+.U M C u m b 3 : { ; $ .         ",
"          . % > ] < 4 c n v D N V @.;.{.[.6.a.d.k.l.n.n.o.o.n.n.l.k.d.a.6.[.{.;.@.V N D v n c 4 < ] > % .         ",
"          + & , ^ [ 5 d o w E O W #.>.].}.7.b.g.l.n.o.o.o.o.o.o.n.l.g.b.7.}.].>.#.W O E w o d 5 [ ^ , & +         ",
"          + * ' / } 6 e p x F P X $.,.^.|.8.c.h.m.n.o.o.o.o.o.o.n.m.h.c.8.|.^.,.$.X P F x p e 6 } / ' * +         ",
"          + * ' / } 6 e p y G Q Y %.'./.1.9.d.i.n.o.o.o.o.o.o.o.o.n.i.d.9.1./.'.%.Y Q G y p e 6 } / ' * +         ",
"          + * ' / } 6 e p y G Q Y %.'./.1.9.d.i.n.o.o.o.o.o.o.o.o.n.i.d.9.1./.'.%.Y Q G y p e 6 } / ' * +         ",
"          + * ' / } 6 e p x F P X $.,.^.|.8.c.h.m.n.o.o.o.o.o.o.n.m.h.c.8.|.^.,.$.X P F x p e 6 } / ' * +         ",
"          + & , ^ [ 5 d o w E O W #.>.].}.7.b.g.l.n.o.o.o.o.o.o.n.l.g.b.7.}.].>.#.W O E w o d 5 [ ^ , & +         ",
"          . % > ] < 4 c n v D N V @.;.{.[.6.a.d.k.l.n.n.o.o.n.n.l.k.d.a.6.[.{.;.@.V N D v n c 4 < ] > % .         ",
"          . $ ; { : 3 b m u C M U +.-.'.^.5.7.f.j.k.l.m.n.n.m.l.k.j.f.7.5.^.'.-.+.U M C u m b 3 : { ; $ .         ",
"            # - ~ _ 2 a l t y L T W =.~.<.4.1.e.f.d.g.h.i.i.h.g.d.f.e.1.4.<.~.=.W T L y t l a 2 _ ~ - #           ",
"            @ = , ^ [ 0 k s B K S ..+.!.:.3.0.1.7.a.b.c.d.d.c.b.a.7.1.0.3.:.!.+...S K B s k 0 [ ^ , = @           ",
"            . $ > ] < 9 j r A J F O *.)._.2.3.4.5.6.7.8.9.9.8.7.6.5.4.3.2._.).*.O F J A r j 9 < ] > $ .           ",
"              # ! ~ _ } i k s B C  .Q W (._.:.<.^.[.}.|.1.1.|.}.[.^.<.:._.(.W Q  .C B s k i } _ ~ ! #             ",
"              + & ( 1 < h j l I w ` M Q W ).!.~.'.{.].^././.^.].{.'.~.!.).W Q M ` w I l j h < 1 ( & +             ",
"              . ) - ~ 8 g 0 c H A y &.M Q *.+.=.-.;.>.,.'.'.,.>.;.-.=.+.*.Q M &.y A H c 0 g 8 ~ - ) .             ",
"                + % | 7 : q 6 k R Z y `  .O ..W +.@.#.$.%.%.$.#.@.+.W ..O  .` y Z R k 6 q : 7 | % +               ",
"                . # = , ^ < 3 6 k R A w C F S T U V W X Y Y X W V U T S F C w A R k 6 3 < ^ , = # .               ",
"                  . ) - f / z 9 6 k H I B J K L M N O P Q Q P O N M L K J B I H k 6 9 z / f - ) .                 ",
"                    + % ; ~ / z 3 6 c l s A B y C D E F G G F E D C y B A s l c 6 3 z / ~ ; % +                   ",
"                      + % ; ~ / < q 0 j k r s t u v w x y y x w v u t s r k j 0 q < / ~ ; % +                     ",
"                      . @ % ; f ^ : g h i j k l m n o p p p p o n m l k j i h g : ^ f ; % @ .                     ",
"                        . + % - , 7 8 < } 9 0 a b c d e e e e d c b a 0 9 } < 8 7 , - % + .                       ",
"                            + ) = | ~ 1 _ < [ 2 3 4 5 6 6 6 6 5 4 3 2 [ < _ 1 ~ | = ) +                           ",
"                              . # % - ( ~ ] ^ _ : < [ } } } } [ < : _ ^ ] ~ ( - % # .                             ",
"                                . + ) & ! > , ~ { ] ^ / / / / ^ ] { ~ , > ! & ) + .                               ",
"                                    . + # $ = - ; > , ' ' ' ' , > ; - = $ # + .                                   ",
"                                          . @ # $ % & * * * * & % $ # @ .                                         ",
"                                                . . + + + + + + . .                                               ",
"                                                                                                                  ",
"                                                                                                                  ",
"                                                                                                                  ",
"                                                                                                                  ",
"                                                                                                                  ",
"                                                                                                                  "};
