/* XPM */
static char * exit_11_xpm[] = {
"57 59 155 2",
"  	c #000000",
". 	c #040404",
"+ 	c #080808",
"@ 	c #0C0C0C",
"# 	c #101010",
"$ 	c #131313",
"% 	c #151515",
"& 	c #171717",
"* 	c #0F0F0F",
"= 	c #1A1A1A",
"- 	c #1E1E1E",
"; 	c #232323",
"> 	c #262626",
", 	c #282828",
"' 	c #2A2A2A",
") 	c #121212",
"! 	c #181818",
"~ 	c #1F1F1F",
"{ 	c #272727",
"] 	c #2D2D2D",
"^ 	c #313131",
"/ 	c #363636",
"( 	c #383838",
"_ 	c #3B3B3B",
": 	c #3D3D3D",
"< 	c #191919",
"[ 	c #222222",
"} 	c #373737",
"| 	c #3F3F3F",
"1 	c #444444",
"2 	c #484848",
"3 	c #4A4A4A",
"4 	c #4D4D4D",
"5 	c #4F4F4F",
"6 	c #161616",
"7 	c #212121",
"8 	c #343434",
"9 	c #3C3C3C",
"0 	c #424242",
"a 	c #494949",
"b 	c #4E4E4E",
"c 	c #565656",
"d 	c #595959",
"e 	c #5B5B5B",
"f 	c #5F5F5F",
"g 	c #626262",
"h 	c #1C1C1C",
"i 	c #3A3A3A",
"j 	c #434343",
"k 	c #4C4C4C",
"l 	c #555555",
"m 	c #656565",
"n 	c #696969",
"o 	c #6D6D6D",
"p 	c #717171",
"q 	c #747474",
"r 	c #404040",
"s 	c #4B4B4B",
"t 	c #5D5D5D",
"u 	c #6C6C6C",
"v 	c #757575",
"w 	c #7A7A7A",
"x 	c #7E7E7E",
"y 	c #828282",
"z 	c #858585",
"A 	c #2C2C2C",
"B 	c #5A5A5A",
"C 	c #646464",
"D 	c #7B7B7B",
"E 	c #818181",
"F 	c #878787",
"G 	c #8C8C8C",
"H 	c #909090",
"I 	c #939393",
"J 	c #959595",
"K 	c #393939",
"L 	c #474747",
"M 	c #545454",
"N 	c #5E5E5E",
"O 	c #686868",
"P 	c #727272",
"Q 	c #7C7C7C",
"R 	c #838383",
"S 	c #8A8A8A",
"T 	c #929292",
"U 	c #979797",
"V 	c #9B9B9B",
"W 	c #9F9F9F",
"X 	c #A3A3A3",
"Y 	c #A6A6A6",
"Z 	c #777777",
"` 	c #8B8B8B",
" .	c #999999",
"..	c #A0A0A0",
"+.	c #A7A7A7",
"@.	c #ACACAC",
"#.	c #B0B0B0",
"$.	c #B2B2B2",
"%.	c #B4B4B4",
"&.	c #B5B5B5",
"*.	c #6F6F6F",
"=.	c #A9A9A9",
"-.	c #AFAFAF",
";.	c #BBBBBB",
">.	c #BFBFBF",
",.	c #C1C1C1",
"'.	c #C2C2C2",
").	c #C4C4C4",
"!.	c #868686",
"~.	c #A5A5A5",
"{.	c #B6B6B6",
"].	c #BEBEBE",
"^.	c #C3C3C3",
"/.	c #C9C9C9",
"(.	c #CECECE",
"_.	c #CFCFCF",
":.	c #D0D0D0",
"<.	c #D2D2D2",
"[.	c #9D9D9D",
"}.	c #B3B3B3",
"|.	c #CACACA",
"1.	c #D5D5D5",
"2.	c #D9D9D9",
"3.	c #DCDCDC",
"4.	c #DDDDDD",
"5.	c #DEDEDE",
"6.	c #AAAAAA",
"7.	c #C7C7C7",
"8.	c #E0E0E0",
"9.	c #E3E3E3",
"0.	c #E5E5E5",
"a.	c #E7E7E7",
"b.	c #E8E8E8",
"c.	c #C0C0C0",
"d.	c #DADADA",
"e.	c #E9E9E9",
"f.	c #ECECEC",
"g.	c #EEEEEE",
"h.	c #F0F0F0",
"i.	c #E2E2E2",
"j.	c #EDEDED",
"k.	c #F3F3F3",
"l.	c #F5F5F5",
"m.	c #F7F7F7",
"n.	c #E4E4E4",
"o.	c #EFEFEF",
"p.	c #F9F9F9",
"q.	c #FBFBFB",
"r.	c #F4F4F4",
"s.	c #F8F8F8",
"t.	c #FAFAFA",
"u.	c #FCFCFC",
"v.	c #FDFDFD",
"w.	c #FFFFFF",
"x.	c #FEFEFE",
"                                                                                                                  ",
"                                                                                                                  ",
"                                                                                                                  ",
"                                                . . . + + + + . . .                                               ",
"                                        . . + @ # $ % & & & & % $ # @ + . .                                       ",
"                                    . + * % = - ; > , ' ' ' ' , > ; - = % * + .                                   ",
"                                . @ ) ! ~ { ] ^ / ( _ : : : : _ ( / ^ ] { ~ ! ) @ .                               ",
"                            . + * < [ ' ^ } | 1 2 3 4 5 5 5 5 4 3 2 1 | } ^ ' [ < * + .                           ",
"                          . @ 6 7 ' 8 9 0 a b c d e f g g g g f e d c b a 0 9 8 ' 7 6 @ .                         ",
"                        + * h { ^ i j k l e f m n o p q q q q p o n m f e l k j i ^ { h * +                       ",
"                      + $ - ' / r s l t m u p v w x y z z z z y x w v p u m t l s r / ' - $ +                     ",
"                    + $ 7 A ( j 5 B C u q D E F G H I J J J J I H G F E D q u C B 5 j ( A 7 $ +                   ",
"                  + $ 7 ] K L M N O P Q R S T U V W X Y Y Y Y X W V U T S R Q P O N M L K ] 7 $ +                 ",
"                . * - A K L l g u Z E ` T  ...+.@.#.$.%.&.&.%.$.#.@.+... .T ` E Z u g l L K A - * .               ",
"              . @ h ' ( L l g *.w z H U ..=.-.&.;.>.,.'.).).'.,.>.;.&.-.=...U H z w *.g l L ( ' h @ .             ",
"              + 6 { / j M g *.D !.T V ~.-.{.].^./.(._.:.<.<.:._.(./.^.].{.-.~.V T !.D *.g M j / { 6 +             ",
"            . * 7 ^ r 5 N u w !.T [.=.}.;.'.|.:.1.2.3.4.5.5.4.3.2.1.:.|.'.;.}.=.[.T !.w u N 5 r ^ 7 * .           ",
"            @ < ' i s B O Z z T [.6.&.>.7._.1.3.8.9.0.a.b.b.a.0.9.8.3.1._.7.>.&.6.[.T z Z O B s i ' < @           ",
"          . ) [ 8 j l C P E H V =.&.c./.<.d.8.0.e.f.g.h.h.h.h.g.f.e.0.8.d.<./.c.&.=.V H E P C l j 8 [ ) .         ",
"          + ! ' 9 k t u Q ` U ~.}.>./.<.3.i.b.j.h.k.l.m.m.m.m.l.k.h.j.b.i.3.<./.>.}.~.U ` Q u t k 9 ' ! +         ",
"        . * ~ ^ 0 l m q R T ..-.;.7.<.3.n.e.o.k.m.p.p.q.q.q.q.p.p.m.k.o.e.n.3.<.7.;.-...T R q m l 0 ^ ~ * .       ",
"        . % { } a e u D S  .=.{.'._.d.i.e.h.r.s.t.u.v.v.v.v.v.v.u.t.s.r.h.e.i.d._.'.{.=. .S D u e a } { % .       ",
"        + = ] | b f p E T ..-.].|.1.8.b.o.r.s.q.v.v.w.w.w.w.w.w.v.v.q.s.r.o.b.8.1.|.].-...T E p f b | ] = +       ",
"        @ - ^ 1 c m v F U +.&.^.:.3.0.j.k.s.q.v.x.w.w.w.w.w.w.w.w.x.v.q.s.k.j.0.3.:.^.&.+.U F v m c 1 ^ - @       ",
"      . # ; / 2 d n w G V @.;./.1.8.e.h.m.t.v.x.w.w.w.w.w.w.w.w.w.w.x.v.t.m.h.e.8.1./.;.@.V G w n d 2 / ; # .     ",
"      . $ > ( 3 e o x H W #.>.(.2.9.f.k.p.u.v.w.w.w.w.w.w.w.w.w.w.w.w.v.u.p.k.f.9.2.(.>.#.W H x o e 3 ( > $ .     ",
"      . % , _ 4 f p y I X $.,._.3.0.g.l.p.v.w.w.w.w.w.w.w.w.w.w.w.w.w.w.v.p.l.g.0.3._.,.$.X I y p f 4 _ , % .     ",
"      + & ' : 5 g q z J Y %.'.:.4.a.h.m.q.v.w.w.w.w.w.w.w.w.w.w.w.w.w.w.v.q.m.h.a.4.:.'.%.Y J z q g 5 : ' & +     ",
"      + & ' : 5 g q z J Y &.).<.5.b.h.m.q.v.w.w.w.w.w.w.w.w.w.w.w.w.w.w.v.q.m.h.b.5.<.).&.Y J z q g 5 : ' & +     ",
"      + & ' : 5 g q z J Y &.).<.5.b.h.m.q.v.w.w.w.w.w.w.w.w.w.w.w.w.w.w.v.q.m.h.b.5.<.).&.Y J z q g 5 : ' & +     ",
"      + & ' : 5 g q z J Y %.'.:.4.a.h.m.q.v.w.w.w.w.w.w.w.w.w.w.w.w.w.w.v.q.m.h.a.4.:.'.%.Y J z q g 5 : ' & +     ",
"      . % , _ 4 f p y I X $.,._.3.0.g.l.p.v.w.w.w.w.w.w.w.w.w.w.w.w.w.w.v.p.l.g.0.3._.,.$.X I y p f 4 _ , % .     ",
"      . $ > ( 3 e o x H W #.>.(.2.9.f.k.p.u.v.w.w.w.w.w.w.w.w.w.w.w.w.v.u.p.k.f.9.2.(.>.#.W H x o e 3 ( > $ .     ",
"      . # ; / 2 d n w G V @.;./.1.8.e.h.m.t.v.x.w.w.w.w.w.w.w.w.w.w.x.v.t.m.h.e.8.1./.;.@.V G w n d 2 / ; # .     ",
"        @ - ^ 1 c m v F U +.&.^.:.3.0.j.k.s.q.v.x.w.w.w.w.w.w.w.w.x.v.q.s.k.j.0.3.:.^.&.+.U F v m c 1 ^ - @       ",
"        + = ] | b f p E T ..-.].|.1.8.b.o.r.s.q.v.v.w.w.w.w.w.w.v.v.q.s.r.o.b.8.1.|.].-...T E p f b | ] = +       ",
"        . % { } a e u D S  .=.{.'._.d.i.e.h.r.s.t.u.v.v.v.v.v.v.u.t.s.r.h.e.i.d._.'.{.=. .S D u e a } { % .       ",
"        . * ~ ^ 0 l m q R T ..-.;.7.<.3.n.e.o.k.m.p.p.q.q.q.q.p.p.m.k.o.e.n.3.<.7.;.-...T R q m l 0 ^ ~ * .       ",
"          + ! ' 9 k t u Q ` U ~.}.>./.<.3.i.b.j.h.k.l.m.m.m.m.l.k.h.j.b.i.3.<./.>.}.~.U ` Q u t k 9 ' ! +         ",
"          . ) [ 8 j l C P E H V =.&.c./.<.d.8.0.e.f.g.h.h.h.h.g.f.e.0.8.d.<./.c.&.=.V H E P C l j 8 [ ) .         ",
"            @ < ' i s B O Z z T [.6.&.>.7._.1.3.8.9.0.a.b.b.a.0.9.8.3.1._.7.>.&.6.[.T z Z O B s i ' < @           ",
"            . * 7 ^ r 5 N u w !.T [.=.}.;.'.|.:.1.2.3.4.5.5.4.3.2.1.:.|.'.;.}.=.[.T !.w u N 5 r ^ 7 * .           ",
"              + 6 { / j M g *.D !.T V ~.-.{.].^./.(._.:.<.<.:._.(./.^.].{.-.~.V T !.D *.g M j / { 6 +             ",
"              . @ h ' ( L l g *.w z H U ..=.-.&.;.>.,.'.).).'.,.>.;.&.-.=...U H z w *.g l L ( ' h @ .             ",
"                . * - A K L l g u Z E ` T  ...+.@.#.$.%.&.&.%.$.#.@.+... .T ` E Z u g l L K A - * .               ",
"                  + $ 7 ] K L M N O P Q R S T U V W X Y Y Y Y X W V U T S R Q P O N M L K ] 7 $ +                 ",
"                    + $ 7 A ( j 5 B C u q D E F G H I J J J J I H G F E D q u C B 5 j ( A 7 $ +                   ",
"                      + $ - ' / r s l t m u p v w x y z z z z y x w v p u m t l s r / ' - $ +                     ",
"                        + * h { ^ i j k l e f m n o p q q q q p o n m f e l k j i ^ { h * +                       ",
"                          . @ 6 7 ' 8 9 0 a b c d e f g g g g f e d c b a 0 9 8 ' 7 6 @ .                         ",
"                            . + * < [ ' ^ } | 1 2 3 4 5 5 5 5 4 3 2 1 | } ^ ' [ < * + .                           ",
"                                . @ ) ! ~ { ] ^ / ( _ : : : : _ ( / ^ ] { ~ ! ) @ .                               ",
"                                    . + * % = - ; > , ' ' ' ' , > ; - = % * + .                                   ",
"                                        . . + @ # $ % & & & & % $ # @ + . .                                       ",
"                                                . . . + + + + . . .                                               ",
"                                                                                                                  ",
"                                                                                                                  ",
"                                                                                                                  ",
"                                                                                                                  "};
