/* XPM */
static char * exit_4_xpm[] = {
"57 59 70 1",
" 	c #000000",
".	c #010101",
"+	c #040404",
"@	c #060606",
"#	c #080808",
"$	c #0A0A0A",
"%	c #020202",
"&	c #070707",
"*	c #0C0C0C",
"=	c #111111",
"-	c #161616",
";	c #1A1A1A",
">	c #1D1D1D",
",	c #0B0B0B",
"'	c #151515",
")	c #1E1E1E",
"!	c #252525",
"~	c #2A2A2A",
"{	c #303030",
"]	c #333333",
"^	c #101010",
"/	c #1C1C1C",
"(	c #282828",
"_	c #3C3C3C",
":	c #424242",
"<	c #484848",
"[	c #4B4B4B",
"}	c #131313",
"|	c #1F1F1F",
"1	c #2D2D2D",
"2	c #3B3B3B",
"3	c #535353",
"4	c #5B5B5B",
"5	c #616161",
"6	c #656565",
"7	c #2E2E2E",
"8	c #3F3F3F",
"9	c #505050",
"0	c #5E5E5E",
"a	c #6B6B6B",
"b	c #767676",
"c	c #7C7C7C",
"d	c #7F7F7F",
"e	c #515151",
"f	c #757575",
"g	c #838383",
"h	c #8F8F8F",
"i	c #999999",
"j	c #9C9C9C",
"k	c #797979",
"l	c #8A8A8A",
"m	c #9B9B9B",
"n	c #A8A8A8",
"o	c #B3B3B3",
"p	c #B8B8B8",
"q	c #9E9E9E",
"r	c #B1B1B1",
"s	c #C0C0C0",
"t	c #CCCCCC",
"u	c #D2D2D2",
"v	c #C5C5C5",
"w	c #D7D7D7",
"x	c #E2E2E2",
"y	c #E7E7E7",
"z	c #E8E8E8",
"A	c #F1F1F1",
"B	c #F5F5F5",
"C	c #F9F9F9",
"D	c #FDFDFD",
"E	c #FFFFFF",
"                                                         ",
"                                                         ",
"                                                         ",
"                                                         ",
"                                                         ",
"                                                         ",
"                                                         ",
"                                                         ",
"                                                         ",
"                                                         ",
"                                                         ",
"                                                         ",
"                                                         ",
"                                                         ",
"                                                         ",
"                            ..                           ",
"                        .+@#$$#@+.                       ",
"                      %&*=-;>>;-=*&%                     ",
"                    .+,')!~{]]{~!)',+.                   ",
"                   .@^/(]_:<[[<:_](/^@.                  ",
"                  .@}|12<34566543<21|}@.                 ",
"                  +^|7890abcddcba0987|^+                 ",
"                 %,/18e6fghijjihgf6e81/,%                ",
"                 &'(296klmnopponmlk692('&                ",
"                .*)]<0flqrstuutsrqlf0<])*.               ",
"                +=!_3agmrvwxyyxwvrmga3_!=+               ",
"                @-~:4bhnswzABBAzwsnhb4:~-@               ",
"                #;{<5ciotxACDDCAxtoic5<{;#               ",
"               .$>][6djpuyBDEEDByupjd6[]>$.              ",
"               .$>][6djpuyBDEEDByupjd6[]>$.              ",
"                #;{<5ciotxACDDCAxtoic5<{;#               ",
"                @-~:4bhnswzABBAzwsnhb4:~-@               ",
"                +=!_3agmrvwxyyxwvrmga3_!=+               ",
"                .*)]<0flqrstuutsrqlf0<])*.               ",
"                 &'(296klmnopponmlk692('&                ",
"                 %,/18e6fghijjihgf6e81/,%                ",
"                  +^|7890abcddcba0987|^+                 ",
"                  .@}|12<34566543<21|}@.                 ",
"                   .@^/(]_:<[[<:_](/^@.                  ",
"                    .+,')!~{]]{~!)',+.                   ",
"                      %&*=-;>>;-=*&%                     ",
"                        .+@#$$#@+.                       ",
"                            ..                           ",
"                                                         ",
"                                                         ",
"                                                         ",
"                                                         ",
"                                                         ",
"                                                         ",
"                                                         ",
"                                                         ",
"                                                         ",
"                                                         ",
"                                                         ",
"                                                         ",
"                                                         ",
"                                                         ",
"                                                         ",
"                                                         "};
