/* XPM */
static char *bff187123afe4316de3b33db032450a4GVluYaOu1j1L2UHE[] = {
/* columns rows colors chars-per-pixel */
"57 59 230 2 ",
"   c black",
".  c #010000",
"X  c #000100",
"o  c #010101",
"O  c #020100",
"+  c #020001",
"@  c #000201",
"#  c #020200",
"$  c #030200",
"%  c #030301",
"&  c #010103",
"*  c #020202",
"=  c gray1",
"-  c #050000",
";  c #040001",
":  c #040301",
">  c #050102",
",  c #050003",
"<  c #000403",
"1  c #060503",
"2  c #070602",
"3  c #030104",
"4  c #010204",
"5  c #020204",
"6  c #030305",
"7  c #000106",
"8  c #050304",
"9  c #040404",
"0  c gray2",
"q  c #040406",
"w  c #070506",
"e  c #060606",
"r  c #070707",
"t  c #090001",
"y  c #0C0000",
"u  c #080307",
"i  c #090307",
"p  c #0A0605",
"a  c #0C0606",
"s  c #050A04",
"d  c #060807",
"f  c #090806",
"g  c #000008",
"h  c #010008",
"j  c #020109",
"k  c #03020A",
"l  c #050009",
"z  c #04030B",
"x  c #0C0308",
"c  c #0A0408",
"v  c #08060B",
"b  c #0D000E",
"n  c #070C08",
"m  c #07080C",
"M  c gray3",
"N  c #090909",
"B  c #0A0809",
"V  c #0A0A08",
"C  c #09090B",
"Z  c gray4",
"A  c #0B0B0B",
"S  c #0C0C0A",
"D  c #0D0D0B",
"F  c #0C0C0C",
"G  c gray5",
"H  c #0C0E0D",
"J  c #0E0E0E",
"K  c gray6",
"L  c #140202",
"P  c #190506",
"I  c #10000F",
"U  c #160A0A",
"Y  c #100E0F",
"T  c #0B110D",
"R  c #0D130F",
"E  c #10100E",
"W  c #080611",
"Q  c #0E0611",
"!  c #0D0B16",
"~  c #0E0C17",
"^  c #100412",
"/  c #110F10",
"(  c #1C0A1A",
")  c #101010",
"_  c #111111",
"`  c #101012",
"'  c gray7",
"]  c #131313",
"[  c #151316",
"{  c gray8",
"}  c #151515",
"|  c #141615",
" . c #141416",
".. c #171516",
"X. c #161616",
"o. c gray9",
"O. c #12121A",
"+. c #191718",
"@. c #181818",
"#. c #191919",
"$. c gray10",
"%. c #1A1A1C",
"&. c gray11",
"*. c #1E1E1E",
"=. c #22191A",
"-. c #B71D1D",
";. c #B61D1F",
":. c #B71F1E",
">. c #BE1C1A",
",. c #BE1B1C",
"<. c #BE1B1E",
"1. c #B81E1E",
"2. c #B91F1F",
"3. c #BC1C1C",
"4. c #BF1C1D",
"5. c #B51F21",
"6. c #B71E20",
"7. c #B81E20",
"8. c #9B2929",
"9. c #9C2A29",
"0. c #9D292A",
"q. c #9C2A2A",
"w. c #9D2B2A",
"e. c #8F2F30",
"r. c #AD2323",
"t. c #AE2223",
"y. c #AB2325",
"u. c #AA2327",
"i. c #A92425",
"p. c #AA2425",
"a. c #CC1414",
"s. c #CD1515",
"d. c #CE1415",
"f. c #CE1417",
"g. c #C3191A",
"h. c #C21A1A",
"j. c #C41A1A",
"k. c #D01413",
"l. c #D01415",
"z. c #E10B0B",
"x. c #E20A0B",
"c. c #E20C0A",
"v. c #E30C0A",
"b. c #E30B0C",
"n. c #E30B0E",
"m. c #E20C0C",
"M. c #E30D0D",
"N. c #E40C0D",
"B. c #F70201",
"V. c #F70303",
"C. c #F80302",
"Z. c #F80203",
"A. c #FA0203",
"S. c #FA0105",
"D. c #9B4045",
"F. c #B54448",
"G. c #FFDCDC",
"H. c #FFDFDF",
"J. c #FFDEE1",
"K. c #FFE0E0",
"L. c #FFE2E3",
"P. c #FFE4E3",
"I. c #FFE3E4",
"U. c #FFE4E4",
"Y. c #FFE4E6",
"T. c #FFE6E8",
"R. c #FFE7E8",
"E. c #FFE7EA",
"W. c #FFE8E8",
"Q. c #FFE8EA",
"!. c #FFEBEA",
"~. c #FFEAEC",
"^. c #FFEBEC",
"/. c #FFEBED",
"(. c #FFECED",
"). c #FFEDEF",
"_. c #FFEFEF",
"`. c #FFF0EF",
"'. c #FFEEF1",
"]. c #FFEFF3",
"[. c #F4F2F3",
"{. c #FFF1F1",
"}. c #FFF1F3",
"|. c #FFF4F3",
" X c #FFF3F4",
".X c #FFF5F4",
"XX c #FFF5F5",
"oX c #FFF6F4",
"OX c #FFF5F6",
"+X c #FFF6F6",
"@X c #FFF7F7",
"#X c #FFF9F6",
"$X c #FFF8F7",
"%X c #FFF6F8",
"&X c #FFF7F8",
"*X c #FFF5FA",
"=X c #FFF7FA",
"-X c #F8F8F8",
";X c #F9F9F9",
":X c gray98",
">X c #FBFBFB",
",X c #FFF8F8",
"<X c #FFF9F8",
"1X c #FFF8FA",
"2X c #FFF9FA",
"3X c #FFF9FB",
"4X c snow",
"5X c #FFFAFB",
"6X c #FFFBFB",
"7X c #FFFDFB",
"8X c #FCFFFB",
"9X c #FFFBFC",
"0X c #FBFFFD",
"qX c #FBFCFE",
"wX c gray99",
"eX c #FDFDFD",
"rX c #FEFCFD",
"tX c #FFFCFD",
"yX c #FFFDFD",
"uX c #FCFFFD",
"iX c #FEFEFC",
"pX c #FFFEFD",
"aX c #FEFFFD",
"sX c #FFFFFD",
"dX c #FFFDFE",
"fX c #FEFEFE",
"gX c #FEFEFF",
"hX c #FFFEFF",
"jX c #FEFFFF",
"kX c white",
/* pixels */
"o o o o o o { o o o o o o M o o M o o r kXkXkXkXkXkXkXkXkXkXkXkXkXkXkXkXkXkXo r o o o o M o M o r o o o o o o o o ",
"o o o o F o o o M M _ o o o o F M o r o kXkXkXkXkXkXkXkXkXkXkXkXkXkXkXkXkXkXo o o r F o o o o o o o o o o o o o o ",
"o o o o o o r M o o o o _ o o o o r F o kXkXkXkXkXkXkXkXkXkXkXkXkXkXkXkXkXkX{ r o o o o o r r M r o o o o o o o o ",
"o o o o o r o o o o _ _ o @.kXkXkXkXkXkXkXkXkXkXkXkXkXkXkXkXkXkXkXkXkXkXkXkXkXkXkXkXkXkXr M o o o o r M o o o o o ",
"o o o o o r o o M r o o o o kXkXkXkXkXkXkXkXkXkXkXkXkXkXkXkXkXkXkXkXkXkXkXkXkXkXkXkXkXkXo o o o F o o o o o o o o ",
"o o o o o r o r M o o @.o _ kXkXkXkXkXkXkXkX:XkXkXkXkX:X:X:X:XkXkXkXkXkXkXkXkXkXkXkXkXkXo o { o M r o o o o o o o ",
"o o o o o r o o o o _ kXkXkXkXkXkXkXkXkXkXkXkXkXkXkXkXkXkXkXkXkXkXkXkXkXkXkXkXkXkXkXkXkXkXkXkXF o o o o o o o o o ",
"o o o o o o o o M o o kXkXkXkXkXkXkXkXkXkXkXkXkXkXkXkXkXkXkXkXkXkXkXkXkXkXkXkXkXkXkXkXkXkXkXkXo o M o o o o o o o ",
"o o o o o o o o o o o kXkXkXkXkXkXkXkXkXkXkXkXkXkXkXkXkXkXkXkXkXkXkXkXkXkXkXkXkXkXkXkXkXkXkXkXr o o o o o o o o o ",
"o o o o o r o F o o o kXkXkXkXkXkXkXkXkXkXkXkXkXkXkXkXkXkXkXkXkXkXkXkXkXkXkXkXkXkXkXkXkXkXkXkXo o o o o o o o o o ",
"o o o o o r o o o o o kXkXkXkXkXkXkXkXkXkXkXkXkXkXkXkXkXkXkXkXkXkXkXkXkXkXkXkXkXkXkXkXkXkXkXkXo o o o r o o o o o ",
"o o o o o _ M o F o _ kXkXkXkXkXkXkXkXkXkXkXkXkXkXkXkXkXkXkXkXkXkXkXkXkXkXkXkXkXkXkXkXkXkXkXkXr o F o r o o o o o ",
"o o o o r o o r kXkXkXkXkXkXkXkXkXkXkXkXkXkXkXkXkXkXkXkXkXkXkXkXkXkXkXkXkXkXkXkXkXkXkXkXkXkXkXkXkXkX_ o o o o o o ",
"o o o o o o _ r kXkXkXkXkXkXkXkXkXkXkX:XkXkXkXkXkXkXkXkXkXkXkXkXkXkXkXkXkXkXkXkXkXkXkXkXkXkXkXkXkXkXo o o o o o o ",
"o o o o M o o o kXkXkXkXkXkXkXkXkXkXkXkXkXkXkXkXkXkXkXkXkXkXkXkXkXkXkXkXkXkXkXkXkXkXkXkXkXkXkXkXkXkXo M o o o o o ",
"o o o o o o o F kXkXkXkXkXkXkXkXkXkXkXkXkXkXkXkXkXkXkXkXkXkXkXkXkXkXkXkXkXkXkXkXkXkXkXkXkXkXkXkXkXkXo o o o o o o ",
"o o o o F o M o kXkXkXkXkXkXkXkXkXkXkXkXkXkXkXkXkXkXkXkXkXkXkXkXkXkXkXkXkXkXkXkXkXkXkXkXkXkXkXkXkXkXo o o M M M o ",
"o o o o o o r o kXkXkXkXkXkXkXkXkXkXkXkXkXkXkXkXkXkXkXkXkXkXkXkXkXkXkXkXkXkXkXkXkXkXkXkXkXkXkXkXkXkXr F o o o o o ",
"o o o o o r M { kXkXkXkXkXkXkXkXkXkXkXkXkXkXkXkXkXkXkXkXkXkXkXkXkXkXkXkXkXkXkXkXkXkXkXkXkXkXkXkXkXkXo o { M M r r ",
"o o o o _ o o o kXkXkXkX:XkXkXkX2X2X%XOXOXOXOXOXOX%XkXkXkXkXkX7X2XOXOXOXOXOXOX%X2XkXkXkXkXkXkXkXkXkXr o o o F o o ",
"o o o o o F o F kXkXkXkXkXkXkX2XOX).R.I.P.P.I.I.I.!.2XkXkXkXkX#X!.P.I.I.P.P.I.R.'.%XkXkXkXkXkXkXkXkXM o &.o r o o ",
"o o o o r kXkXkXkXkXkXkXkXkXkX2X).e.y.7.1.1.7.7.1.w. XkXkXkXkX|.w.1.1.1.1.1.1.y.D.'.2XkXkXkXkXkXkXkXkXkXkX@.r o F ",
"o o o o r kXkXkXkXkXkXkXkXkXkX%XR.p.l.b.b.b.b.m.z.3.).kXkXkXkX).>.v.v.b.b.b.b.k.p.!.%XkXkXkXkXkXkXkXkXkXkXr o o M ",
"o o o o o kXkXkXkXkXkXkXkXkXkXOXI.6.b.Z.Z.Z.Z.Z.V.s.).kXkXkXkX).s.Z.Z.Z.Z.Z.Z.v.:.P.OXkXkXkXkXkXkXkXkXkXkXo o M o ",
"o o o o o kXkXkXkXkXkXkXkXkXkXOXP.:.b.Z.Z.Z.Z.V.Z.s.).kXkXkXkX).s.Z.Z.Z.Z.Z.Z.m.1.P.OXkXkXkXkXkXkXkXkXkXkXo o o o ",
"o o o o o kXkXkXkXkXkXkXkXkXkXOXP.:.b.Z.Z.Z.Z.Z.Z.s.).kXkXkXkX).s.Z.Z.Z.Z.Z.Z.m.:.P.OXkXkXkXkXkXkXkXkXkXkXo o o o ",
"o o o o r kXkXkXkXkXkXkXkXkXkXOXP.:.b.Z.Z.Z.Z.Z.Z.s.).kXkXkXkX).s.Z.Z.Z.Z.Z.V.m.:.P.OXkXkXkXkX:XkXkXkXkXkXo r o o ",
"o o o o o kXkXkXkXkXkX:XkXkXkXOXP.:.b.Z.Z.Z.Z.Z.Z.s.).kXkXkXkX).s.Z.Z.Z.Z.Z.Z.m.:.U.OXkXkXkXkX:XkXkXkXkXkXo r o o ",
"o o o o o kXkXkXkXkXkXkXkXkXkXOXP.:.b.Z.Z.Z.Z.Z.Z.s.).kXkXkXkX).s.Z.Z.Z.Z.Z.S.b.6.U.%XkXkXkXkX:XkXkXkXkXkXo o o o ",
"o o o o o kXkXkXkXkXkXkXkXkXkX2X!.w.,.s.s.s.s.s.s.t.{.kXkXkXkX{.t.s.s.s.s.s.s.,.F.~.2XkXkXkXkX:XkXkXkXkXkXo o o o ",
"o o o o o kXkXkXkXkXkXkXkXkXkXkX#X|.).).).).).).).{.2XkXkXkXkX2X{.).).).).).).). X2XkXkXkXkXkX:XkXkXkXkXkXo o o o ",
"o o o o r kXkXkXkXkXkXkXkXkXkXkXkXkXkXkXkXkXkXkXkXkXkXkXkXkXkXkXkXkXkXkXkXkXkXkXkXkXkXkXkXkXkX:XkXkXkXkXkXo o o o ",
"o o M o r kXkXkXkXkXkXkXkXkXkXkXkXkXkXkXkXkXkXkXkXkXkXkXkXkXkXkXkXkXkXkXkXkXkXkXkXkXkXkXkXkXkXkXkXkXkXkXkXo o r r ",
"{ F kXkXkXkXkXkXkXkXkXkXkXkX%X%XOXOXOX2XkXkXkXkXkX9X2XOXOXOXOX2XkXkXkXkXkXkX2XOXOXOXOX2XkXkXkXkXkXkXkXkXkXkXkXkXo ",
"o o kXkXkXkXkXkXkXkXkXkXkX2X~.I.I.I.I.~.2XkXkXkXkX2X~.I.P.P.I.~.2XkXkXkXkX2X~.I.P.P.I.~.2XkXkXkXkXkXkXkXkXkXkXkXo ",
"r F kXkXkXkXkXkXkXkXkXkXkX Xw.7.7.7.7.w. XkXkXkXkX Xw.6.1.1.7.w. XkXkXkXkX Xw.7.1.1.7.w. XkXkXkXkXkXkXkXkXkXkXkXo ",
"o o kXkXkXkXkXkXkXkXkXkXkX).,.b.b.b.b.,.).kXkXkXkX).,.m.b.N.b.,.).kXkXkXkX'.3.b.b.b.b.,.).kXkXkXkXkXkXkXkXkXkXkXo ",
"M o kXkXkXkXkXkXkXkX2XOXOX!.j.b.b.b.b.g.!.OXOXOXOX!.g.b.b.b.b.g.!.OXOXOX%X!.g.b.b.b.b.g.!.OXOX2XkXkXkXkXkXkXkXkXo ",
"r o :XkXkXkXkXkXkX2X~.I.P.H.t.1.1.1.7.t.H.P.I.I.P.H.t.7.1.1.7.t.H.P.I.I.I.J.t.7.1.1.7.t.H.P.I.~.2XkXkXkXkXkXkXkXo ",
"_ o kXkXkXkXkXkXkX Xw.7.1.t.H.I.P.P.I.H.t.1.1.1.1.t.H.I.P.P.I.H.t.1.7.7.7.t.J.L.I.I.I.H.t.1.7.w. XkXkXkXkXkXkXkXo ",
"o r kXkXkXkXkXkXkX).,.b.b.g.!.OXOXOXOX!.g.b.b.b.b.g.!.OXOXOXOX!.g.b.b.b.b.g.R.%X%XOXOX!.g.b.b.,.).kXkXkXkXkXkXkXM ",
"o r kXkXkXkXkXkXkX).,.b.b.,.).kXkXkXkX).,.b.v.v.z.,.).kXkXkXkX`.3.m.m.m.m.,.'.kXkXkXkX).,.b.b.,.).kXkXkXkXkXkXkXr ",
"o o kXkXkXkXkXkXkX|.w.7.1.w. XkXkXkXkX|.w.1.1.1.1.w. XkXkXkXkX Xw.6.6.6.:.8. XkXkXkXkX Xw.7.7.w. XkXkXkXkXkXkXkXo ",
"o o kXkXkXkXkXkXkX2X~.I.P.!.2XkXkXkXkXOX!.P.P.P.P.!.2XkXkXkXkX2X~.L.L.H.P.!.2XkXkXkXkX2X~.I.I.~.2XkXkXkXkXkXkXkXo ",
"o r kXkXkXkXkXkXkXkX2XOXOX2XkXkXkXkXkXkX2XOXOXOXOX2XkXkXkXkXkXkX2XOXOXOXOX2XkXkXkXkXkXkX2XOXOX2XkXkXkXkXkXkXkXkXo ",
"o o kXkXkXkXkXkXkXkXkXkXkXkXkXkXkXkXkXkXkXkXkXkXkXkXkXkXkXkXkXkXkXkXkXkXkXkXkXkXkXkXkXkXkXkXkXkXkXkXkXkXkXkXkXkXo ",
"o o kXkXkXkXkXkXkXkXkXkXkXkXkXkXkXkXkXkXkXkXkXkXkXkXkXkXkXkXkXkXkXkXkXkXkXkXkXkXkXkXkXkXkXkXkXkXkXkXkX:XkXkXkXkXr ",
"o o kXkXkXkXkXkXkXkXkXkXkXkXkXkXkXkX0XkXkXkXkXkXkXkXkXkXkXkXkXkXkXkXkXkXkXkXkXkXkXkXkXkXkXkXkXkXkXkXkXkXkXkXkXkXr ",
"o o o o r kXkXkXkXkXkXkXkXkXkXkXkXkXkXkXkXkXkXkXkXkXkXkXkXkXkXkXkXkXkXkXkXkXkXkXkXkXkXkXkXkXkXkXkXkXkXkXkXo _ o o ",
"o o o o o kXkXkXkXkXkXkXkXkXkXkXkXkXkXkXkXkXkXkXkXkXkXkXkXkXkXkXkXkXkXkXkXkXkXkXkXkXkXkXkXkXkXkXkXkXkXkXkXo o o M ",
"o o o o M kXkXkXkXkXkXkXkXkXkXkXkXkXkXkXkXkXkXkXkXkXkXkXkXkXkXkXkXkXkXkXkXkXkXkXkXkXkXkXkXkXkXkXkXkXkXkXkX&.M r F ",
"o o o o o _ o o kXkXkXkXkXkXkXkXkXkXkXkXkXkXkXkXkXkXM o o o o r kXkXkXkXkXkXkXkXkXkXkXkXkXkXkXkXkXkXM o &.o o o o ",
"o o o o 8 o r o kXkXkXkXkXkXkXkXkXkXkXkXkXkXkXkXkXkXo o o F r M kXkXkXkXkXkXkXkXkXkXkXkXkXkXkXkXkXkXo o o r { o o ",
"o o o o +.o o M kXkXkXkXkXkXkXkXkXkXkXkXkXkXkXkXkXkX_ o r o o M kXkXkXkXkXkXkXkXkXkXkXkXkX[.kXkXkXkXr o o M r o r ",
"o o o o o o F o M M o o o r kXkXkXkXkXkXkXkXkX{ r r o M o F F o o o E kXkXkXkXkXkXkXkXkXo o r o r &.o o r o o o o ",
"o o o o M o o o o o o o o o kXkXkXkXkXkXkXkXkXo o o Y o o r o { o F o kXkXkXkXkXkXkXkXkXr r o o o o F o r o r r o ",
"o o o o o o o o o o o o 5 _ kXkXkXkX0X7XkXkXkXM o s E o 2 ; S o S o f kXkXkXkXkXkXkXkXkXo o o o o o o o o o o o o ",
"o o o o o o o o o o o o / ; =.t ; 2 s T o 5 %.5 5 5 5 { 5 r { 5 5 M 5 [ i x ; c i ; p o o o o o o o o o o o o o o ",
"o o o o o o o o o o o o a y L P L U o < m h ! ~ W h h 5 h h z h h O.h z I ( b ^ Q c n R o o o o o o o o o o o o o "
};
