/* XPM */
static char *d8e76c70ed124935c09440a00b928765414Y0EUUDwyHNQfJ[] = {
/* columns rows colors chars-per-pixel */
"57 59 168 2 ",
"   c #020202",
".  c #0B0203",
"X  c #040904",
"o  c #0A0A06",
"O  c #050409",
"+  c #0A050B",
"@  c #050B0B",
"#  c #0B0B0B",
"$  c #130001",
"%  c #1B0002",
"&  c #15050D",
"*  c #1B0109",
"=  c #130C0B",
"-  c #0E100F",
";  c #0B0712",
":  c #0E0B12",
">  c #110F12",
",  c #130D19",
"<  c #131413",
"1  c #16161A",
"2  c #240001",
"3  c #2C0001",
"4  c #2A010A",
"5  c #260808",
"6  c #340001",
"7  c #3C0001",
"8  c #33040D",
"9  c #39000A",
"0  c #390917",
"q  c #460000",
"w  c #450000",
"e  c #440001",
"r  c #4C0004",
"t  c #4C0003",
"y  c #45060F",
"u  c #540000",
"i  c #560000",
"p  c #550001",
"a  c #5D0000",
"s  c #450110",
"d  c #490C1B",
"f  c #620000",
"g  c #650000",
"h  c #6B0004",
"j  c #720000",
"k  c #3F127B",
"l  c #1C237E",
"z  c #DF2F39",
"x  c #CE363C",
"c  c #C63B3E",
"v  c #CD383E",
"b  c #CD383C",
"n  c #DE3136",
"m  c #DC3136",
"M  c #D7333A",
"N  c #D13739",
"B  c #D1363A",
"V  c #D2363A",
"C  c #D1343B",
"Z  c #D7333C",
"A  c #D3363D",
"S  c #D2363A",
"D  c #DB3239",
"F  c #DC3139",
"G  c #DA323A",
"H  c #D2383A",
"J  c #ED2A2E",
"K  c #F5272B",
"L  c #F4262A",
"P  c #F4252B",
"I  c #F5262C",
"U  c #F4272C",
"Y  c #F7262C",
"T  c #F6272D",
"R  c #F5262E",
"E  c #F5262C",
"W  c #F1282E",
"Q  c #F2282E",
"!  c #E32E33",
"~  c #E72D32",
"^  c #E52E33",
"/  c #E32E35",
"(  c #E52D35",
")  c #E62D36",
"_  c #E42E34",
"`  c #ED2A30",
"'  c #E92C32",
"]  c #EA2B32",
"[  c #E32E39",
"{  c #F12831",
"}  c #E03033",
"|  c #E03138",
" . c #BF3E43",
".. c #BF3C44",
"X. c #BE3E42",
"o. c #BF3B49",
"O. c #BC3E4C",
"+. c #B93E52",
"@. c #CD3743",
"#. c #C43B42",
"$. c #C63A43",
"%. c #C23D43",
"&. c #C33B47",
"*. c #C73B44",
"=. c #C03C47",
"-. c #C23C42",
";. c #C93944",
":. c #CE344E",
">. c #C23B49",
",. c #C43A49",
"<. c #C53A4A",
"1. c #C93849",
"2. c #D23541",
"3. c #D83241",
"4. c #CB335A",
"5. c #CA3166",
"6. c #C9316D",
"7. c #9D4D4E",
"8. c #9E4E51",
"9. c #AB464C",
"0. c #A8484A",
"q. c #B54246",
"w. c #B84147",
"e. c #B84146",
"r. c #B64149",
"t. c #B84049",
"y. c #B84049",
"u. c #AD4552",
"i. c #AB4653",
"p. c #A34953",
"a. c #A54759",
"s. c #B14252",
"d. c #171F9B",
"f. c #1D2280",
"g. c #1A2189",
"h. c #161FA0",
"j. c #151EA9",
"k. c #141DB0",
"l. c #380EA2",
"z. c #350CB4",
"x. c #0F1AC1",
"c. c #0F1ACC",
"v. c #101BC2",
"b. c #101AC9",
"n. c #0B17DB",
"m. c #0C18DC",
"M. c #0B18E3",
"N. c #0716F5",
"B. c #0816F5",
"V. c #FFD9DD",
"C. c #DDDDE7",
"Z. c #DBDDEA",
"A. c #CCD4FF",
"S. c #D0D6FF",
"D. c #D6D9FF",
"F. c #DADCFA",
"G. c #FFDEE1",
"H. c #FFE3E5",
"J. c #FFE7EA",
"K. c #FFEBED",
"L. c #FFF0EF",
"P. c #FFEFF1",
"I. c #FFECFF",
"U. c #FFF3F3",
"Y. c #F1F7FF",
"T. c #FFF7F8",
"R. c #F5F9FF",
"E. c #FEFDFE",
/* pixels */
"            o   #       = . . O .         . = . o X . + X X X     o X X + O O + + O     X O . # X X . . O         ",
"              # O   O . . .       . O . % 3 3 3 6 3 3 9 2 3 3 3 3 2 3 3 6 2 .   O #   O O     O   X + O . O       ",
"                      X X <         O 4 t.V S V V H B V V V V V V V V V V e.2   X X O O     O   O     O           ",
"              O O O         $ $ % % * 7 Z I I I I I I I I I I I I I I I I M 7 % % $ $ $ . + X   + + O O           ",
"                        # $ 3 7 e e 7 f | I I I I I I I I I I I I I I I I n p 7 7 7 7 y $ 1               +       ",
"            : O         O % 9.-.$.$.&.2.^ I I I I I I I I I I I I I I I I ^ b X.-.X.>.u.4 O O 1                   ",
"                  < + X @ 2 $.^ ^ ^ ^ ' W I I I I I I I I I I I I I I I I W ^ ! ! / ^ &.9 O +   X X O O           ",
"            #       . 2 2 q D I K K K K I I I I I I I I I I I I I I I I I I I I K K K n p 3 0 * .     .   O       ",
"            X   + * 7 u.$.D ` I I I I I I I I I I I I I I I I I I I I I I I I I I I I ` F ;.s.s & O . .   @       ",
"            X   O % r ,.~ I I K I I I I I I I I I I I I I I I I I I I I I I I I I I I I I ~ ,.q $ O . .   #       ",
"            # O   % 7 o.~ I I I I I I I I I I I I I I I I I I I I I I I I I I I I I I I I / %.7 * X   + +         ",
"              O   2 7 o./ I I I I I I I I I I I I I I I I I I I I I I I I I I I I I I I I / %.6 %   + + @ O       ",
"                . % 7 >.[ I K K I I I I I I I I I I I I I I I I I I I I I I I I I I I I I / &.7 * O O     #       ",
"            > . 3 7 i @.~ I K K I I I I I I I I I I I I I I I I I I I I I I I I I I I K I ' 2.a e 3 . - # O       ",
"              % r.M z ~ { I I I I I I I I I K K I I I I I I I I I I I I I I I I I I K K I W ' / D t.2   + +       ",
"            @ 2 B I I I I I I I I I I I I I K K I I I I I I I I I I I I I I I I I I K K I I I I I B 3 < + .       ",
"            : 2 B I I I I I I I K K I I I I I I I I I I I I I I I I K K I I K K I I I I I I I I I B 2   O +       ",
"            O 3 B I I I I I I I K K I I I I I I I I I I I I I I K I K K I I K K I I I I I I I I I B 6 X   #       ",
"X   O O # X + 3 V I I I I I I I I I I I I I I I K I I I I I I I I I I I K I K K I I I I I I I I I B 6 + X         ",
"    . . O O O 6 B I I I I ` m V V V V V V S n ^ W I I I I I I I I W ^ n S V V V V b V m ` I I I K B 6 O #         ",
"  O O       . 9 B I I I I m H.L.P.P.P.P.P.K.G.b ' I I I I I I I I ' b G.K.U.P.P.U.U.P.H.m I I I I V 6 .           ",
"O     o . $ * q Z W ` J ^ -.U.E.E.E.E.E.E.T.K.q.S ' W I I I I W ^ S q.K.T.E.E.E.E.E.E.U.$.^ ' J W S 7 $ $ $       ",
".     . % d 7 h [ J / S $.0.T.E.E.E.E.E.E.T.P.7.q.b ^ I I I I ^ b q.8.U.T.E.E.E.E.E.E.T.0.c S } ` / i e 6 $ .     ",
"O + X . 6 a.+.2.' ' S V.H.K.T.E.E.E.E.E.E.E.T.U.K.G.n I K I I n G.K.U.T.E.E.E.E.E.E.E.T.K.H.V.S ' ' 2.t.p.3 .     ",
"O + X $ e O.3.' { ^ $.H.U.T.E.E.E.E.E.E.E.E.E.T.T.K.S I K K I S K.T.T.T.E.E.E.E.E.E.E.E.T.U.H.c ^ W ' S q.6 $     ",
"O   @ $ t &.~ I I ! -.J.T.E.E.E.E.E.E.E.R.R.E.E.E.P.V I K K I V P.E.E.E.E.E.R.R.E.E.E.E.E.T.J.-.! I I ! X.6 $     ",
"    O % 7 -.~ I I ! -.J.T.E.E.E.E.Z.Z.D.h.k.g.R.E.P.V I I I I V P.E.E.C.Z.D.h.k.g.R.E.E.E.T.J.-.! I I ! X.6 $     ",
"    + % 7 -.! I I ! -.J.T.E.E.E.E.F.D.A.c.m.j.Y.E.P.V I I I I V P.E.E.F.D.A.c.n.j.Y.E.E.E.T.J.-.! I I ! X.6 $     ",
"    + % 7 -.! I I ! -.J.T.E.E.E.R.D.S.A.n.m.j.Y.E.P.V I I I I V P.E.R.D.S.A.n.m.j.Y.E.E.E.T.J.X.! I I ! X.6 $     ",
"    + % 7 -.! I I ! -.J.T.E.E.E.R.l h.x.M.m.j.Y.E.P.V I I I I V P.E.R.f.h.v.M.m.j.Y.E.E.E.T.J.X.! I I ! X.6 $     ",
"X   + % 6 -.~ I I ! -.J.T.E.E.E.Y.d.c.M.B.m.j.Y.E.P.V I I I I V P.E.R.d.b.M.B.m.j.Y.E.E.E.T.J.X.! I K ! X.6 $     ",
"X   O $ 7 -.! I I ! -.J.T.E.E.E.Y.j.m.B.B.m.j.Y.E.P.V I I I I V P.E.Y.j.m.B.B.m.j.Y.E.E.E.T.H.%.! I K ! X.7 $     ",
"X   O $ 7 -.! I I ! -.J.T.E.E.E.Y.j.m.B.B.m.j.Y.E.P.V I I I I V P.E.Y.j.m.B.N.m.j.Y.E.E.E.T.J.-.! I P ! X.7 $     ",
"    $ 2 t c ^ I I ^ c H.U.T.E.E.Y.j.m.B.B.m.j.Y.E.P.V I I K I V P.E.Y.j.n.B.N.m.j.Y.E.E.T.U.H.c ^ I P ^ $.q 2 .   ",
"  * 9 q j Z ` I I ' S V.H.K.T.R.Y.j.m.B.B.m.j.Y.E.P.V K I I I V P.E.Y.j.m.B.B.m.j.Y.E.T.K.H.V.S ' I I ' 3.j q 9 $ ",
"  % i.1.3.[ { I I J / S $.0.T.E.Y.j.m.B.B.m.j.Y.E.P.V I I I I V P.E.Y.j.m.B.B.m.j.Y.E.T.0.c S } ` I I { [ 3.1.i.% ",
"@ % -.~ ` { I I I W ` ' ^ c U.E.Y.j.m.B.B.m.j.Y.E.P.V I I I I V P.E.Y.j.m.B.B.m.j.Y.E.U.$.^ ' J W I I I { ` ~ $.3 ",
"@ 2 H K I I I I I I I I I m H.I.I.k l.z.z.l.k I.I.H.D I I I I m H.I.I.k l.z.z.l.k I.I.H.m I I K I K I I I I I B 6 ",
"  6 V T T I I I I I I I I ` m x :.4.5.6.6.5.4.:.2.m J I I I I ` m 2.:.4.5.6.6.5.4.:.2.m ` I I I I I I I I I I V 3 ",
"X 2 V I I I I I K I I I I I K K I I I I I I I I I I I I I I I I I I I I I I K K I I I I K I I I I I I I I I I V 6 ",
"o 2 V I I I I I I I I I I I I I K K I I I I I I I I I I I I I I I I I I I I I I K K I I I I I I I I I I I I I V 3 ",
"  2 V I I I I I I I I I I I I I K K I I I I I I I I I I I I I I I I I I I I I I K K I I I I I I I I I I I I I V 3 ",
"X 2 V I I I I K I I I I I I I I I I I I I I I I I I I I I I I I I I I I I I I I I I I I I I I I I I I I I I I V 2 ",
"X 2 V I I I I I I I I I I I I I I I I I I I I I I I I I I I I I I I I I I I I I I I I I I I I I I I I I I I I V 2 ",
"  2 V I I I I I I I I I I I I I I I I I I I I I I I I I I I I I I I I I I I I I I I I I I I I I I I I I I I I B 2 ",
"  2 V I K I I K I I I I I I I I I I I I I I I I I I I I I I I I I I I I I I I I I I I I I I I I I I I I I I I B 2 ",
"  2 V I I I K K I I I I I I I I I I I I I I I I I I I I I I I I I I I I I I I I I I I I I I I I I I I I I I I B 2 ",
"  2 V I I K K K I I I I I I I I I I I I I I I I I I I I I I I I I I I I I I I I I I I I I I I I I I I I I I I B 3 ",
"  2 V I I I I I I I K K I I I I I I I I I I I I I I I I I I I I I I I I I I I I I I I I I I I I I I K I I I I B 2 ",
"  % e.M / ' W I I I K K I I I I I I I I I I I I I I I I I I I I I I I I I I I I I I I I I I I I I I I W ' n S q.2 ",
". . % 6 i 2.' I I I I I I I I I I I I I K K I I I K I I I I I I I I I I I I I I K K I I I I I I I I I ' x p 6 % . ",
". = X $ e O.Z ' W I I I I I I I I I I I K K I I I W ' ~ ~ ~ ~ ' W I I I I I I I K K I I I I I I I W ' Z e.6 $     ",
"O =   . 3 a.O.2.' I I I I I I I I I I I I I I I K ' 2.&.,.,.,.2.' I I I I I I I I I I I I I I I I ' 2.O.p.6 .     ",
"      . % d 7 g / I I I I I I I I I I I I I I I K / g q q r q a [ I I I I I I I I I I I I I I I K / g 7 6 % .     ",
"      # . $ % q D I I I I I I I I I I I I I I I I S 7 5 $ $ % 7 D I I I I I I I I I I I I I K K I S 7 $ $ $       ",
"  #       . & 8 O.B B B B D ` I I I I I I W ' / S q.2 + X #   2 t.M / ' W I I I I I I ` F A V V V e.2 # X o       ",
"O O       O o . 4 3 3 3 3 q D K I I I I I ' 2.h 7 % . , + O # . 8 7 a 2.' I I I I I K n p 6 3 3 3 3 . # #         ",
"O     X #     # O + O   + 2 B I I I I I I ~ ,.e % # : ; + +   O O * 7 ,.~ I I I I I K A 6 O # + : O O   = X       ",
"                          2 V I I I I I I ~ ;.p % O . O       1 O * r ,.) I I I I I K B 3 ;                       "
};
