/* XPM */
static char *pacman42so_long91736854389[] = {
/* columns rows colors chars-per-pixel */
"57 59 129 2 ",
"   c #020202",
".  c #0B0203",
"X  c #050905",
"o  c #0A0906",
"O  c #040409",
"+  c #0B040B",
"@  c #060A0A",
"#  c #0B0A0B",
"$  c #130001",
"%  c #1B0001",
"&  c #160807",
"*  c #12050C",
"=  c #140C0C",
"-  c #0B100A",
";  c #020011",
":  c #0C0012",
">  c #0E0E10",
",  c #120111",
"<  c #120D14",
"1  c #141413",
"2  c #1A1316",
"3  c #141318",
"4  c #171918",
"5  c #250000",
"6  c #2B0001",
"7  c #2C0109",
"8  c #210F0D",
"9  c #290D0A",
"0  c #340001",
"q  c #3B0000",
"w  c #360009",
"e  c #3B010D",
"r  c #240610",
"t  c #2D0213",
"y  c #240910",
"u  c #3D0012",
"i  c #320816",
"p  c #420000",
"a  c #4B0002",
"s  c #530000",
"d  c #5B0001",
"f  c #670000",
"g  c #6C0000",
"h  c #62000A",
"j  c #3E127B",
"k  c #40117B",
"l  c #CE363D",
"z  c #C53B3E",
"x  c #CD383D",
"c  c #DC3136",
"v  c #D2363B",
"b  c #DB323A",
"n  c #ED2A2E",
"m  c #F5262C",
"M  c #F8272D",
"N  c #F3282D",
"B  c #E42E34",
"V  c #EB2B32",
"C  c #E32E39",
"Z  c #F02930",
"A  c #E03033",
"S  c #E13038",
"D  c #BE3E42",
"F  c #BE3D49",
"G  c #CC3743",
"H  c #C33C43",
"J  c #C93944",
"K  c #CD344C",
"L  c #C33B49",
"P  c #CC3848",
"I  c #D23542",
"U  c #D83240",
"Y  c #CB335A",
"T  c #CA3167",
"R  c #C9316D",
"E  c #9D4D4E",
"W  c #9E4E51",
"Q  c #AC454D",
"!  c #A8484A",
"~  c #B54245",
"^  c #B84146",
"/  c #B6414C",
"(  c #AC4551",
")  c #A24955",
"_  c #161B9B",
"`  c #1D2587",
"'  c #192088",
"]  c #1D2995",
"[  c #16209C",
"{  c #2E3786",
"}  c #2C338D",
"|  c #141FA4",
" . c #151EA9",
".. c #131DB0",
"X. c #380EA2",
"o. c #350CB4",
"O. c #1E2CAC",
"+. c #1D26B3",
"@. c #212BA4",
"#. c #2431B3",
"$. c #2531B9",
"%. c #2834BA",
"&. c #0E1ACE",
"*. c #101CC3",
"=. c #101BC9",
"-. c #0E19D7",
";. c #0C18DB",
":. c #0B18E3",
">. c #0716F6",
",. c #0816F5",
"<. c #FFDADD",
"1. c #DBDDEA",
"2. c #CBD3FF",
"3. c #D8DCF7",
"4. c #D0D6FF",
"5. c #D5D9FF",
"6. c #DADBFA",
"7. c #FFDEE1",
"8. c #FFE3E5",
"9. c #FFE7EA",
"0. c #FFEAEC",
"q. c #FFEFF1",
"w. c #FFECFF",
"e. c #FFF2F3",
"r. c #FFF8F6",
"t. c #F2F7FF",
"y. c #FFF7F9",
"u. c #F2F9FF",
"i. c #FDFDFE",
/* pixels */
"              @ o . O O O o o     X X X X       O   O   O     @ O O .   X   O     X . o . + O O . . o o X X       ",
"            O @ . o     o   # O X - X . 6 6 6 5 5 5 6 5 5 5 5 6 6 6 6 0 6 % . # o .   o + = O X = . .     o O     ",
"              + X X 4 O : O o         5 ^ v l v v v v v v v l v v v v v v ~ 5 +   . . o   . O                     ",
"              + o X X O + + $ $ $ % % q b m m m N N N M m m m m m m m m m b q % % % $ .                           ",
"                .     @ # $ q p q p a f C N m m m m m m m M M m m m m m m C g p p q q 6 * + 1                     ",
"              o . +   o o 7 ( L L L K I V N m m m m m m m m M M m m m m m V I J L ^ F ( t O O                     ",
"                O O # > + w J C B B B V Z m m m m m m m m m m m m m m m m N C C S B B J u , 2                     ",
"              X 3 + . % w h S m m m M m m m m N m m m m m m m m m m m m m N m m N M N S d 6 5 .                   ",
"              @ O $ 0 Q J c n m m m m m N N m m m m m m m m m m m m m m m m m m m m m n c J ! 6 .                 ",
"                X $ a L B m m m m m m m m N m m m m m m m m m m m m m m m m m m m m m m M A H q $                 ",
"              O o % q F B m m m m m m m m m m m m m m m m m m m m m m m m m m m m m m M m B D q . +       O       ",
"                  % p F C m m m m m m m m m m m m m m m m m m m m m m m m m m m m m M m m B D p $ O   O     X     ",
"              o . 5 q L C m m m m m m m m m m m m m m m m m m m m m m m m m m m m m m m m A H q % O o   #   O     ",
"              . w p d G B m m m m m m m m m m m m m m m m m m m m m m m m m m m m m m m M V l d q 7 . O O         ",
"              7 ^ b S B N m m m m m m m m m m m m m m m m m m m m m m m m m m m m m m m m N n c b ^ 7 +   X       ",
"            O 6 v m N m m m m m m m m m m m m m m m m m m m m m m m m m m m m m m m m m M m m m m v 0 +   # X     ",
"            O 5 v m m m m m m m m m m m m m m m m m m m m m m m m m m m m m M m m m m m N m m m m v 0 *           ",
"              6 v m m m m m m m m m m m m m m m m m m m m m N m m m m m m m m M m m m m m m m m m v 0 O     .     ",
"  O # O   @ O % x m m m m m m m m m m m N m m m m m m m m m m m m m m m m m M m m m m m m m m m m v 0 :   1 +   O ",
"  O O       @ 6 v m m m m n c v v v v v v b A V N N m m m m m m m N V c v v v v v v v c n m m m m I 6   X X + O   ",
"O O           5 l m m m m c 8.e.0.0.e.q.q.0.<.x n m m m m m m m m V x 7.0.e.e.q.0.q.q.8.c m N N m v w O X   O o   ",
"      1 = $ % 0 b N n n B H e.i.i.r.i.i.i.r.0.~ v B N m m M m N B v ~ 0.y.i.i.i.i.i.i.e.z B n N N v 0 . . .   O   ",
"O     . $ 0 a g S n c v J ! r.i.i.i.i.i.i.r.e.E ~ l B m m m m B x ~ W e.r.i.i.i.i.i.i.e.! z v A n S d 0 0 % *     ",
"      & e ) F I V n v <.8.q.r.i.i.i.i.i.i.i.r.e.0.<.A m m m m B 7.0.q.r.i.i.i.i.i.i.i.i.0.8.<.v V B I F ) 6 .   O ",
"=     . 0 F v V N B z 8.e.r.i.i.i.i.i.i.i.i.i.r.r.0.v m m m m v 0.r.r.i.i.i.i.i.i.i.i.i.r.e.7.z B m B v ^ 0 $ X O ",
"  X > % p F C m m B D 8.y.i.i.i.i.i.i.i.u.i.u.i.i.e.v m m m m v e.i.i.i.i.i.u.t.i.i.i.i.i.r.8.D B M m B F q $ X o ",
"    o $ q F B m m B D 9.y.i.i.i.i.1.1.5._ +.' t.i.q.l m m m m v q.i.i.1.1.5.O. .' t.i.i.i.r.9.D B m m B F 0 $   O ",
"  O + % q D B m m B D 9.y.i.i.i.i.3.6.4.=.-.| t.i.q.l m m m m v e.i.i.3.6.2.&.;.+.t.i.i.r.e.9.D B m m B F q .   O ",
"O O o % q H A m m B z 9.r.i.i.i.i.5.4.2.;.;.O.t.i.q.v m m N m v q.i.i.4.2.2.;.;. .t.u.i.i.y.8.F B m m B F q $   . ",
"O O + % q H A m m B D 9.i.i.i.i.u.{ [ *.:.;.| t.i.0.v m m m m v q.i.t.} | ..:.;. .t.i.i.i.y.8.D B m m B F q .   O ",
"O O o % q z B m m B D 9.y.i.i.i.u.] *.:.,.;.| t.u.e.v m m m m l q.i.t.O.*.:.,.-. .t.i.i.i.y.9.D A m m B L q $   O ",
"  O O % 0 ^ B m m B D 0.y.i.i.i.u.O.;.>.>.;. .t.i.q.v m m m m v q.i.t. .;.>.,.;. .t.i.i.i.y.9.z B m m C F 0 $   O ",
"O O + % q D B m m A z 9.r.i.i.i.t.#.;.>.>.;. .t.i.q.l m m m m v 0.u.t.#.;.>.>.;. .t.i.i.i.y.9.D B m m A F q $   O ",
"  O $ 5 a J B m m B z 7.e.r.i.i.t.O.;.>.>.;. .t.i.q.v m m N m v q.i.t.O.;.>.>.:. .t.i.i.r.e.8.z B m m B J p 5 $ . ",
"X & 6 s g v V m m n v <.8.0.u.i.t.$.-.>.>.;.| t.i.e.v m m m m v q.i.t.| ;.>.,.;. .t.i.y.0.8.<.v V m m n v g s 0 . ",
"X $ ( J b B Z m m n A v H ! e.i.t.| ;.>.>.;. .t.i.0.l m m m m v q.t.t. .;.,.,.;. .t.i.e.! z v C n m m n B U P ( 9 ",
". 6 H B V N N m m m V n B z e.i.t. .;.>.,.;. .t.i.q.l m m m m v q.u.t. .;.,.,.;. .t.i.e.z B V n N m m m N n B D 5 ",
"+ 6 v m m m m m m m m m m c 8.w.w.j X.o.o.X.j w.w.8.c N m m m c 8.w.w.k X.o.o.X.j w.w.8.c m m m m m N m m m m v 5 ",
"X 6 v m m m m m m m m m m V c x K Y T R R T K K J c n m m m m n c G K Y T R R T Y K G c n m m m m m m m N m m v 5 ",
"X 5 v m m m N m m m m m m m N N m m m m m m m m m m m m m m m m m m m N M m m m m m m m m m m m m m m m m m m v 5 ",
"X 5 v m m m m m m m m m m m m m m m m m m m m m m m m m m m m m m m m m m m m N m m m m m m m m m m m m m m m v 5 ",
"X 5 v m m m m m m m m m m m m m m m m m m m m m m m m m m m M m m m m m m m m N m m m m m m m m m m m m m m m v 5 ",
"  6 l m m m m m m m m m m m m m m m m m m m m m m m m m m m m m m m m m m m m m m m m N m m m m m m m m m m m v 5 ",
"  5 l m m m m m m m m m m m m m m m m m m m m m m m m m m m m m m m m m m m m m m m m m m m m m m m m m m m m v 5 ",
"  5 v m m m m m m m m m N m m m m m m m m m m m m m m m m m m m m m m m m m m m m m m m m N m m m m m m m m m l 5 ",
"  5 v N m m m m m m m m m m m m m m m m m m m m m m m m m m m m m m m m m m m m m m m m m m m m m m m M m m m v 5 ",
"  5 v N m m m m m m m m m m m m M M m m m m m m m m m m m m m N m m m m m m m m m m m m m m m m m m m m m m m v 5 ",
"  5 v m m m m m m m m m m m m m m m m m m m m m m m m m m m N m m m m m m m m m m m m m m m m m m m m m m m m v 6 ",
"  5 v m m m m m m m m m m m m m m m M m m M m m m m m N m m m m m m m m m m m m m m m m m m m m m m m m m m m v 5 ",
"  % ^ v B B N m m m m m m m m m m m N m m m m m m m m m m m m m m m m m m m m m m m m m m m m m m m m Z C C v D 5 ",
"  . 5 0 d v n N m m m m m m m m m m m m m m m m m N m m m m m N m m m m m m m m m m M M m m m m m m m V l a 0 5 8 ",
"      $ p L B m m m m m m m m m Z V V V m m m m N m m m m m m N m m m m m Z V B V Z m M m m m M m m m B L q $     ",
"      $ p L B m M m m m m m m Z C U P G C m m m m m m m m m m m m m m N m V I K b C Z m m m m m m m m B F p $ X   ",
"  X X $ p L B m M M m m m m m V I f d d C m m M m m m m m m m m N m m m m C d a g v V M m m m m m m m B L q $   . ",
"      $ a L B M m m m m m m m B P s 6 q b m m m N m m m m m m m M m m m m v 0 0 a J B m m m N m m m m B L p % X   ",
"X     $ 0 Q J c V m m m M V b J ( 0 r 7 F v C V N m m m m m m m M N V C v ^ 5 $ 6 Q J b V m m m m n c L ( q $ .   ",
"  # @ . . 7 w s S m m m m b a 5 % + + . % a d x V m m m m m m m m V I d 0 5 . 2 $ 5 6 s S m m m m c s 7 i $ . .   ",
"O     X O O + w I N m m m v 6 O + @ O     $ q F B m m m m m m m m B L p y       o O , 0 v m m m m v 6 : + .     O ",
"            ; 5 I m m m m I 0 :   X . . X $ q z B m m m m m m m m B J a %   + O O < : u I m N N M v e + O 2       "
};
