/* XPM */
static char *_d5c2c59e9fc43fec4ac9110f5259c26Vyv0O0fRX6rjWrXZ[] = {
/* columns rows colors chars-per-pixel */
"57 59 137 2 ",
"   c #010102",
".  c #0B0501",
"X  c #060903",
"o  c #0C0901",
"O  c #03030A",
"+  c #09040B",
"@  c #050909",
"#  c #0A0A0B",
"$  c #110600",
"%  c #120B00",
"&  c #1A0E00",
"*  c #120C0B",
"=  c #06160C",
"-  c #0C130D",
";  c #151200",
":  c #1B1300",
">  c #1E1A00",
",  c #040411",
"<  c #080510",
"1  c #070915",
"2  c #0B0B12",
"3  c #090619",
"4  c #0E0E1C",
"5  c #100F14",
"6  c #140C1B",
"7  c #0D1215",
"8  c #121314",
"9  c #141913",
"0  c #191911",
"q  c #12111A",
"w  c #211500",
"e  c #241B00",
"r  c #2A1C00",
"t  c #252203",
"y  c #2A2507",
"u  c #14152A",
"i  c #FCEF14",
"p  c #F6EB1F",
"a  c #FBEE1B",
"s  c #FEF11E",
"d  c #FBEE25",
"f  c #FCEF2A",
"g  c #FDF025",
"h  c #FCF125",
"j  c #FCF126",
"k  c #FDF025",
"l  c #FAF128",
"z  c #FAF12A",
"x  c #FCF028",
"c  c #FCF02A",
"v  c #FDF12B",
"b  c #FAF02F",
"n  c #FCF02C",
"m  c #FDF12D",
"M  c #FCF02A",
"N  c #FAEF31",
"B  c #FCEE33",
"V  c #FAEF35",
"C  c #FAEE36",
"Z  c #FAEE35",
"A  c #FAEE38",
"S  c #FBEF39",
"D  c #F9EC3B",
"F  c #F8ED3B",
"G  c #FAED3C",
"H  c #F9EE3C",
"J  c #F9ED3F",
"K  c #F9EE3E",
"L  c #F9EE3D",
"P  c #FCF032",
"I  c #F7EB47",
"U  c #F7ED46",
"Y  c #F9ED41",
"T  c #FAEC41",
"R  c #F8EE41",
"E  c #F8ED43",
"W  c #F9ED43",
"Q  c #F9EC46",
"!  c #F8ED46",
"~  c #F9ED42",
"^  c #F6EC4F",
"/  c #F9EC48",
"(  c #F8EB4F",
")  c #F8EC4C",
"_  c #F8EB4D",
"`  c #F6EB51",
"'  c #F5EB55",
"]  c #F5EB56",
"[  c #F6EA56",
"{  c #F5EB55",
"}  c #F8EB51",
"|  c #F8EA53",
" . c #F9EC50",
".. c #F9EB54",
"X. c #F8EA55",
"o. c #F6E95D",
"O. c #F5EA5D",
"+. c #F5EA59",
"@. c #FAE85E",
"#. c #F8E95B",
"$. c #F3EA61",
"%. c #F3E963",
"&. c #F4E862",
"*. c #F5E963",
"=. c #F3E964",
"-. c #F4E76C",
";. c #F3E868",
":. c #F2E968",
">. c #F2E86C",
",. c #F3E86C",
"<. c #F1E86F",
"1. c #F2E86C",
"2. c #EFE876",
"3. c #EFE77A",
"4. c #F2E771",
"5. c #F3E771",
"6. c #F7E670",
"7. c #F2E772",
"8. c #F1E871",
"9. c #F3E970",
"0. c #F1E67A",
"q. c #F2E57C",
"w. c #F1E67D",
"e. c #F1E57F",
"r. c #F2E57C",
"t. c #F0E87B",
"y. c #EFE583",
"u. c #EFE681",
"i. c #ECE58A",
"p. c #ECE58B",
"a. c #EEE58A",
"s. c #EFE68B",
"d. c #EDE68A",
"f. c #ECE394",
"g. c #ECE494",
"h. c #EAE39D",
"j. c #ECE29B",
/* pixels */
"            O O     8 # O , O O @ # . > ' c c c z z c c c c c c c J ;.e o O @ O # X < O u ,                       ",
"              O 8         @ o . ; X . % ` c c c z z c c c c c c c J %.% . . o o       O 4 O @                     ",
"                #     8     . o . % & r Q n c f c c c c c c c c c V | : w : % % o .   8 O   9                     ",
"              + + 2   X   t s.,.8.4.6.@.A n c c c c c c c c c c c N T ..;.4.4.q.g.: . X                           ",
"              #     2   6 $ ,.T R T T J f c c c c c c c c c c c c n N V J T T ' q.% % O q O                       ",
"                2 8 o o $ & ( c z c c c c c c c c c c c j j j h c c c c c c f A O.& % .   O                       ",
"              O O . . s.,. .V c c c c c c f z z c c f j s s k j c c c c c c f N J / | r.;         O               ",
"    @     #   X o % % &.J c c c c c c c c f z z c c f j a a a j c c c c c c c c n c f ` % .   .   O 2 X           ",
"O O O     O O o % % : ..A f c c c c c c c c c c c c c c j j j c c c c c c c c c c c c Q w % . o #   O   X @       ",
"O O         O o s.%.| T B c c c c c c c c c c c c c c c c c c c c c c c c c c c c c c J O.q.h.. .       - X       ",
"      # # O O % ;.J A N f c c c c c c c c c c c c c c c c c c c c c c c c c c c c c c b J ' u.%     , O O   X     ",
"O #   X . o . & ) c z z f c c c c c c c c c c c c c c c c c c c c c c c c c c c c c c c z J &.& % ;   O O O 5     ",
"1 O     : s.;.) V c c c c c c c c c c c c c c c c c n n c c c c c c c c c c c c c c c c c b J I ` 2.>   X   , O   ",
", O 8 . % ,.J c c c c c c c c c c c c c c c c c c c n n c c c c c c c c c c c c c c c c c c c c c ' .     8 O     ",
"7   X . % -.J c c c c c c c c c c c c c n n f f c c c c c c c c c c c c c c c c c c c c f f c c c ' $ + O O O     ",
"  O   . % -.J c c c c c c c c c c c c c n n f f c c c c c c c c c c c c c c c c c c c c f c c c c +.. O   @       ",
"O q O . % -.J c c c c c c c n n c c c c c c c c c c c c c c c c f f c c c c c c c c c c c c f c f +.$ O O 2       ",
"O   . % e #.A c c c c c c c n n c c c c c c c c c c c c c c c c f f c c c c c c c c c c c f z c c ( & . ;         ",
". w t.` Q A P c n n c c c c c c c c c c c c c c c c c c c c c c c c c c c c c c c c f c n n c c c V ( ;.s.%       ",
". % ' c c c c c n n c c c c c c c c c c c c c c c c c c c c c c c c c c c c c c c c j j c c c c c c c J ;.% .     ",
"+ $ +.c c c c c c c c c c c c c c c c c c c c c c c c c c c c c c c n n c c c c c j s i j c c c c c c J ,.%       ",
"+ e +.c c c c c c c c c c c c c c c c c c c c c c c c c c c c c c c n n c c c c j s i i j c c c c c c J ,.%       ",
"+ . ' c f f c c c c c c c c c c c c c c c c c c c c c c c c c c f f c c c c f j a a a s j c c c z z c T ,.% %     ",
"  . ' c f f c c c c c c c c c c c c c c c c c c c c c c c c c c f f c c c c f j s s k j c c c c z z c T ,.%       ",
"+ . ' j c f c c c c c c c c n n c c c c c c c c c c c c c c c c c c c c c c c c j j j c c c c c c c c T -.%       ",
"+ . ' j c c c c c c c c c c n n c c c c c c c c c c c c c c c c c c c c c c c c c c c c c c c c c c c T -.% .     ",
"+ % ' f f c c c c c z z c c c c c c c c c c c c c c c c c c c c c c c c c c c c c c c c c c c c c c f T -.% .     ",
"  $ ' c c c c c c c z z c c c c c c c c c c c c c c c c c c c c c c c c c c c c c c c c c c c c c c f T -.%       ",
"+ $ ' f c c c c z z n n c c c c c c c c c c c c c c c c c c c c c c n n f f f f c c c c c c c c c c z T -.% .     ",
"+ $ +.c c c c f z z n n c c c c c c c c c c c c c c c c c c c c c c n n f f f f c c c c c c c c c z z T -.% .     ",
"+ . +.c c c c c c c c c c c c c c c c c c c c c c c c c c c c c c c z z c c c c c c n n c c c c j j d T ,.% .     ",
"  % ;.J V P n c c c c c c c c c c c c c c c c c c c c c c c c c c c c c c c c c c c n n c c c c p z A ' 3.o .     ",
"O % s.%.` J N c c c c c c c c c c c c c c c c c c c c c c c c c n n c c c c c c c c n n c c c c z A O.r.g.%       ",
"  o . % w ` V c c c c c c c c c c c c c c c c c c c c c c c c c n n c c c c c c c c n c c c c c z U & % :   o     ",
"  0 X o % %.J c c c f f c c c c c c c c c c c c c c c c c c c c c c c c c c c c c c c c c c c c c ^ % o     . . @ ",
"  X   . % ,.T c c c f f c c c c c c c c c c c c c c c c c c c c c c z z c c c c c c c c c c c c c ] . O O O   * X ",
"X   < . o ,.T c c c c c c c c c c c c c c c c c c c c c c c c c c c c c z z c c c c c c c c z z c +.% O , O   * . ",
"X O 2   % 3.' J b c c c c c c c c c c c c c c c c c c c c c c c c c c c z z c c c c c c c b N V J ;.& < O O + # # ",
"O O 3 # ; g.r.O.J b c c c c z z c c c c c c c c c c c c c c c c c c c c c c c c c c c c c N T { =.s.% +   @     = ",
"    O     . . : Q z c c c c c z c c c c c c c c c c c c c c c c c c c c c c c c c c c c c A ` % o .   O         = ",
"            . % ^ c c c d j c c c c c c c c c c c c c c c c c c c c c c c c c c c c c c f J =.o .             . @ ",
"              % 3.` U A c k c c c c c c c c c c c c c c c c c c c c c c c c c c c c c V ( ;.i..               .   ",
"              . ; % : O.A j c f c c c c c c c c c c c c c c c c c c c c c c z z c c c ( w $ o                     ",
"              O   . $ q...A f f c c c c c c c c c c c c c c c c c c c c c c z b P A J ;.$ O O                 X   ",
"              O   o : j.q.@.J c c c c c c c c c c c c c c c c c c c c c c c c N Q ..%.s.e #                   @   ",
"              O O   . . % w Q c c c c c c c c c c c c c c c c c c c c c c c c A ..e % o .   #                     ",
"            O O @ . # . . % ` c c c c c c c c c c c c c c c c c n n c c z z c J ;.& .   2 O O                   @ ",
"            O     X O O O > 3.] ' ' +.( V c c c c c c c c c c c c f J Q ` ] ] ;.s.: . , O O O                     ",
"                .     4 2   y ; o % % & ( c c f z z z z c c c c c A @.r % o o o y .   q                           ",
"                X @   O 2 O O   X X + . ,.Q T T J J J J J J J T T ' q.$   O #   *   O       #                     ",
"                    X   O O q 2 @   O % g.4.4.,.,.,.,.,.,.,.,.8.4.u.j.% o     @     X   O O O                     ",
"              O     # @   O   O     q . : % % % % % % % % % % % % o : . . # @           O O O                     ",
"              O           @     < O   .   . . .   . . . . . . o . o   X     + 2   2         X                     ",
"                2         # X   O + @ 9   @                       O O O   + O     @   @   X                       ",
"                O   O 2       O     O                         O   O < O   O   + X     #   X                       ",
"                                                                                                                  ",
"                                                                                                                  ",
"                                                                                                                  ",
"                                                                                                                  "
};
