/* XPM */
static char * pacman_left_xpm[] = {
"57 59 68 1",
" 	c #010102",
".	c #09040B",
"+	c #0B0C12",
"@	c #03030A",
"#	c #060906",
"$	c #06090B",
"%	c #121314",
"&	c #0A0A0C",
"*	c #14141A",
"=	c #0C0500",
"-	c #030213",
";	c #0B0615",
">	c #1B1300",
",	c #110600",
"'	c #0C0A01",
")	c #130B00",
"!	c #241C01",
"~	c #151201",
"{	c #EEE584",
"]	c #F3E965",
"^	c #F5EA59",
"/	c #F9E95B",
"(	c #F6EB54",
"_	c #EFE77B",
":	c #171916",
"<	c #F9EE3B",
"[	c #FCEF2A",
"}	c #FCF02A",
"|	c #18161B",
"1	c #2C2604",
"2	c #F6EC4F",
"3	c #FAEF33",
"4	c #F7EC45",
"5	c #1A0D00",
"6	c #EBE39A",
"7	c #F4E76E",
"8	c #F3E86B",
"9	c #F8EA52",
"0	c #F9ED43",
"a	c #EDE58A",
"b	c #332E10",
"c	c #1D1900",
"d	c #FBF033",
"e	c #100B0F",
"f	c #ECE493",
"g	c #100E14",
"h	c #FDF124",
"i	c #FEF21D",
"j	c #FDF013",
"k	c #FCEF13",
"l	c #FBEF26",
"m	c #060912",
"n	c #F8EC4C",
"o	c #FCEF0B",
"p	c #FDF00C",
"q	c #FEF105",
"r	c #0C0D18",
"s	c #231500",
"t	c #F3E773",
"u	c #FBEE1A",
"v	c #01011B",
"w	c #F2E67B",
"x	c #0D1112",
"y	c #180D1B",
"z	c #0F100B",
"A	c #13120B",
"B	c #281E00",
"C	c #312500",
"                    .+   @@ @@  @@@    #$                ",
"                    @  %#@@@ @#@@ +%@& %                 ",
"                   *@&  #.@      =@.-;@@                 ",
"                  @@  >,,,=',,=='=),!.@@                 ",
"                  $ #~{]^/(^^(((((/^_>@ :   @    @       ",
"           #'  ' # '=)]<[}}}}}}}}}}}(,' '=' @$|@ @       ",
"          +  # '','))123[}}}}}}}}}}}4!5'))=  & @@|       ",
"          @ & ''6{78]90[[}}}}}}}}}}}<^7887ab# $$@        ",
"          @@&#c~8240033}}}}}}}}}}}}}[<00007,;+|  #       ",
"           -#a](0d}}}}}}}}}}}}}}}}}}}}}}}}25,=  @        ",
"          @ '8<<3[}}}}}}}}}}}}}}}}}}}[[}}}328a,'@#       ",
"          &@=80d3}}}}}}}}}}}}}}}}}}}}}}}}}}}0]))         ",
"          .-ef]^03}}}[}}}}}}}}}}}}}}}}}}}}}}<(>'' @      ",
"          g-. ~>93}}}}}}}}}}h}hhhhh}h}h}}}}}d0(]a=.@@$ @@",
"          @-@~',^<}}}}}}}}hiiiijkiiiiii}l}}}}d<<],=&@% # ",
"          .m # 1a8nd}}}}}}hkojjpppojopj}}}}}}}}}n1,>   $ ",
"           @@;  ',52}[}}}}hpqqpqqqqqqqpi}}}}}}}}d0]{1= @-",
"          @ @@$r@@,]<<3}}}hpqqqqqqqqqqph}}}}}}}}}}07= @@-",
"         @@ @ @@ @'a]90[[}ippjjpppqqqpph}}}}}}}}}}07>~+  ",
"           @@ @@ +'')s9<[hhpojiiiipqqpjh}}}}}}}}}}0t5  @@",
"              ;@m @ ~)]<[}ukkihhhhippoih}}}}}}}}}}07)=g-v",
"               @  &@=,a7n3hiih[}}}hikiih}}}hhhh}}}<^c)=;v",
"                   m& ,,5nhhh}}}[}lhhhh}}}liiihl}}}<49w~@",
"                  +  x y,8<<3[[}[}}}[}}}}}huuuul}}}}}}(' ",
"                    m # !a](0[}}}}}}}}}}}}}hhh}}}}}}}l9,.",
"                   & @%  ,5>(<}}}}}}}}}}}}l}}}}}}}}}}l^s.",
"                  @:# @ &'=)]<}[}}}}}}}}}}}}l}}}}}[}}[^,.",
"                 @   r; @@#'a893}}}h[}}}}}}l}hh}}}}}}[^,.",
"                  z@+@  ##&='=)2}}}}}}}}}}}}}iihhh}}}}^, ",
"                   m@@ #&  # >)(}}}}}}}}}}}}}uuuihh}h}^,@",
"                  #  @    A c)50}}}[}}}}}}}}hhkjopph[}^,.",
"                  @  & @@  ~f_^<}}[[[}[}}[}}}hhjkpjh[}(=.",
"                  @   @y@# ,w9<}}}}[l}}}}}}}}}hhhhh}}l^,=",
"                  @   @;.1)>^<}}}}}}[}}}}}}}}}}}}}}}}l^,.",
"                   @ + @,w(0<}}}}}}}}}}}}}}}}[}}}}}}}l^=.",
"                   @@&#=>(}}}}}}}}}}}}}}}}}}}[}}}}[<<<8, ",
"             @@    * =',50}}}}[}}}}}}}}}}}}}}}}}}}d0(]a=.",
"          @ @@m@r @& ,6w^3}hhhh}}}}}}}}}}}}}}}}}d}d^>,'=e",
"          $@@  @@m-@=)w^<}uooii}}}}}}}}}}}}}[}}}}}08)==  ",
"          @@@@zx@-&c,5/<}ijpqpkiihhh}}}}}}}}}}}}}}07)=  .",
"          m@   @  =_90<[}hjpqqqqpjjiih}}}[h}}}[}}}08'=&. ",
"         @@ @ #  ,59[[[}}hipqqqqqqpppihhih}}}}}}3<2t'  @@",
"          @@$@ =s5s0[}}}}}hjpqqqqqqqqqpppihh}}[}<^tf~# @@",
"         @@@@ =Bft/<[[}}}}}ijpqqqpppppppjuh}}}}[0C>c# &+@",
"           -+ =5w9<3}}}}}}hiujpjjihhhhihh}h[}}}[9,= #  @.",
"          @- ,)>/<}}}}}}}}lhhhiiih}}h}}}}}}}d<0(_=  @ @  ",
"          @;,w(0<[[}}}}}}}}}}}hhhh}}}}}}}}}l<^>,!.       ",
"          @;>^}[[[[[[[}}}}}}}}}}}}}}}}}}}}}<(_,=@        ",
"           +=^}}}}}}}}[}}}}}}}}}}}}}}}}}}}<^_f'# *       ",
"          @ ~_(4<}}}}}h}}}}}}}}}}}}}}}}}}}0>,~'z@@       ",
"          m@#''~^<}[}[[}}}}}}}}}}}}}}}}}}}9)' A@@m       ",
"         @@ m@ '{]^^90<[}}}}}}}}}}}}d2(^^^_>@@@@@ @      ",
"          @@$+ ==,5),s/<}}}}}}}}}}}}2s,,c,=  +$@@        ",
"                  . =)w900<0<<<000<<]' .  @  @           ",
"                    ,Bfw888888888777a'   .               ",
"                  @# '>,),,),)',))))> &@##               ",
"                     #   )  =  .= ='  x                  ",
"                  $$#&@@@@ .  =     @   @&               ",
"                     @---@@      @-vv+$$@                "};
