/* XPM */
static char * pacman_up_xpm[] = {
"57 59 728 2",
"  	c #010102",
". 	c #010103",
"+ 	c #020204",
"@ 	c #020203",
"# 	c #030204",
"$ 	c #020103",
"% 	c #030308",
"& 	c #010203",
"* 	c #010104",
"= 	c #08090E",
"- 	c #03040A",
"; 	c #030309",
"> 	c #020105",
", 	c #08080B",
"' 	c #08050C",
") 	c #0D0B12",
"! 	c #05040C",
"~ 	c #07040B",
"{ 	c #05070A",
"] 	c #05070F",
"^ 	c #03030A",
"/ 	c #060705",
"( 	c #01010F",
"_ 	c #000004",
": 	c #020209",
"< 	c #030211",
"[ 	c #040312",
"} 	c #030312",
"| 	c #050710",
"1 	c #020205",
"2 	c #03030B",
"3 	c #030311",
"4 	c #030212",
"5 	c #0A0513",
"6 	c #0B0713",
"7 	c #0A0A10",
"8 	c #030305",
"9 	c #020102",
"0 	c #090802",
"a 	c #030303",
"b 	c #08080A",
"c 	c #171710",
"d 	c #55522F",
"e 	c #5C5726",
"f 	c #5B5625",
"g 	c #565233",
"h 	c #1E1B14",
"i 	c #050409",
"j 	c #020305",
"k 	c #04030B",
"l 	c #05070B",
"m 	c #04040A",
"n 	c #080910",
"o 	c #0E0C08",
"p 	c #403B1B",
"q 	c #464115",
"r 	c #433E13",
"s 	c #403D1A",
"t 	c #15150A",
"u 	c #05080F",
"v 	c #06080B",
"w 	c #020202",
"x 	c #050705",
"y 	c #040403",
"z 	c #413F21",
"A 	c #DDD57A",
"B 	c #EDE368",
"C 	c #EDE267",
"D 	c #E1D983",
"E 	c #53502F",
"F 	c #100E01",
"G 	c #070906",
"H 	c #090511",
"I 	c #04040B",
"J 	c #020104",
"K 	c #040303",
"L 	c #413C1B",
"M 	c #DBD06B",
"N 	c #E9DE56",
"O 	c #E8DE54",
"P 	c #DDD56C",
"Q 	c #534F25",
"R 	c #090A0F",
"S 	c #030302",
"T 	c #0A0800",
"U 	c #484417",
"V 	c #E8DE5E",
"W 	c #F8ED45",
"X 	c #F8ED47",
"Y 	c #EDE361",
"Z 	c #5A5520",
"` 	c #0C0801",
" .	c #090702",
"..	c #06080C",
"+.	c #080511",
"@.	c #0C0D0A",
"#.	c #030304",
"$.	c #030203",
"%.	c #0D0600",
"&.	c #484212",
"*.	c #EAE052",
"=.	c #FBEF38",
"-.	c #FBEF36",
";.	c #EFE553",
">.	c #59551B",
",.	c #090801",
"'.	c #1A180A",
").	c #575334",
"!.	c #716B2B",
"~.	c #ECE14E",
"{.	c #F9EE3D",
"].	c #FAEF38",
"^.	c #F0E552",
"/.	c #7B7325",
"(.	c #5B551C",
"_.	c #5A562B",
":.	c #1D1B0D",
"<.	c #090A14",
"[.	c #0B0E10",
"}.	c #040409",
"|.	c #161104",
"1.	c #474122",
"2.	c #48411D",
"3.	c #625B1A",
"4.	c #EEE240",
"5.	c #FCEF2E",
"6.	c #FCF02C",
"7.	c #F1E642",
"8.	c #6B661D",
"9.	c #3C391B",
"0.	c #151105",
"a.	c #434026",
"b.	c #DCD48A",
"c.	c #EEE36A",
"d.	c #F8EC46",
"e.	c #FAEF34",
"f.	c #FAEF33",
"g.	c #F9ED42",
"h.	c #F2E54C",
"i.	c #EEE457",
"j.	c #E1D97B",
"k.	c #524F2B",
"l.	c #04040C",
"m.	c #050302",
"n.	c #474023",
"o.	c #D7CF82",
"p.	c #E6DB73",
"q.	c #EDDF57",
"r.	c #F8EC3D",
"s.	c #FCEF2C",
"t.	c #FCF02B",
"u.	c #F8ED3C",
"v.	c #E9DF54",
"w.	c #DBD373",
"x.	c #504C27",
"y.	c #474221",
"z.	c #E4DB7A",
"A.	c #F6EB55",
"B.	c #FAEF32",
"C.	c #FAEF35",
"D.	c #F9EE40",
"E.	c #ECE263",
"F.	c #575221",
"G.	c #040208",
"H.	c #040309",
"I.	c #090A0E",
"J.	c #010202",
"K.	c #020306",
"L.	c #040311",
"M.	c #100600",
"N.	c #4B441D",
"O.	c #E8DC6E",
"P.	c #F7EA59",
"Q.	c #F9ED41",
"R.	c #FBEF2E",
"S.	c #FCEF2A",
"T.	c #FCF02A",
"U.	c #FBF02E",
"V.	c #F9EE41",
"W.	c #ECE262",
"X.	c #575220",
"Y.	c #040406",
"Z.	c #050709",
"`.	c #48441B",
" +	c #E9DD67",
".+	c #F7EC49",
"++	c #FCF02E",
"@+	c #F2E647",
"#+	c #787121",
"$+	c #58531F",
"%+	c #524E2A",
"&+	c #1C1B0B",
"*+	c #040408",
"=+	c #040509",
"-+	c #020304",
";+	c #0B0C09",
">+	c #15130F",
",+	c #433F1C",
"'+	c #4B4412",
")+	c #675E1B",
"!+	c #EEE056",
"~+	c #F9ED40",
"{+	c #FBEF31",
"]+	c #EEE354",
"^+	c #59521A",
"/+	c #090408",
"(+	c #050708",
"_+	c #101015",
":+	c #0B0801",
"<+	c #4A451A",
"[+	c #E9DE63",
"}+	c #F9ED47",
"|+	c #FCF02D",
"1+	c #F1E649",
"2+	c #ECE360",
"3+	c #E0D87B",
"4+	c #504D29",
"5+	c #06080F",
"6+	c #09090B",
"7+	c #131512",
"8+	c #040405",
"9+	c #04050B",
"0+	c #09090D",
"a+	c #06050A",
"b+	c #48441D",
"c+	c #DBD36B",
"d+	c #ECDF50",
"e+	c #EEE33F",
"f+	c #F8ED3E",
"g+	c #FCEF2F",
"h+	c #EEE352",
"i+	c #575219",
"j+	c #040203",
"k+	c #050706",
"l+	c #050809",
"m+	c #040604",
"n+	c #0A0400",
"o+	c #4B4618",
"p+	c #EADF5D",
"q+	c #F9ED44",
"r+	c #FBF02F",
"s+	c #ECE260",
"t+	c #56511E",
"u+	c #130F01",
"v+	c #0C0601",
"w+	c #09080A",
"x+	c #030405",
"y+	c #05070E",
"z+	c #060907",
"A+	c #030306",
"B+	c #08090F",
"C+	c #040305",
"D+	c #0C0501",
"E+	c #4C4613",
"F+	c #EDE050",
"G+	c #FBEE35",
"H+	c #F0E34C",
"I+	c #575116",
"J+	c #0C0500",
"K+	c #100700",
"L+	c #040302",
"M+	c #050806",
"N+	c #080709",
"O+	c #5B572D",
"P+	c #615C24",
"Q+	c #797223",
"R+	c #EFE24C",
"S+	c #FAEF37",
"T+	c #FCEF2B",
"U+	c #F9EE3B",
"V+	c #F1E44D",
"W+	c #776F22",
"X+	c #57511E",
"Y+	c #504C28",
"Z+	c #18160B",
"`+	c #0A0D0E",
" @	c #0A0A14",
".@	c #07070A",
"+@	c #09090F",
"@@	c #161107",
"#@	c #454027",
"$@	c #4A4420",
"%@	c #68601C",
"&@	c #EFE340",
"*@	c #FCEF2D",
"=@	c #F2E640",
"-@	c #6B621B",
";@	c #413B19",
">@	c #423C1E",
",@	c #171406",
"'@	c #060805",
")@	c #08090B",
"!@	c #4A4621",
"~@	c #E0D776",
"{@	c #EEE460",
"]@	c #F1E74C",
"^@	c #F9EC42",
"/@	c #F1E44E",
"(@	c #DFD77B",
"_@	c #4F4A28",
":@	c #060406",
"<@	c #060807",
"[@	c #0E0F11",
"}@	c #05040B",
"|@	c #090512",
"1@	c #05030B",
"2@	c #070806",
"3@	c #454228",
"4@	c #D8D089",
"5@	c #E7DC74",
"6@	c #F8ED3D",
"7@	c #FDF126",
"8@	c #ECDE55",
"9@	c #E5D971",
"0@	c #D8D082",
"a@	c #4E4A2A",
"b@	c #0E0F10",
"c@	c #040404",
"d@	c #4C4719",
"e@	c #EAE05E",
"f@	c #F9EE3A",
"g@	c #F9ED43",
"h@	c #ECE066",
"i@	c #544D21",
"j@	c #150A15",
"k@	c #080505",
"l@	c #04030A",
"m@	c #140A17",
"n@	c #0B0613",
"o@	c #0D0601",
"p@	c #4C4621",
"q@	c #E8DD75",
"r@	c #F5EA5D",
"s@	c #FCF029",
"t@	c #F7EA5A",
"u@	c #EADE76",
"v@	c #534D26",
"w@	c #030202",
"x@	c #4E4816",
"y@	c #ECE153",
"z@	c #F1E548",
"A@	c #736C1F",
"B@	c #544F20",
"C@	c #524D28",
"D@	c #181509",
"E@	c #060806",
"F@	c #06050C",
"G@	c #19140E",
"H@	c #49431F",
"I@	c #4F4914",
"J@	c #69631D",
"K@	c #ECE255",
"L@	c #EBE066",
"M@	c #534D1F",
"N@	c #040202",
"O@	c #08040A",
"P@	c #4F4917",
"Q@	c #EFE153",
"R@	c #FCEF30",
"S@	c #FDF125",
"T@	c #FAEE35",
"U@	c #EBE164",
"V@	c #DED67B",
"W@	c #4D4926",
"X@	c #0C0902",
"Y@	c #0A0B06",
"Z@	c #514B20",
"`@	c #E0D56C",
" #	c #ECE151",
".#	c #EFE43F",
"+#	c #F9EE37",
"@#	c #FDF120",
"##	c #FDF123",
"$#	c #F9ED45",
"%#	c #EBE064",
"&#	c #524C1E",
"*#	c #100801",
"=#	c #040308",
"-#	c #4F4A15",
";#	c #EDE24F",
">#	c #FBF030",
",#	c #FDF124",
"'#	c #FDF122",
")#	c #FEF21E",
"!#	c #FDF121",
"~#	c #FBEF1C",
"{#	c #F8ED43",
"]#	c #EBE160",
"^#	c #534D1C",
"/#	c #0E0701",
"(#	c #09090A",
"_#	c #030404",
":#	c #0F0E08",
"<#	c #504B16",
"[#	c #EDE251",
"}#	c #FBEF34",
"|#	c #FDF015",
"1#	c #FDF016",
"2#	c #FEF21D",
"3#	c #FCF028",
"4#	c #FBEF26",
"5#	c #514C1E",
"6#	c #020208",
"7#	c #4F4B17",
"8#	c #ECE252",
"9#	c #FCEF14",
"0#	c #FDF00E",
"a#	c #FDF00F",
"b#	c #EEE34F",
"c#	c #706A21",
"d#	c #524D1D",
"e#	c #4B4826",
"f#	c #191507",
"g#	c #161409",
"h#	c #4A4628",
"i#	c #4D4822",
"j#	c #6C661D",
"k#	c #F0E540",
"l#	c #FCEF10",
"m#	c #FDF00C",
"n#	c #FDF00D",
"o#	c #514B1D",
"p#	c #070308",
"q#	c #EDE252",
"r#	c #FCF00E",
"s#	c #FEF106",
"t#	c #FCEF0D",
"u#	c #FCF015",
"v#	c #F8EC43",
"w#	c #EFE44F",
"x#	c #EBE161",
"y#	c #DDD57B",
"z#	c #4A4726",
"A#	c #080602",
"B#	c #4D4929",
"C#	c #DBD384",
"D#	c #E9DD73",
"E#	c #FCEF0F",
"F#	c #FEF107",
"G#	c #FDF014",
"H#	c #FCEF1A",
"I#	c #EAE064",
"J#	c #504A1D",
"K#	c #0A0401",
"L#	c #514C15",
"M#	c #EDE34E",
"N#	c #FCF02F",
"O#	c #FDF013",
"P#	c #FDF012",
"Q#	c #FEF11D",
"R#	c #F8ED44",
"S#	c #EAE065",
"T#	c #4F4A1D",
"U#	c #181000",
"V#	c #504C23",
"W#	c #E7DF73",
"X#	c #F7EA57",
"Y#	c #F9EE3E",
"Z#	c #FEF21B",
"`#	c #FEF105",
" $	c #EAE063",
".$	c #EEE34E",
"+$	c #FEF21C",
"@$	c #FDF00B",
"#$	c #FCEF29",
"$$	c #FBEF30",
"%$	c #EFE24D",
"&$	c #6D671E",
"*$	c #524C14",
"=$	c #6F681F",
"-$	c #EDE355",
";$	c #EADF63",
">$	c #4E491D",
",$	c #090401",
"'$	c #524D16",
")$	c #EFE448",
"!$	c #EEE34C",
"~$	c #FEF108",
"{$	c #EADF64",
"]$	c #4E481C",
"^$	c #080408",
"/$	c #534E16",
"($	c #F9ED46",
"_$	c #4D481C",
":$	c #0B0501",
"<$	c #0A0402",
"[$	c #544F17",
"}$	c #EFE34F",
"|$	c #EADE66",
"1$	c #4D471C",
"2$	c #0A0B11",
"3$	c #060409",
"4$	c #564F19",
"5$	c #F0E254",
"6$	c #FCF030",
"7$	c #FCF00D",
"8$	c #4C471C",
"9$	c #0B0500",
"0$	c #0F0F11",
"a$	c #0A050C",
"b$	c #56501B",
"c$	c #EDE358",
"d$	c #EADE68",
"e$	c #4C461C",
"f$	c #524E23",
"g$	c #E8DE4F",
"h$	c #EBE040",
"i$	c #FCF016",
"j$	c #FBEF27",
"k$	c #FAEF36",
"l$	c #F2E74A",
"m$	c #EEE461",
"n$	c #494423",
"o$	c #0A0612",
"p$	c #16110D",
"q$	c #3E3A18",
"r$	c #413C0F",
"s$	c #6B641E",
"t$	c #EEE355",
"u$	c #FCF00F",
"v$	c #EEE447",
"w$	c #766F20",
"x$	c #605B24",
"y$	c #59562F",
"z$	c #19170A",
"A$	c #050408",
"B$	c #585221",
"C$	c #EDE166",
"D$	c #FDF010",
"E$	c #FEF21F",
"F$	c #EBE14D",
"G$	c #4A4412",
"H$	c #010002",
"I$	c #000002",
"J$	c #040505",
"K$	c #ECE164",
"L$	c #FEF11F",
"M$	c #494414",
"N$	c #080308",
"O$	c #131411",
"P$	c #585321",
"Q$	c #EDE265",
"R$	c #4B4613",
"S$	c #595324",
"T$	c #EDE16B",
"U$	c #F8EC4B",
"V$	c #FBEF32",
"W$	c #FCEF1C",
"X$	c #EADF54",
"Y$	c #484314",
"Z$	c #070409",
"`$	c #090701",
" %	c #514D2A",
".%	c #DBD37A",
"+%	c #E7DB65",
"@%	c #EBE149",
"#%	c #FCF026",
"$%	c #F9ED3B",
"%%	c #F4E840",
"&%	c #F2E551",
"*%	c #DFD76C",
"=%	c #030307",
"-%	c #161408",
";%	c #494422",
">%	c #433D18",
",%	c #F0E64C",
"'%	c #FDF11E",
")%	c #FBEF2B",
"!%	c #EBE053",
"~%	c #726C1E",
"{%	c #605A1C",
"]%	c #5A5528",
"^%	c #161407",
"/%	c #0A0B08",
"(%	c #0B0611",
"_%	c #5A5524",
":%	c #F8ED49",
"<%	c #FBF034",
"[%	c #FBEF1B",
"}%	c #FBF033",
"|%	c #F5EB58",
"1%	c #E4DC71",
"2%	c #443F1C",
"3%	c #0A0701",
"4%	c #040307",
"5%	c #080A0D",
"6%	c #0B0A11",
"7%	c #534F2C",
"8%	c #DCD47A",
"9%	c #E7DD5F",
"0%	c #EBE14E",
"a%	c #FEF11E",
"b%	c #FBEF1D",
"c%	c #EFE557",
"d%	c #EAE175",
"e%	c #413E22",
"f%	c #050403",
"g%	c #131116",
"h%	c #080A0C",
"i%	c #131216",
"j%	c #141209",
"k%	c #3F3B1E",
"l%	c #443F15",
"m%	c #F0E650",
"n%	c #FBEE1E",
"o%	c #FBEE1A",
"p%	c #FCEF17",
"q%	c #EEE23F",
"r%	c #6F6921",
"s%	c #5A562A",
"t%	c #545130",
"u%	c #191809",
"v%	c #0F0E09",
"w%	c #0F0800",
"x%	c #5C5823",
"y%	c #EDE362",
"z%	c #F8ED42",
"A%	c #FDF017",
"B%	c #FBEE34",
"C%	c #E9DF4F",
"D%	c #443F10",
"E%	c #0D0D0A",
"F%	c #05050A",
"G%	c #55522D",
"H%	c #EEE346",
"I%	c #FDF11C",
"J%	c #FCEF0E",
"K%	c #FCEF15",
"L%	c #F3E740",
"M%	c #F1E451",
"N%	c #DED56B",
"O%	c #443F1A",
"P%	c #060508",
"Q%	c #05050B",
"R%	c #040605",
"S%	c #413D1F",
"T%	c #464116",
"U%	c #77701D",
"V%	c #F3E842",
"W%	c #FDF011",
"X%	c #F9EE3F",
"Y%	c #EADF52",
"Z%	c #726A1C",
"`%	c #5C551A",
" &	c #534F26",
".&	c #18140C",
"+&	c #0F0F15",
"@&	c #090409",
"#&	c #0B0301",
"$&	c #5F5A23",
"%&	c #F8EC4A",
"&&	c #F9ED48",
"*&	c #F9EE3C",
"=&	c #E6DB6B",
"-&	c #443E18",
";&	c #0B0400",
">&	c #090709",
",&	c #5A552C",
"'&	c #DFD676",
")&	c #E9DD6A",
"!&	c #EADE64",
"~&	c #F8EC45",
"{&	c #ECE165",
"]&	c #ECE070",
"^&	c #DAD282",
"/&	c #403C1F",
"(&	c #1A1809",
"_&	c #4B4620",
":&	c #48431A",
"<&	c #4B451B",
"[&	c #4B441C",
"}&	c #777020",
"|&	c #F3E841",
"1&	c #EADF4E",
"2&	c #686220",
"3&	c #565120",
"4&	c #575121",
"5&	c #575226",
"6&	c #514E2D",
"7&	c #07090B",
"8&	c #0D0701",
"9&	c #120F03",
"0&	c #060302",
"a&	c #0A0302",
"b&	c #635C1D",
"c&	c #F3E550",
"d&	c #FBEF2D",
"e&	c #FBEF2F",
"f&	c #FAEF30",
"g&	c #F8ED46",
"h&	c #E5DC5F",
"i&	c #3F3A13",
"j&	c #0D0500",
"k&	c #0A0501",
"l&	c #060704",
"m&	c #020303",
"n&	c #040306",
"o&	c #0B0810",
"p&	c #5C572A",
"q&	c #E4D86C",
"r&	c #ECE150",
"s&	c #EEE14D",
"t&	c #ECE152",
"u&	c #EDE255",
"v&	c #EBE168",
"w&	c #D9D179",
"x&	c #3A371B",
"y&	c #090809",
"z&	c #020207",
"A&	c #04030E",
"B&	c #161310",
"C&	c #393519",
"D&	c #3A370F",
"E&	c #3C370E",
"F&	c #3F3910",
"G&	c #3D3810",
"H&	c #3D3910",
"I&	c #3E3910",
"J&	c #3E3911",
"K&	c #3F3A11",
"L&	c #3F3A10",
"M&	c #403B11",
"N&	c #413C12",
"O&	c #413C13",
"P&	c #413C1A",
"Q&	c #3A381D",
"R&	c #0E0A05",
"S&	c #060407",
"                                                                                                                  ",
"                                                                                                                  ",
"                                                                                                                  ",
"                                                                                                                  ",
"                                                                                                                  ",
"                                                                                                                  ",
"                                                                                                                  ",
"                                                                                                                  ",
"                                                                                                                  ",
"                                  .                                                                               ",
"          + . .   . @ @ # . $   . % .                                   . & . & % * % .           . % .           ",
"        @ = - ; > % , ' ) ! ~ + % ; .                                   % { - ] ^ ; ^ * ; ^ ^ + % ] ^ ; .         ",
"        / @ + ^ ( _ : < [ } | ^ + * % .                                 * ; ^ ^ 1 ; 2 3 4 5 6 7 8 - 1 ; .         ",
"      9 0 a b c d e f g h i j k ^ ; ; .                               . % ; ^ + % l m n o p q r s t u v @         ",
"        w x y z A B C D E F G H I + . J                               ; ^ + ; . @ % + K L M N O P Q - R +         ",
"        w S T U V W X Y Z `  .# ..- ^ +.1                             ; ] j @.#.x $.%.%.&.*.=.-.;.>.@ #           ",
"      9 ,.'.).!.~.{.].^./.(._.:.<.I ; I ; .                           . I m [.}.@ |.1.2.3.4.5.6.7.8.9.0.9         ",
"        S a.b.c.d.e.f.g.h.i.j.k.^ + j ] +           .                 + <.l.I + m.n.o.p.q.r.s.t.u.v.w.x.          ",
"    . @ / y.z.A.-.s.t.B.C.D.E.F.G.H.I.j @   @     . % @   J.. . .       K.| L.# M.N.O.P.Q.R.S.T.U.V.W.X.9         ",
"  Y.; Z.y `. +.+U.T.T.t.t.++@+#+$+%+&+*+b 8 = + @ =+-+;+#.x % ; % . . 8 ^ L.>+,+'+)+!+~+U.S.S.T.T.{+]+^+/+$ % @ (+",
"8 _+I a :+<+[+}+|+T.T.T.T.t.C.1+2+3+4+K }.5+1 + 6+7+8+9+] + . . . % I _+0+a+b+c+d+e+f+e.t.T.S.T.T.g+h+i+j+w k+@ l+",
"; I @ m+n+o+p+q+|+T.T.T.T.T.t.r+V.s+t+u+v+w+x+y+8 z+A+B+I . @     + ; C+K D+E+F+G+5.s.t.T.T.S.T.T.5.H+I+J+K+L+@ M+",
"+ N+'.O+P+Q+R+S+t.T.T.S.T.T.T.T+U+V+W+X+Y+Z+`+x+}.A+ @l.; ; .@@ + +@6+@@#@$@%@&@*@T.S.T.T.T.S.T.T.*@=@-@;@>@,@'@)@",
"#.K !@~@{@]@Q.f.t.T.T.T.T.T.T.t.f.^@/@s+(@_@:@<@[@}@|@1 @ . + 1@^ 8 2@3@4@5@!+6@s.T.T.T.T.T.T.S.7@T+u.8@9@0@a@y m ",
"b@c@d@e@V.e.s.t.T.T.T.T.T.T.T.T.t.*@f@g@h@i@j@k@a + + @ k+@ l@m@n@i o@p@q@r@~+R.T.T.T.T.T.T.T.T.s@T.R.~+t@u@v@w@^ ",
"<@2@x@y@{+T+S.T.T.T.T.T.T.T.T.T.T.S.T+g+z@A@B@C@D@b }.E@b @ ; F@G@H@I@J@K@D.|+T.T.T.T.T.T.T.T.T.T.T.T.r+}+L@M@N@^ ",
"l@O@P@Q@R@T.T.T.T.T.T.T.T.s@s@s@s@s@S@s@T@z@U@V@W@X@}.E@@ @ @ Y@Z@`@ #.#+#t.@###S@s@T.T.T.T.T.T.T.T.T.6.$#%#&#*#H.",
"^ =#-#;#>#T.T.T.T.T.T.T.T.,#####'#)#!#~#,#t.{#]#^#/#2@(#_#:#y m.<#[#}#|+T.~#|#1#2#,#3#S@4#T.T.T.T.T.T.6.V.%#5#m.+ ",
"6#@ 7#8#>#T.T.T.T.T.T.T.s@)#9#0#0#0#a#9#2#7@U+b#c#d#e#f#/ g#h#i#j#k#|+T.,#l#m#n#a#|#2#)#,#T.T.T.T.T.T.6.$#%#o#N@p#",
"* 9 <#q#>#T.T.T.T.T.T.T.S@2#r#s#s#m#t#u#)#7@f.v#w#x#y#z#A#B#C#D#K@u.6.T.##E#F#s#s#n#G#H#,#T.T.T.T.T.T.6.D.I#J#K#$.",
"% w@L#M#N#T.T.T.T.T.T.T.3#2#O#F#s#P#|#Q#,#s@T+5.U+R#S#T#U#V#W#X#Y#|+T.T.,#Z#n#s#`#s#n#|###s@T.T.T.T.T.6.D. $T#N@9 ",
"k+w L#.$N#T.T.T.T.T.T.T.,#+$O#@$F#O#+$,##$T.S.T.t.$$%$&$*$=$-$Y#|+T.T.S.,#)#O#s#`#`#s#a#)#S@T.T.T.T.T.6.D.;$>$w@,$",
"; w '$.$N#T.T.T.T.T.T.T.##|#n#s#s#0#2#,#T.T.T.T.T.T++#)$!$k#u.|+T.T.T.T.s@3#+$~$`#`#s#O#2#,#T.T.T.T.T.|+$#{$]$^$w@",
"% w@/$.$N#T.T.T.T.T.T.s@##u#m#s#s#0#2#,#T.S.S.T.T.T.t.++N#|+6.T.T.T.T.T.T.s@)#n#s#`#F#G#2#,#T.T.T.T.T.|+(${$_$:$9 ",
"8 <$[$}$N#T.T.T.T.T.T.s@,#+$n#s#s#n#+$##s@T.T.T.T.T.T.T.T.T.T.T.T.T.T.T.T.s@##O#F#s#n#+$##S@T.T.T.T.T.|+($|$1$N@. ",
"2$3$4$5$6$T.T.T.T.T.T.T.,#+$7$s#`#s#a#+$,#4#T.T.T.T.T.T.T.T.S.T.T.T.T.T.T.s@##|#m#s#a###s@s@T.T.T.T.T.6.g.|$8$9$J ",
"0$a$b$c$-.++6.T.T.T.T.T.3#2#P#s#`#`#s#a#Q#,#T.T.T.T.7@T.T.S.S.S.T.T.T.T.T.T.,#+$n#s#a###s@T.T.T.T.T.t.r+R#d$e$:+1 ",
"I +.f$c+g$h$6@R.T.T.T.T.S@+$7$`#`#s#s#n#i$,#S.T.T.T.S.T.T.T.S.j$S.T.T.T.T.T.3#2#0#s#a###7@T.T.T.T.t.k$l$m$(@n$m.2 ",
", o$p$q$r$s$t${.t.S.T.T.3#2#0#s#s#@$m#u$+$,#T.T.T.T.T.T.T.T.T.T.T.T.T.T.T.T.s@,#Z#~$a###s@T.T.T.T.r+v$w$x$y$z$@ 1 ",
"Y.^ ^ A$` B$C$$#6.S.T.T.S@)#1#a#a#D$|#+$)#S@T.T.T.T.T.T.T.T.S.T.T.T.T.T.T.T.T.s@'#0#a#E$s@T.T.T.T.>#F$G$H$I$, `+-+",
"b@m ; J$S F.K$$#6.T.T.T.T.s@3#L$##,#,#,#S@s@T.T.T.T.T.T.T.T.T.T.T.T.T.T.T.T.T.s@'#a#D$##T.T.T.T.T.{+*.M$N$$ }.8 @ ",
"@   _#O$X@P$Q$$#6.T.T.T.T.j$T.s@T.T.T.T.T.T.T.T.T.T.T.T.T.T.T.T.T.T.T.T.T.T.T.s@)#D$|#,#T.T.T.T.T.{+*.R$K @ k+@ ; ",
"      a 9$S$T$U$V$t.T.T.T.T.T.T.T.T.T.T.T.T.T.T.T.T.T.T.T.T.S.T.T.T.T.T.T.T.T.#$##Q#W$3#T.T.T.t.6.}#X$Y$$.Z$k+@ .@",
"      w `$ %.%+%@%+#t.T.T.T.T.T.T.T.T.T.s@#%,#s@j$T.T.T.T.T.T.T.T.T.T.T.T.T.s@7@s@,#,#7@T.T.|+$%%%&%*%,+=%@ @   @ ",
"      . @ -%;%>%&$,%{+6.t.T.T.T.T.T.T.s@,#'%W$S@s@s@j$T.T.T.T.T.T.T.T.T.T.T.T.T.s@S@s@S.T.)%Y#!%~%{%]%^%.         ",
"    . % ; #./%(%_%C :%{.<%6.T.T.T.T.T.s@,#2#[%,#s@j$s@s@3#S@s@T.T.T.T.T.T.S.T.T.T.T.T.t.}%Y#|%1%2%3%4%@           ",
"      + 5%b Y.6%7%8%9%0%{#<%t.T.T.T.T.s@,#a%~#S@T.s@,#'%b%##S@s@T.S.S.T.T.T.T.T.T.T.T.6.6@c%d%C#e%f%m B+%         ",
"      C+g%Y.h%i%j%k%l%c#m%U+t.T.T.T.T.s@S@##n%s@T.s@,#a%o%p%'#S@T.T.T.T.T.T.T.S.T.S.T.++q%r%s%t%u%v%m v @         ",
"      . m - { #.@ X@w%x%y%z%>#t.T.T.T.T.s@4#4#T.T.T.s@##H#O#A%,#T.T.T.T.t.T.T.T.t.t.s.B%C%D%K#/ E%F%^ ;           ",
"      . 1 F@; + % *+  G%A V H%e.t.T.T.T.T.T.T.T.T.T.s@,#I%J%K%,#T.T.T.t.>#T.T.t.e.u.L%M%N%O%P%8 m ^ ^ ;           ",
"    . % Q%g%#.R%@ x   j%S%T%U%V%N#|+|+|+6.T.T.T.T.T.s@S@'#0#W%,#T.T.T.t.6.6.6.U.X%Y%Z%`% &.&Y.+&l.] + .           ",
"        . @         . % @&#&$&m$%&&&&&($*&|+T.T.T.S.T.s@##W%A%S@T.T.*@<%].q+$#($A.=&-&;&H$$ . 8 . 1 6#            ",
"                      . m >&,&'& + +)&!&q#U+t.T.T.T.T.T.3###,#s@T.6.f@~&t$K$C${&]&^&/&L+            .             ",
"                      . - F%(&_&:&<&[&<+}&|&6.T.T.T.T.s@7@#$S.T.T.6.Y#1&2&3&4&F.5&6&t k+%                         ",
"                      @ 7&b@K 8&f%9&0&a&b&c&V$d&R.$$$$$$>#$$e&d&d&f&g&h&i&j&J+k&w l&m&@ .                         ",
"                        @ #.@ + m I.n&o&p&q&r&s&t&t&t&8#8#q#b#q#q#u&v&w&x&n+K y&@ #.b + z&                        ",
"                      . % k+(+% % + % A&B&C&D&E&F&G&H&I&J&K&L&M&N&O&P&Q&R&w@# S&8 #.#.@ .                         ",
"                                                                                                                  ",
"                                                                                                                  "};
