/* XPM */
static char * pacman_down_xpm[] = {
"57 59 727 2",
"  	c #010102",
". 	c #010103",
"+ 	c #030308",
"@ 	c #08090F",
"# 	c #040409",
"$ 	c #060409",
"% 	c #030204",
"& 	c #030202",
"* 	c #120E05",
"= 	c #474424",
"- 	c #4E491E",
"; 	c #403B17",
"> 	c #403B16",
", 	c #3F3A15",
"' 	c #3E3914",
") 	c #3E3915",
"! 	c #3D3815",
"~ 	c #3D3714",
"{ 	c #3C3714",
"] 	c #3C3614",
"^ 	c #3E3714",
"/ 	c #3B3512",
"( 	c #393513",
"_ 	c #37321A",
": 	c #191916",
"< 	c #040314",
"[ 	c #03030B",
"} 	c #020204",
"| 	c #03030A",
"1 	c #050709",
"2 	c #050706",
"3 	c #030309",
"4 	c #020207",
"5 	c #08080A",
"6 	c #030304",
"7 	c #020203",
"8 	c #090809",
"9 	c #040303",
"0 	c #0A0400",
"a 	c #3A371B",
"b 	c #D9D179",
"c 	c #EBE168",
"d 	c #EDE255",
"e 	c #EDE252",
"f 	c #EEE34F",
"g 	c #ECE252",
"h 	c #ECE152",
"i 	c #EEE14D",
"j 	c #ECE150",
"k 	c #E4D86C",
"l 	c #5C572A",
"m 	c #0B0810",
"n 	c #040306",
"o 	c #090A0E",
"p 	c #04040A",
"q 	c #020303",
"r 	c #060704",
"s 	c #020202",
"t 	c #0A0501",
"u 	c #0C0500",
"v 	c #0D0500",
"w 	c #3F3A13",
"x 	c #E5DC5F",
"y 	c #F8ED46",
"z 	c #FAEF30",
"A 	c #FBEF2D",
"B 	c #FBEF2F",
"C 	c #FBEF30",
"D 	c #FBF030",
"E 	c #FBEF2E",
"F 	c #FBEF32",
"G 	c #F3E550",
"H 	c #635C1D",
"I 	c #0A0302",
"J 	c #060302",
"K 	c #120F03",
"L 	c #050403",
"M 	c #0D0701",
"N 	c #0E0F10",
"O 	c #07090B",
"P 	c #15150A",
"Q 	c #514E2D",
"R 	c #575226",
"S 	c #575221",
"T 	c #575121",
"U 	c #565120",
"V 	c #686220",
"W 	c #EADF4E",
"X 	c #F9EE3E",
"Y 	c #FCF02C",
"Z 	c #FCF02A",
"` 	c #FCEF2A",
" .	c #FCEF29",
"..	c #FDF126",
"+.	c #FCF029",
"@.	c #F3E841",
"#.	c #777020",
"$.	c #4A451A",
"%.	c #4B441C",
"&.	c #4B451B",
"*.	c #48431A",
"=.	c #4B4620",
"-.	c #1A1809",
";.	c #05050A",
">.	c #03040A",
",.	c #040302",
"'.	c #403C1F",
").	c #DAD282",
"!.	c #ECE070",
"~.	c #ECE165",
"{.	c #EDE166",
"].	c #ECE164",
"^.	c #EEE355",
"/.	c #F8EC45",
"(.	c #F9EE3A",
"_.	c #FDF124",
":.	c #FDF123",
"<.	c #FCF028",
"[.	c #FCF02B",
"}.	c #F9EE3B",
"|.	c #EADE64",
"1.	c #E9DD6A",
"2.	c #E9DD67",
"3.	c #DFD676",
"4.	c #5A552C",
"5.	c #090709",
"6.	c #020208",
"7.	c #020205",
"8.	c #030305",
"9.	c #020103",
"0.	c #010002",
"a.	c #0B0400",
"b.	c #443E18",
"c.	c #E6DB6B",
"d.	c #F6EB55",
"e.	c #F9ED46",
"f.	c #F9ED45",
"g.	c #F9ED44",
"h.	c #FAEF38",
"i.	c #FBF034",
"j.	c #FCEF2D",
"k.	c #FDF125",
"l.	c #FDF017",
"m.	c #FDF011",
"n.	c #FCF02D",
"o.	c #F9EE3C",
"p.	c #F9ED48",
"q.	c #F8EC4A",
"r.	c #EEE461",
"s.	c #5F5A23",
"t.	c #0B0301",
"u.	c #090409",
"v.	c #05070F",
"w.	c #04040C",
"x.	c #0F0F15",
"y.	c #040406",
"z.	c #18140C",
"A.	c #534F26",
"B.	c #5C551A",
"C.	c #726A1C",
"D.	c #EADF52",
"E.	c #F9EE3F",
"F.	c #FBF02E",
"G.	c #FDF00E",
"H.	c #FDF122",
"I.	c #FCF02F",
"J.	c #F3E842",
"K.	c #77701D",
"L.	c #464116",
"M.	c #413D1F",
"N.	c #141209",
"O.	c #050705",
"P.	c #040605",
"Q.	c #131116",
"R.	c #05050B",
"S.	c #060508",
"T.	c #443F1A",
"U.	c #DED56B",
"V.	c #F1E451",
"W.	c #F3E740",
"X.	c #F8ED3C",
"Y.	c #FAEF34",
"Z.	c #FCEF15",
"`.	c #FCEF0E",
" +	c #FDF11C",
".+	c #EEE346",
"++	c #E8DE5E",
"@+	c #DDD57A",
"#+	c #55522D",
"$+	c #040408",
"%+	c #06050C",
"&+	c #0D0D0A",
"*+	c #060705",
"=+	c #0A0401",
"-+	c #443F10",
";+	c #E9DF4F",
">+	c #FBEE34",
",+	c #FCEF2C",
"'+	c #FDF013",
")+	c #FCEF1A",
"!+	c #FBEF26",
"~+	c #F8ED42",
"{+	c #EDE362",
"]+	c #5C5823",
"^+	c #0F0800",
"/+	c #0C0902",
"(+	c #05070A",
"_+	c #06080B",
":+	c #0F0E09",
"<+	c #191809",
"[+	c #545130",
"}+	c #5A562A",
"|+	c #6F6921",
"1+	c #EEE23F",
"2+	c #FCF02E",
"3+	c #FCEF17",
"4+	c #FBEE1A",
"5+	c #FEF11E",
"6+	c #FBEE1E",
"7+	c #F0E650",
"8+	c #706A21",
"9+	c #443F15",
"0+	c #3F3B1E",
"a+	c #131216",
"b+	c #080A0C",
"c+	c #040305",
"d+	c #413E22",
"e+	c #DBD384",
"f+	c #EAE175",
"g+	c #EFE557",
"h+	c #F8ED3D",
"i+	c #FBEF1D",
"j+	c #FDF11E",
"k+	c #FBEF1C",
"l+	c #F8ED43",
"m+	c #EBE14E",
"n+	c #E7DD5F",
"o+	c #DCD47A",
"p+	c #534F2C",
"q+	c #0B0A11",
"r+	c #080A0D",
"s+	c #040307",
"t+	c #0A0701",
"u+	c #443F1C",
"v+	c #E4DC71",
"w+	c #F5EB58",
"x+	c #FBF033",
"y+	c #FBEF27",
"z+	c #FBEF1B",
"A+	c #FEF21D",
"B+	c #F9EE3D",
"C+	c #F8ED49",
"D+	c #EDE267",
"E+	c #5A5524",
"F+	c #0B0611",
"G+	c #0A0B08",
"H+	c #161407",
"I+	c #5A5528",
"J+	c #605A1C",
"K+	c #726C1E",
"L+	c #EBE053",
"M+	c #FBEF2B",
"N+	c #FCEF1C",
"O+	c #FBEF31",
"P+	c #F0E64C",
"Q+	c #6D671E",
"R+	c #433D18",
"S+	c #494422",
"T+	c #161408",
"U+	c #030307",
"V+	c #433F1C",
"W+	c #DFD76C",
"X+	c #F2E551",
"Y+	c #F4E840",
"Z+	c #F9ED3B",
"`+	c #FCF026",
" @	c #F9EE37",
".@	c #EBE149",
"+@	c #E7DB65",
"@@	c #DBD37A",
"#@	c #514D2A",
"$@	c #090701",
"%@	c #07070A",
"&@	c #070409",
"*@	c #030203",
"=@	c #484314",
"-@	c #EADF54",
";@	c #FBEF34",
">@	c #FEF11D",
",@	c #F8EC4B",
"'@	c #EDE16B",
")@	c #595324",
"!@	c #0B0500",
"~@	c #030303",
"{@	c #4B4613",
"]@	c #EAE052",
"^@	c #FDF015",
"/@	c #FDF010",
"(@	c #FEF21E",
"_@	c #EDE265",
":@	c #585321",
"<@	c #131411",
"[@	c #030404",
"}@	c #080308",
"|@	c #494414",
"1@	c #FDF00F",
"2@	c #FEF11F",
"3@	c #030302",
"4@	c #040505",
"5@	c #020304",
"6@	c #0A0D0E",
"7@	c #08080B",
"8@	c #000002",
"9@	c #4A4412",
"0@	c #EBE14D",
"a@	c #FEF21F",
"b@	c #FEF21C",
"c@	c #FDF016",
"d@	c #585221",
"e@	c #0C0801",
"f@	c #050408",
"g@	c #19170A",
"h@	c #59562F",
"i@	c #605B24",
"j@	c #766F20",
"k@	c #EEE447",
"l@	c #FBF02F",
"m@	c #FEF108",
"n@	c #FEF21B",
"o@	c #FCF00F",
"p@	c #FDF00C",
"q@	c #FDF00B",
"r@	c #FEF106",
"s@	c #6B641E",
"t@	c #413C0F",
"u@	c #3E3A18",
"v@	c #16110D",
"w@	c #0A0612",
"x@	c #050302",
"y@	c #494423",
"z@	c #DFD77B",
"A@	c #F2E74A",
"B@	c #FAEF36",
"C@	c #FCF016",
"D@	c #FDF00D",
"E@	c #FEF105",
"F@	c #FCF00D",
"G@	c #EBE040",
"H@	c #E8DE4F",
"I@	c #DBD36B",
"J@	c #524E23",
"K@	c #080511",
"L@	c #04040B",
"M@	c #0B0801",
"N@	c #4C461C",
"O@	c #EADE68",
"P@	c #F8ED44",
"Q@	c #FDF012",
"R@	c #FBEF36",
"S@	c #EDE358",
"T@	c #56501B",
"U@	c #0A050C",
"V@	c #0F0F11",
"W@	c #020104",
"X@	c #4C471C",
"Y@	c #EADE66",
"Z@	c #F9ED42",
"`@	c #FCF030",
" #	c #F0E254",
".#	c #564F19",
"+#	c #0A0B11",
"@#	c #040202",
"##	c #4D471C",
"$#	c #FEF107",
"%#	c #EFE34F",
"&#	c #544F17",
"*#	c #0A0402",
"=#	c #020102",
"-#	c #0B0501",
";#	c #4D481C",
">#	c #EADF64",
",#	c #FDF014",
"'#	c #FCF015",
")#	c #EEE34E",
"!#	c #534E16",
"~#	c #080408",
"{#	c #4E481C",
"]#	c #F0E540",
"^#	c #EEE34C",
"/#	c #EFE448",
"(#	c #FCEF2B",
"_#	c #524D16",
":#	c #090401",
"<#	c #4E491D",
"[#	c #EADF63",
"}#	c #F9EE40",
"|#	c #EDE355",
"1#	c #6F681F",
"2#	c #524C14",
"3#	c #EFE24D",
"4#	c #514C15",
"5#	c #4F4A1D",
"6#	c #EAE063",
"7#	c #F7EA57",
"8#	c #E7DF73",
"9#	c #504C23",
"0#	c #181000",
"a#	c #EAE065",
"b#	c #FCEF2E",
"c#	c #EDE34E",
"d#	c #504A1D",
"e#	c #EAE064",
"f#	c #FCEF0F",
"g#	c #ECE255",
"h#	c #E9DD73",
"i#	c #4D4929",
"j#	c #080602",
"k#	c #4A4726",
"l#	c #DDD57B",
"m#	c #EBE161",
"n#	c #EFE44F",
"o#	c #F8EC43",
"p#	c #FAEF33",
"q#	c #FCEF0D",
"r#	c #FCF00E",
"s#	c #504B16",
"t#	c #010104",
"u#	c #070308",
"v#	c #514B1D",
"w#	c #EBE064",
"x#	c #FCEF10",
"y#	c #6C661D",
"z#	c #4D4822",
"A#	c #4A4628",
"B#	c #161409",
"C#	c #191507",
"D#	c #4B4826",
"E#	c #524D1D",
"F#	c #FCEF14",
"G#	c #4F4B17",
"H#	c #514C1E",
"I#	c #F9EE41",
"J#	c #EDE251",
"K#	c #040403",
"L#	c #0F0E08",
"M#	c #09090A",
"N#	c #070806",
"O#	c #0E0701",
"P#	c #534D1C",
"Q#	c #EBE160",
"R#	c #FDF121",
"S#	c #EDE24F",
"T#	c #4F4A15",
"U#	c #040308",
"V#	c #040309",
"W#	c #100801",
"X#	c #524C1E",
"Y#	c #FDF120",
"Z#	c #EFE43F",
"`#	c #ECE151",
" $	c #E0D56C",
".$	c #514B20",
"+$	c #0A0B06",
"@$	c #060806",
"#$	c #4D4926",
"$$	c #DED67B",
"%$	c #EBE164",
"&$	c #F1E548",
"*$	c #FAEE35",
"=$	c #FCEF30",
"-$	c #EFE153",
";$	c #4F4917",
">$	c #08040A",
",$	c #04030A",
"'$	c #534D1F",
")$	c #EBE066",
"!$	c #F9ED47",
"~$	c #69631D",
"{$	c #4F4914",
"]$	c #49431F",
"^$	c #19140E",
"/$	c #181509",
"($	c #524D28",
"_$	c #544F20",
":$	c #736C1F",
"<$	c #FCEF2F",
"[$	c #ECE153",
"}$	c #4E4816",
"|$	c #060807",
"1$	c #534D26",
"2$	c #EADE76",
"3$	c #F7EA5A",
"4$	c #F9ED40",
"5$	c #F5EA5D",
"6$	c #E8DD75",
"7$	c #4C4621",
"8$	c #0D0601",
"9$	c #050409",
"0$	c #0B0613",
"a$	c #140A17",
"b$	c #080505",
"c$	c #150A15",
"d$	c #544D21",
"e$	c #ECE066",
"f$	c #F9ED43",
"g$	c #EAE05E",
"h$	c #4C4719",
"i$	c #040404",
"j$	c #4E4A2A",
"k$	c #D8D082",
"l$	c #E5D971",
"m$	c #ECDE55",
"n$	c #EEE056",
"o$	c #E7DC74",
"p$	c #D8D089",
"q$	c #454228",
"r$	c #05030B",
"s$	c #090512",
"t$	c #05040B",
"u$	c #0E0F11",
"v$	c #060406",
"w$	c #4F4A28",
"x$	c #ECE260",
"y$	c #F1E44E",
"z$	c #F9EC42",
"A$	c #F9ED41",
"B$	c #F1E74C",
"C$	c #EEE460",
"D$	c #E0D776",
"E$	c #4A4621",
"F$	c #08090B",
"G$	c #060805",
"H$	c #171406",
"I$	c #423C1E",
"J$	c #413B19",
"K$	c #6B621B",
"L$	c #F2E640",
"M$	c #EFE340",
"N$	c #68601C",
"O$	c #4A4420",
"P$	c #454027",
"Q$	c #161107",
"R$	c #09090B",
"S$	c #09090F",
"T$	c #0A0A14",
"U$	c #030306",
"V$	c #030405",
"W$	c #18160B",
"X$	c #504C28",
"Y$	c #57511E",
"Z$	c #776F22",
"`$	c #F1E44D",
" %	c #FAEF37",
".%	c #EFE24C",
"+%	c #797223",
"@%	c #615C24",
"#%	c #5B572D",
"$%	c #1A180A",
"%%	c #080709",
"&%	c #050806",
"*%	c #100700",
"=%	c #575116",
"-%	c #F0E34C",
";%	c #FBEE35",
">%	c #EDE050",
",%	c #4C4613",
"'%	c #0C0501",
")%	c #060907",
"!%	c #05070E",
"~%	c #09080A",
"{%	c #0C0601",
"]%	c #130F01",
"^%	c #56511E",
"/%	c #EADF5D",
"(%	c #4B4618",
"_%	c #040604",
":%	c #050809",
"<%	c #040203",
"[%	c #575219",
"}%	c #EEE352",
"|%	c #F8ED3E",
"1%	c #EEE33F",
"2%	c #ECDF50",
"3%	c #48441D",
"4%	c #06050A",
"5%	c #09090D",
"6%	c #101015",
"7%	c #04050B",
"8%	c #040405",
"9%	c #131512",
"0%	c #06080F",
"a%	c #504D29",
"b%	c #E0D87B",
"c%	c #ECE360",
"d%	c #F1E649",
"e%	c #FAEF35",
"f%	c #E9DE63",
"g%	c #050708",
"h%	c #090408",
"i%	c #59521A",
"j%	c #EEE354",
"k%	c #675E1B",
"l%	c #4B4412",
"m%	c #15130F",
"n%	c #040311",
"o%	c #0B0C09",
"p%	c #040509",
"q%	c #08090E",
"r%	c #1C1B0B",
"s%	c #524E2A",
"t%	c #58531F",
"u%	c #787121",
"v%	c #F2E647",
"w%	c #F7EC49",
"x%	c #48441B",
"y%	c #575220",
"z%	c #ECE262",
"A%	c #F7EA59",
"B%	c #E8DC6E",
"C%	c #4B441D",
"D%	c #100600",
"E%	c #050710",
"F%	c #020306",
"G%	c #010202",
"H%	c #020305",
"I%	c #040208",
"J%	c #ECE263",
"K%	c #FAEF32",
"L%	c #E4DB7A",
"M%	c #474221",
"N%	c #504C27",
"O%	c #DBD373",
"P%	c #E9DF54",
"Q%	c #F8EC3D",
"R%	c #EDDF57",
"S%	c #E6DB73",
"T%	c #D7CF82",
"U%	c #474023",
"V%	c #090A14",
"W%	c #524F2B",
"X%	c #E1D97B",
"Y%	c #EEE457",
"Z%	c #F2E54C",
"`%	c #F8EC46",
" &	c #EEE36A",
".&	c #DCD48A",
"+&	c #434026",
"@&	c #151105",
"#&	c #3C391B",
"$&	c #6B661D",
"%&	c #F1E642",
"&&	c #EEE240",
"*&	c #625B1A",
"=&	c #48411D",
"-&	c #474122",
";&	c #161104",
">&	c #0B0E10",
",&	c #1D1B0D",
"'&	c #5A562B",
")&	c #5B551C",
"!&	c #7B7325",
"~&	c #F0E552",
"{&	c #ECE14E",
"]&	c #716B2B",
"^&	c #575334",
"/&	c #090801",
"(&	c #59551B",
"_&	c #EFE553",
":&	c #FBEF38",
"<&	c #484212",
"[&	c #0D0600",
"}&	c #0C0D0A",
"|&	c #06080C",
"1&	c #090702",
"2&	c #5A5520",
"3&	c #EDE361",
"4&	c #F8ED47",
"5&	c #F8ED45",
"6&	c #484417",
"7&	c #0A0800",
"8&	c #090A0F",
"9&	c #534F25",
"0&	c #DDD56C",
"a&	c #E8DE54",
"b&	c #E9DE56",
"c&	c #DBD06B",
"d&	c #413C1B",
"e&	c #090511",
"f&	c #070906",
"g&	c #100E01",
"h&	c #53502F",
"i&	c #E1D983",
"j&	c #EDE368",
"k&	c #413F21",
"l&	c #05080F",
"m&	c #403D1A",
"n&	c #433E13",
"o&	c #464115",
"p&	c #403B1B",
"q&	c #0E0C08",
"r&	c #080910",
"s&	c #05070B",
"t&	c #04030B",
"u&	c #1E1B14",
"v&	c #565233",
"w&	c #5B5625",
"x&	c #5C5726",
"y&	c #55522F",
"z&	c #171710",
"A&	c #090802",
"B&	c #0A0A10",
"C&	c #0B0713",
"D&	c #0A0513",
"E&	c #030212",
"F&	c #030311",
"G&	c #030312",
"H&	c #040312",
"I&	c #030211",
"J&	c #020209",
"K&	c #000004",
"L&	c #01010F",
"M&	c #07040B",
"N&	c #05040C",
"O&	c #0D0B12",
"P&	c #08050C",
"Q&	c #020105",
"R&	c #010203",
"                                                                                                                  ",
"                                                                                                                  ",
"                        . + @ # + $ % & * = - ; > , ' ) ! ~ { ] ^ / ( _ : < [ } | [ 1 2 3 .                       ",
"                        4 } 5 6 7 8 9 0 a b c d e e f e g g h h h i j k l m n o p } 7 6 7                         ",
"                        . 7 q r s t u v w x y z A A B C D C C C E A F G H I J K L M 9 N O 7                       ",
"                        + 2 P Q R S T U V W X Y Z Z `  ...+.Z Z Z Z Y @.#.$.%.&.*.=.-.;.>..                       ",
"            .             ,.'.).!.~.{.].^./.(.Y Z +._.:.<.Z Z Z Z Z [.}.e |.1.2.2.3.4.5.p .                       ",
"            6.7.. 8.. 9.0.a.b.c.d.e.f.g.h.i.j.Z Z k.l.m.:.+.Z ` Z Z Z n.o.e.p.p.q.r.s.t.u.+ .         7 .         ",
"          . } v.w.x.y.z.A.B.C.D.E.F.Y Y Y [.Z Z Z _.m.G.H.k.+.Z Z Z Z Z Y n.n.n.I.J.K.L.M.N.  O.7 P.6 Q.R.+ .     ",
"          3 | | p 8.S.T.U.V.W.X.Y.[.Z Z D [.Z Z Z _.Z.`. +_.+.Z Z Z Z Z Z Z Z Z [.Y..+++@+#+  $++ } 3 %+7..       ",
"          3 | ;.&+*+=+-+;+>+,+[.[.Z Z Z [.Z Z Z Z _.l.'+)+:.+.Z Z Z !+!++.Z Z Z Z [.D ~+{+]+^+/+7 6 (+>.p .       ",
"        7 _+p :+<+[+}+|+1+2+Z ` Z ` Z Z Z Z Z Z Z k.H.3+4+5+_.+.Z +.6+:.k.+.Z Z Z Z [.}.7+8+9+0+N.a+b+y.Q.c+      ",
"        + @ p L d+e+f+g+h+Y Z Z Z Z Z Z Z Z ` ` Z +.k.:.i+j+_.+.Z k.k+5+_.+.Z Z Z Z [.i.l+m+n+o+p+q+y.5 r+}       ",
"          7 s+t+u+v+w+X x+[.Z Z Z Z Z ` Z Z Z Z Z Z +.k.<.+.+.y++._.z+A+_.+.Z Z Z Z Z Y i.B+C+D+E+F+G+6 3 + .     ",
"        . H+I+J+K+L+X M+Z ` +.k.+.Z Z Z Z Z Z Z Z Z Z Z Z Z y++.+.k.N+j+_.+.Z Z Z Z Z Z [.Y O+P+Q+R+S+T+7 .       ",
"7   7 7 U+V+W+X+Y+Z+n.Z Z .._._.+...+.Z Z Z Z Z Z Z Z Z Z Z Z Z y++._.`++.Z Z Z Z Z Z Z Z Z [. @.@+@@@#@$@s       ",
"%@7 2 &@*@=@-@;@Y [.Z Z Z <.N+>@:. .Z Z Z Z Z Z Z Z ` Z Z Z Z Z Z Z Z Z Z Z Z Z Z Z Z Z Z Z Z [.F ,@'@)@!@~@      ",
"3 7 2 7 9 {@]@O+Z Z Z Z Z _.^@/@(@+.Z Z Z Z Z Z Z Z Z Z Z Z Z Z Z Z Z Z Z Z Z Z Z +.Z y+Z Z Z Z Y f._@:@/+<@[@  7 ",
"7 8.# 9.}@|@]@O+Z Z Z Z Z :./@1@H.+.Z Z Z Z Z Z Z Z Z Z Z Z Z Z Z Z Z +.k._._._.:.2@<.+.Z Z Z Z Y f.].S 3@4@3 p N ",
"5@6@7@8@0.9@0@D Z Z Z Z +.a@1@G.H.+.Z Z Z Z Z Z Z Z ` Z Z Z Z Z Z Z Z k.(@b@^@/@1@1@c@(@k.Z Z ` Y f.{.d@e@f@| | y.",
"7.7 g@h@i@j@k@l@Z Z Z Z +.:.1@m@n@_.+.Z Z Z Z Z Z Z Z Z Z Z Z Z Z Z Z _.b@o@p@q@r@r@G.A+<.Z Z ` [.B+^.s@t@u@v@w@7@",
"[ x@y@z@r.A@B@[.Z Z Z Z ..:.1@r@G.A+<.Z Z Z Z Z ` y+` Z Z Z ` Z Z Z ` _.C@D@r@r@E@E@F@b@k.Z Z Z Z E h+G@H@I@J@K@L@",
"7.M@N@O@P@l@[.Z Z Z Z Z +.:.1@r@D@b@_.Z Z Z Z Z Z ` ` ` Z Z ..Z Z Z Z _.>@1@r@E@E@r@Q@A+<.Z Z Z Z Z Y 2+R@S@T@U@V@",
"W@!@X@Y@Z@Y Z Z Z Z Z +.+.:.1@r@p@^@:.+.Z Z Z Z Z Z ` Z Z Z Z Z Z Z Z !+_.b@1@r@E@r@F@b@_.Z Z Z Z Z Z Z `@ #.#$ +#",
". @###Y@e.n.Z Z Z Z Z k.:.b@D@r@$#'+:.+.Z Z Z Z Z Z Z Z Z Z Z Z Z Z Z Z +.:.b@D@r@r@D@b@_.+.Z Z Z Z Z Z I.%#&#*#8.",
"=#-#;#>#e.n.Z Z Z Z Z _.A+,#$#E@r@D@(@+.Z Z Z Z Z Z Y n.I.2+[.Z Z Z ` ` Z _.A+G.r@r@p@'#:.+.Z Z Z Z Z Z I.)#!#& + ",
"& ~#{#>#f.n.Z Z Z Z Z _.A+'+r@E@E@m@b@<.+.Z Z Z Z n.X.]#^#/# @(#Z Z Z Z Z _.A+G.r@r@D@^@:.Z Z Z Z Z Z Z I.)#_#s 3 ",
":#& <#[#}#Y Z Z Z Z Z k.(@1@r@E@E@r@'+(@_.` Z Z n.X |#1#2#Q+3#C [.Z ` Z  ._.b@'+$#q@'+b@_.Z Z Z Z Z Z Z I.)#4#s 2 ",
"=#@#5#6#}#Y Z Z Z Z Z +.:.^@D@r@E@r@D@n@_.Z Z n.X 7#8#9#0#5#a#P@}.b#(#+._.>@^@Q@r@$#'+A+<.Z Z Z Z Z Z Z I.c#4#& + ",
"*@=+d#e#}#Y Z Z Z Z Z Z _.)+,#D@r@r@$#f#:.Z Y X.g#h#e+i#j#k#l#m#n#o#p#..(@'#q#p@r@r@r#A+k.Z Z Z Z Z Z Z D e s#=#t#",
"u#@#v#w#f.Y Z Z Z Z Z Z _.(@A+^@1@D@p@x#_.Z n.]#y#z#A#B#*+C#D#E#8+f }...A+F#1@G.G.G.F#(@+.Z Z Z Z Z Z Z D g G#7 6.",
"} x@H#w#I#Y Z Z Z Z Z Z !+k.<._.A+c@^@k+Z n.;@J#s#x@K#L#[@M#N#O#P#Q#l+[._.k+R#(@H.:.:._.Z Z Z Z Z Z Z Z D S#T#U#| ",
"V#W#X#w#f.Y Z Z Z Z Z Z Z Z Z +.k.:.Y#[. @Z#`# $.$+$7 7 7 @$# /+#$$$%$&$*$+.k.+.+.+.+.+.Z Z Z Z Z Z Z Z =$-$;$>$,$",
"| @#'$)$!$l@Z Z Z Z Z Z Z Z Z Z Z Z n.}#g#~${$]$^$%+3 7 5 @$# 5 /$($_$:$&$<$(#` Z Z Z Z Z Z Z Z Z Z ` (#O+[$}$N#|$",
"| & 1$2$3$4$E Z +.Z Z Z Z Z Z Z Z E 4$5$6$7$8$9$0$a$,$7 2 7 } } ~@b$c$d$e$f$(.j.[.Z Z Z Z Z Z Z Z [.,+Y.I#g$h$i$N ",
"p K#j$k$l$m$X.(#..` Z Z Z Z Z Z ,+h+n$o$p$q$N#8.| r$} . 7 7.s$t$u$|$v$w$z@x$y$z$p#[.Z Z Z Z Z Z [.p#A$B$C$D$E$9 6 ",
"F$G$H$I$J$K$L$j.Z Z ` Z Z Z ` Z j.M$N$O$P$Q$R$S$} 7 %@3 3 w.T$U$# V$6@W$X$Y$Z$`$}.(#Z Z Z ` Z Z [. %.%+%@%#%$%%%} ",
"&%7 ,.*%u =%-%b#Z Z ` Z Z [.,+b#;%>%,%'%9 c+3 }     7 . L@@ U$)%8.!%V$~%{%]%^%x$I#l@[.Z Z Z Z Z n.g./%(%0 _%7 L@3 ",
":%7 2 s <%[%}%<$Z Z ` Z [.Y.|%1%2%I@3%4%5%6%L@+ . . . } v.7%8%9%R$} 7.0%# 9 a%b%c%d%e%[.Z Z Z Z n.!$f%$.M@~@L@6%8.",
"g%7 + 9.h%i%j%O+Z Z ` ` F.4$n$k%l%V+m%n%| 8.. . + 3 + O.6 o%5@p%7 } q%8.5 $+r%s%t%u%v%2+[.[.Z Z F.w%2.x%K#1 3 y.  ",
"        =#y%z%I#F.Z ` E A$A%B%C%D%% n%E%F%      . . . G%  7 + .     7   7 H%o V#I%S J%}#e%K%[.,+R@d.L%M%*+7 .     ",
"          N%O%P%X.[.,+Q%R%S%T%U%x@} L@w.V%}                 .           } v.H%} | W%X%Y%Z%Z@p#Y.`% &.&+&3@        ",
"        =#@&#&$&%&Y b#&&*&=&-&;&7 # >&p L@.                           . 3 L@3 L@V%,&'&)&!&~&h.B+{&]&^&$%/&=#      ",
"          % 7 (&_&R@:&]@<&[&[&*@O.6 }&H%v.3                             7.K@| >.|&% 1&e@2&3&4&5&++6&7&3@s         ",
"        } 8&>.9&0&a&b&c&d&9 } + 7 . 3 } | 3                               W@. } L@e&f&g&h&i&D+j&@+k&K#O.s         ",
"        7 _+l&P m&n&o&p&q&r&p s&+ } | 3 + .                               . 3 3 | t&H%9$u&v&w&x&y&z&5 ~@A&=#      ",
"        . 3 7.>.8.B&C&D&E&F&[ 3 7.| | 3 t#                                . + t#} | E%G&H&I&J&K&L&| } 7 *+        ",
"        . 3 | v.+ } | | 3 t#| 3 | v.>.(++                                   . 3 + } M&N&O&P&7@+ Q&3 >.q%7         ",
"          . + .           . + t#+ R&. R&.                                   . + .   9.. % 7 7 .   . . }           ",
"                                                                              .                                   ",
"                                                                                                                  ",
"                                                                                                                  ",
"                                                                                                                  ",
"                                                                                                                  ",
"                                                                                                                  ",
"                                                                                                                  ",
"                                                                                                                  ",
"                                                                                                                  ",
"                                                                                                                  "};
