/* XPM */
static char *_4d287f158614a52ff8a045edfee26c9purbY7W5rAK6StlD[] = {
/* columns rows colors chars-per-pixel */
"57 59 133 2 ",
"   c #010101",
".  c #090405",
"X  c #050905",
"o  c #02020B",
"O  c #0E030B",
"+  c #070908",
"@  c #0A0A0A",
"#  c #160B0C",
"$  c #010114",
"%  c #0E0216",
"&  c #0C0B14",
"*  c #01011A",
"=  c gray7",
"-  c #000022",
";  c #070827",
":  c #0C0D22",
">  c #00012D",
",  c #090F2F",
"<  c #15122F",
"1  c #000033",
"2  c #0B0D36",
"3  c #000039",
"4  c #0D1133",
"5  c #101336",
"6  c #000045",
"7  c #080A43",
"8  c #00004D",
"9  c #090D4C",
"0  c #0F1046",
"q  c #161944",
"w  c #14134F",
"e  c #000052",
"r  c #00005B",
"t  c #03095D",
"y  c #000264",
"u  c #00016B",
"i  c #03096B",
"p  c #000072",
"a  c #00007C",
"s  c #1E2377",
"d  c #1D2379",
"f  c #0D128A",
"g  c #191F97",
"h  c #171F9C",
"j  c #191F99",
"k  c #1D2087",
"l  c #1B218A",
"z  c #172099",
"x  c #1A209A",
"c  c #171DA7",
"v  c #191CA7",
"b  c #151EA9",
"n  c #181EA8",
"m  c #141DB3",
"M  c #121CBC",
"N  c #0F1BC5",
"B  c #0F1BC9",
"V  c #101BC3",
"C  c #101AC9",
"Z  c #0F1AD6",
"A  c #0E19D5",
"S  c #0F19D0",
"D  c #0D17DB",
"F  c #0B17DD",
"G  c #0D17D9",
"H  c #0B18D8",
"J  c #0C19D9",
"K  c #0C19DA",
"L  c #0B19DC",
"P  c #0B19DE",
"I  c #0C18DC",
"U  c #0E18DC",
"Y  c #0D18DB",
"T  c #0C17E2",
"R  c #0B17E5",
"E  c #0B17E7",
"W  c #0B18E2",
"Q  c #0B18E3",
"!  c #0C18E0",
"~  c #0D19E1",
"^  c #0C19E3",
"/  c #0918E5",
"(  c #0917E9",
")  c #0A16E8",
"_  c #0B17E9",
"`  c #0816EB",
"'  c #0917EC",
"]  c #0916EE",
"[  c #0817EE",
"{  c #0A18ED",
"}  c #0616F2",
"|  c #0717F3",
" . c #0615F4",
".. c #0715F4",
"X. c #0716F5",
"o. c #0716F7",
"O. c #0916F0",
"+. c #0816F1",
"@. c #0814F2",
"#. c #0915F3",
"$. c #0816F3",
"%. c #0814F4",
"&. c #0915F5",
"*. c #0917F4",
"=. c #0816F5",
"-. c #0815F7",
";. c #0817F6",
":. c #0917F6",
">. c #E9F3FF",
",. c #EAF2FF",
"<. c #EDF3FF",
"1. c #EBF4FF",
"2. c #EDF4FF",
"3. c #EEF6FF",
"4. c #F0F5FF",
"5. c #F0F6FF",
"6. c #F1F7FF",
"7. c #F2F7FF",
"8. c #F4F7FF",
"9. c #F1F8FF",
"0. c #F2F8FF",
"q. c #F4F8FF",
"w. c #F5F8FF",
"e. c #F4F9FF",
"r. c #F7F9FF",
"t. c #F7FAFF",
"y. c #FAFBFF",
"u. c #FBFCFF",
"i. c #FFFFFD",
"p. c #FCFCFF",
"a. c #FEFEFE",
"s. c #FFFEFF",
"d. c white",
/* pixels */
"              X   +   +   X   +       1 V o.=.=.=.=.=.=.=.=.$.$.=.=.=.=.=.V 3       +   X                         ",
"          +   X           + $ * * * * 6 B o.=.=.=.=.=.=.=.=.$.$.=.=.=.=.=.C 6 * * * * $ +               +         ",
"              +   + =   + $ 3 8 t e 8 p Z =.=.=.=.=.=.=.=.=.=.=.=.=.=.=.=.Z p 8 e t 8 3 $ +                       ",
"          + X             5 l b b b b M W =.=.=.=.=.=.=.=.=.=.=.=.o.=.=.=.T M b b b b l 4               +         ",
"                + @ +     > m I I I I W ] =.o.=.=.=.=.=.=.=.=.=.$.$.=.o.=.] T I I I I m >         + X             ",
"            X + X o $ 5 > r S =.=.=.=.=.=.=.=.=.=.=.=.=.=.=.=.=.$.$.=.o.=.=.=.=.=.=.=.S r > 5 $ o X X X           ",
"          X       * 9 l m S _ =.=.=.=.=.=.o.=.=.=.=.=.=.=.=.=.=.o.=.=.=.o.=.=.=.=.=.=._ S m l 9 *       X         ",
"            X     * 8 b I =.=.=.=.=.=.=.=.=.=.=.=.=.=.=.=.=.=.=.=.=.=.=.=.=.=.=.=.=.=.=.=.I b 8 *     X           ",
"                + * 8 b I =.=.=.=.=.=.=.o.o.$.$.=.=.=.=.=.=.=.=.=.=.=.=.=.=.=.=.=.=.=.=.=.I b 8 * +               ",
"                  * e b I =.=.=.=.=.=.=.o.o.$.$.=.=.=.=.=.=.=.=.=.=.=.=.=.=.=.=.=.=.=.=.=.I b e *       X         ",
"              =   * 8 b I =.=.=.=.=.=.=.=.=.=.=.=.=.$.$.=.=.=.=.=.=.o.o.=.=.=.=.=.=.=.=.=.G b 8 *   =             ",
"              o > 6 p M ^ =.=.=.=.=.=.=.=.=.=.=.=.=.$.$.=.=.=.=.=.=.o.o.=.=.=.=.=.=.=.=.=.T M p 6 > o             ",
"              - h B Z W ] =.=.=.=.=.=.=.=.=.=.=.=.=.=.=.=.=.$.$.$.$.=.=.=.$.=.=.=.=.=.=.=.] T Z C h q + X         ",
"              1 V o.=.=.=.=.=.=.=.=.=.=.=.=.=.=.=.=.=.=.=.=.$.$.$.$.=.=.$.$.=.=.=.=.=.=.=.=.=.=.=.V 1             ",
"              1 V =.=.=.=.=.=.=.=.=.=.=.=.=.=.=.o.o.=.=.=.=.=.=.=.=.=.=.=.=.=.=.=.=.=.=.=.=.=.=.=.V 3 X           ",
"              1 V =.=.=.o.=.=.=.=.=.=.=.=.=.=.=.=.o.=.=.=.=.=.=.=.=.=.=.=.=.=.=.=.=.=.=.o.=.=.=.=.V 1             ",
"              1 V =.=.=.=.=.=.=.=.=.=.=.o.o.=.=.=.=.=.=.=.=.=.=.=.=.=.=.=.=.=.=.=.=.=.=.o.o.=.=.=.V 1             ",
"          + + 1 V =.=.=.=.=.=.=.=.=.=.=.=.=.=.=.=.=.=.=.=.=.=.=.=.=.=.=.=.=.=.=.=.=.=.=.o.o.=.=.=.V 1 + +         ",
"              1 V =.=.=.=.o.=.=.=.=.=.=.=.=.=.=.=.=.o.o.=.=.=.=.=.=.=.=.=.=.=.=.=.=.o.=.o.=.=.=.o.V 1             ",
"        o * $ 6 C =.=.=.o.o.=.$.] E ^ I I I I I I W ] o.=.=.=.] W I I I I L I ^ E ] $.=.=.=.=.=.=.C 6 $ * o       ",
"      o * > 6 f Z =.=.=.o.o.=.] J N m b b b b b b M W o.=.=.=.W M b b b b b b m N J ] =.=.=.=.=.=.Z f 6 1 * o     ",
"      $ > d j M W =.=.=.o.o.=.E N >.6.6.6.6.6.6.9.1.Z o.=.=.=.Z 1.9.6.6.6.6.6.6.>.V E =.=.=.=.=.=.T M j d > $     ",
"      $ 6 z V W ] =.=.=.=.=.=.^ m 3.t.y.u.u.u.u.u.9.N $.=.=.=.B 9.u.u.u.u.u.u.t.3.m ^ =.=.=.=.=.=.] T V z 6 $     ",
"      * 8 b I =.=.=.=.=.=.=.=.I b 6.u.d.d.d.d.d.d.t.V $.=.=.=.V t.d.d.d.d.d.d.u.6.b I =.=.=.=.=.=.=.=.I b 8 *     ",
". . + * 8 b I =.=.=.=.=.=.=.=.I b 6.u.d.d.d.d.d.d.t.V =.=.=.=.V t.d.d.d.d.d.d.u.6.b I =.=.=.=.=.$.$.=.I b 8 *     ",
". . X * 8 b I =.=.=.=.=.=.=.=.I b 6.u.d.d.d.d.d.d.t.V =.=.=.o.V t.d.d.d.d.d.d.u.6.b I =.=.=.=.=.$.$.=.I b 8 *     ",
"      * 8 b I =.=.=.=.=.=.=.o.L b 6.u.d.d.d.d.d.d.t.V =.=.o.=.V t.d.d.d.d.d.d.u.6.b I o.=.=.=.=.=.=.=.I b 8 *     ",
"      * 8 n I =.=.=.=.=.=.=.o.L b 6.u.d.d.d.d.d.d.t.V =.=.=.=.V t.d.d.d.d.d.d.u.6.b I =.=.=.=.=.=.=.=.I b 8 *     ",
"      * 8 c I =.=.=.=.=.=.=.=.I b 6.u.d.d.d.d.d.d.t.V =.=.=.=.V t.d.d.d.d.d.d.u.6.b I =.=.=.=.=.=.=.=.I b 8 *     ",
"      * e b I =.=.=.=.=.=.=.=.W M 1.9.t.t.t.t.t.t.6.S =.=.=.=.S 6.t.t.t.t.t.t.8.3.M W =.=.=.=.=.=.=.=.I b 8 *     ",
"      * 8 b I =.=.=.=.=.=.=.=.] W Z B V V V V V V S _ =.$.$.=._ S V V V V V V B Z W ] =.=.=.=.=.=.=.o.L b 8 *     ",
"    $ 1 r m ^ =.=.=.=.=.=.=.=.=.=.=.=.=.=.=.=.=.=.=.=.=.$.$.=.=.=.=.$.$.$.$.o.o.=.=.=.=.=.=.=.=.=.=.o.L m r 1 $ o ",
"  $ 3 r a V E =.=.=.| | =.=.=.=.=.=.=.=.=.=.=.=.=.=.=.=.=.=.o.o.=.=.o.=.=.=.=.=.=.=.=.=.o.o.=.=.=.=.o./ N a r 3 : ",
"  - l m V H { =.=.=.| | =.] W I I I I W ] =.=.=.=.] W I I I I W ] =.=.=.=.] W I I I I W ] o.=.=.=.=.o.] H V m l - ",
"  > m ^ E ] $.=.=.=.=.=.=.W M b b b b M W =.=.=.=.W M b b b b M W =.=.=.=.W M b b b b M W =.=.=.o.o.=.$.] E ^ m > ",
"  1 V =.=.=.=.=.=.=.=.=.=.Z 3.6.6.6.6.1.Z =.=.=.=.Z <.6.6.6.6.<.Z =.=.=.=.Z <.6.6.6.6.<.Z =.=.=.o.o.=.=.=.=.=.V 7 ",
"X 1 N o.=.=.=.=.=.=.=.=.=.C 8.d.u.u.u.9.B =.o.o.=.B 8.u.y.u.u.9.C =.=.=.=.B 8.u.u.u.u.9.C =.=.=.=.=.=.=.=.=.=.V 1 ",
"@ 3 V o.=.=.=.=.=.] W I I m t.u.u.u.u.t.m I I I I m t.u.u.u.u.t.m I I I I m t.u.u.u.u.t.m I I W ] o.=.=.=.=.=.V 1 ",
"  3 V =.=.=.=.=.=.W M b b h 6.6.6.6.6.6.h b b b b h 6.6.6.6.6.6.h b b b b h 6.6.6.6.6.6.h b b M W =.=.=.=.=.=.V 1 ",
"  1 V =.=.=.=.=.=.Z <.6.6.6.h b b b b h 6.6.6.6.6.6.h b b b b h 6.6.6.6.9.6.h b b b b h 6.6.6.<.Z =.=.=.o.=.=.V 1 ",
"  1 V =.$.$.=.=.=.B 8.u.u.t.m J I I I m t.u.u.u.u.t.m I I I I m t.u.u.u.u.t.m I I I I m t.u.u.9.C =.=.=.=.=.=.V 3 ",
"X 1 N =.$.=.=.=.=.B 8.u.u.9.N $.=.=.=.B 9.u.u.u.u.9.B =.=.=.=.B 9.u.u.u.u.9.C =.=.=.=.B 9.u.u.9.C =.=.=.=.=.=.V 3 ",
"  1 V =.=.=.=.=.=.Z <.6.9.1.Z =.$.$.=.Z 1.6.6.6.6.1.Z =.=.=.o.Z 1.6.6.6.6.1.Z =.=.=.=.Z 1.6.6.<.Z =.=.=.$.$.=.V 1 ",
"  1 V =.=.=.=.=.=.W M b b M W =.$.$.=.W M b b b b M W =.=.=.o.W M b b b b M W =.=.=.=.W M b b M W =.=.=.$.$.=.V 1 ",
"X 1 V o.=.=.=.=.=.] W I I W ] $.=.=.=.] W I I I I W ] $.=.=.=.] W I I I I W $.=.=.=.=.] W I I W $.=.=.=.=.=.=.V 1 ",
"  1 V =.=.=.=.=.=.=.o.o.=.=.=.$.=.=.=.=.=.=.o.=.=.=.$.$.=.=.=.=.=.=.o.o.=.=.=.=.=.=.=.=.=.=.o.=.=.=.=.=.=.=.=.V 1 ",
"X 1 V =.=.=.=.=.=.=.=.=.=.=.=.=.=.=.=.=.=.=.=.=.=.=.=.=.=.=.o.=.=.=.=.=.=.=.=.=.=.=.=.=.=.=.=.=.=.=.=.=.=.=.=.V 1 ",
"  - h B Z W ] =.=.=.=.=.=.=.=.=.=.=.=.=.=.=.=.=.=.=.=.=.=.=.=.=.=.=.=.=.=.=.o.=.=.=.=.=.=.=.=.=.=.=.=.] W Z B h > ",
"  o - 6 u M W =.=.=.=.=.=.=.o.o.o.=.=.=.=.=.=.=.=.=.=.=.o.o.=.=.=.=.=.=.=.=.=.=.=.=.=.=.=.=.=.=.=.=.o.W M u 6 - o ",
"      * 8 b I =.=.=.=.=.=.=.o.$.] E I W ] =.=.=.=.=.=.=.o.o.=.=.=.=.=.=.=.] W F E ] $.=.=.o.=.=.=.=.o.L b 8 *     ",
"      * 8 b I =.o.=.$.$.=.=.=.] J V m M W =.$.$.o.o.=.=.=.=.=.=.=.=.=.=.=.W M m V J _ =.=.=.=.=.=.=.=.I b 8 *     ",
"      * 8 b I =.=.=.$.$.=.=.=.E V a r u Z =.$.$.o.o.=.=.=.=.=.=.=.=.=.o.=.Z u r a V E =.=.=.=.=.=.=.=.I b 8 *     ",
"      * 8 b I =.=.=.=.o.o.o.=.^ m u 1 8 C =.=.=.=.=.=.=.=.=.=.=.=.=.=.=.=.B 8 1 u m ^ =.=.o.=.=.=.=.=.I b 8 *     ",
"      $ 3 l m S _ =.o.o.o._ S m l 3 $ 2 h C Z W ] =.=.=.=.=.=.=.=.] W Z C h 2 $ 3 l m S _ =.=.=.=._ S m l 3 $     ",
"      o $ - > i S =.=.=.=.S y 1 - * & o - 6 p M W =.=.=.$.$.=.=.o.W M p 6 - o & * - 1 y S =.=.=.=.S i > - $ o     ",
"          @   > m I J I G b >           X $ 6 j V J I J J J J J J V x 6 $ X           > b J I I I m >   @         ",
"            @ - l b b b v k 4 X X . X   + $ 3 s j c b c c c c n c g d 3 $ +   X . X X , k v b b b l - @           ",
"            + $ 9 e 8 8 8 w $ + . .   @   & * 0 6 8 e e 8 8 e e 8 6 0 * &   @     . + $ w 8 8 8 e 9 $ +           ",
"            + + $ * * < $ % O # # . . X . @ $ * ; - - - - - - - - ; * $ &   X . . # # O % $ < * * $ + +           "
};
