/* XPM */
static char *_2c978fe58344b27b9ce59eb60f0d4e03bBsmVbmhdwrMLqw[] = {
/* columns rows colors chars-per-pixel */
"57 59 231 2 ",
"   c black",
".  c #010000",
"X  c #000100",
"o  c #010100",
"O  c #010101",
"+  c #020100",
"@  c #020001",
"#  c #000200",
"$  c #010200",
"%  c #000201",
"&  c #020200",
"*  c #030200",
"=  c #030301",
"-  c #000002",
";  c #010103",
":  c #030102",
">  c #010302",
",  c #020202",
"<  c gray1",
"1  c #040000",
"2  c #050000",
"3  c #040001",
"4  c #060000",
"5  c #070000",
"6  c #050102",
"7  c #040003",
"8  c #040203",
"9  c #060203",
"0  c #020401",
"q  c #050503",
"w  c #060503",
"e  c #040603",
"r  c #030104",
"t  c #020204",
"y  c #060105",
"u  c #050304",
"i  c #040205",
"p  c #070304",
"a  c #060006",
"s  c #070206",
"d  c #040404",
"f  c gray2",
"g  c #060604",
"h  c #070604",
"j  c #050706",
"k  c #060606",
"l  c #070707",
"z  c #080202",
"x  c #0F0303",
"c  c #080403",
"v  c #0C0402",
"b  c #080206",
"n  c #0C0304",
"m  c #080405",
"M  c #090506",
"N  c #080607",
"B  c #0A0607",
"V  c #020804",
"C  c #060805",
"Z  c #070906",
"A  c #060807",
"S  c #080806",
"D  c #090907",
"F  c #010008",
"G  c #020008",
"H  c #030009",
"J  c #03020A",
"K  c #07060C",
"L  c #07060E",
"P  c #070908",
"I  c gray3",
"U  c #090909",
"Y  c #08080A",
"T  c #0B090A",
"R  c #090B0A",
"E  c gray4",
"W  c #0B0B0B",
"Q  c #0C0809",
"!  c #0D0D0B",
"~  c #0B0B0D",
"^  c #0A090E",
"/  c #0B090E",
"(  c #0C0C0C",
")  c gray5",
"_  c #0E0E0C",
"`  c #0E0E0E",
"'  c gray6",
"]  c #110303",
"[  c #100503",
"{  c #100404",
"}  c #140A09",
"|  c #140A0B",
" . c #170B0B",
".. c #160A0C",
"X. c #0D130F",
"o. c #0B0A12",
"O. c #101010",
"+. c #111111",
"@. c #131112",
"#. c gray7",
"$. c #131313",
"%. c gray8",
"&. c #151515",
"*. c #161616",
"=. c #191514",
"-. c #1E1916",
";. c #171518",
":. c #161618",
">. c #1D1D1D",
",. c #1E1E1E",
"<. c #B71F1E",
"1. c #BE1C1A",
"2. c #BE1B1C",
"3. c #B81E1E",
"4. c #BC1C1C",
"5. c #BF1C1D",
"6. c #B8201F",
"7. c #B71E20",
"8. c #B81D21",
"9. c #B81E20",
"0. c #B81F21",
"q. c #B91F21",
"w. c #BA1F23",
"e. c #9B2928",
"r. c #9C2A29",
"t. c #9D292A",
"y. c #9C2A2A",
"u. c #9D2B2A",
"i. c #8F2F30",
"p. c #AB2323",
"a. c #AE2221",
"s. c #AD2323",
"d. c #AA2423",
"f. c #AB2325",
"g. c #AA2425",
"h. c #B92023",
"j. c #CD1515",
"k. c #CE1415",
"l. c #CD1517",
"z. c #CA1619",
"x. c #C21A19",
"c. c #C3191A",
"v. c #C21A1A",
"b. c #C41A1B",
"n. c #D01413",
"m. c #D11315",
"M. c #E10B0B",
"N. c #E20A0B",
"B. c #E20C0A",
"V. c #E30C0A",
"C. c #E30B0C",
"Z. c #E30B0E",
"A. c #E20C0C",
"S. c #E20C0E",
"D. c #E40C0D",
"F. c #E40C0F",
"G. c #F70102",
"H. c #F70303",
"J. c #F70104",
"K. c #F70305",
"L. c #F50206",
"P. c #F90102",
"I. c #F80302",
"U. c #F80203",
"Y. c #FA0202",
"T. c #FA0203",
"R. c #F90304",
"E. c #F80205",
"W. c #F90306",
"Q. c #C43D41",
"!. c #FFDFDF",
"~. c #FFE2E3",
"^. c #FFE4E3",
"/. c #FFE3E4",
"(. c #FFE3E6",
"). c #FFE7E6",
"_. c #FFE3E8",
"`. c #FFE6E8",
"'. c #FFE7E8",
"]. c #FFE8E8",
"[. c #FFEBEA",
"{. c #FFEAEC",
"}. c #FFECED",
"|. c #FFEDED",
" X c #FFEEED",
".X c #FFEFED",
"XX c #FFEDEF",
"oX c #FFEEEE",
"OX c #FFEFEF",
"+X c #FFF0EF",
"@X c gray97",
"#X c #FFF1F1",
"$X c #FFF2F3",
"%X c #FFF4F3",
"&X c #FFF3F4",
"*X c #F8F6F7",
"=X c #FFF5F4",
"-X c #FFF5F5",
";X c #FFF6F4",
":X c #FFF5F6",
">X c #FFF6F6",
",X c #FFF7F6",
"<X c #FFF8F7",
"1X c #FFF6F8",
"2X c #FFF7F8",
"3X c #F9F9F9",
"4X c gray98",
"5X c #FBFBFB",
"6X c #FFF8F8",
"7X c #FFF9F8",
"8X c #FFF8F9",
"9X c #FFF8FA",
"0X c #FFF9FA",
"qX c snow",
"wX c #FFFBFB",
"eX c #FFFDFB",
"rX c #FFFFFB",
"tX c #FFFBFC",
"yX c gray99",
"uX c #FDFDFD",
"iX c #FFFCFD",
"pX c #FEFEFC",
"aX c #FFFEFD",
"sX c #FEFFFD",
"dX c #FFFFFD",
"fX c #FDFFFE",
"gX c #FEFEFE",
"hX c #FEFEFF",
"jX c #FFFEFF",
"kX c #FEFFFF",
"lX c white",
/* pixels */
"O O O O O O O k O U O U O k O U O O O k lXlXlXlXlXlXlXlXlXlXlXlXlXlXlXlXlXlXk O O O U O k O U O U O k O O O O O O ",
"O O O O O U O k O O O O O k O O O O O O lXlXlXlXlXlXlXlXlXlXlXlXlXlXlXlXlXlXO O O O O O k O O O O O k O U O O O O ",
"O O O O O O O U O U *.O U O k O +.k O k lXlXlXlXlXlXlXlXlXlXlXlXlXlXlXlXlXlXk O k +.O O O U O *.U O U O O O O O O ",
"O O O O O U k O O O O O O *.lXlXlXlXlXlXlXlXlXlXlXlXlXlXlXlXlXlXlXlXlXlXlXlXlXlXlXlXlXlX*.O O O O O O k U O O O O ",
"O O O O O O O k U ) U O O O lXlXlXlXlXlXlXlXlXlXlXlXlXlXlXlXlXlXlXlXlXlXlXlXlXlXlXlXlXlXO O O U ) U k O O O O O O ",
"O O O O O O k k k O O *.O O lXlXlXlXlXlXlXlXlXlXlXlXlXlXlXlXlXlX4X4X4XlXlXlXlXlXlXlXlXlXO O *.O O k k k O O O O O ",
"O O O O O k O O O k +.lXlXlXlXlXlXlXlXlXlXlXlXlXlXlXlXlXlXlXlXlXlXlXlXlXlXlXlXlXlXlXlXlXlXlXlX+.k O O O k O O O O ",
"O O O O O O k O O O O lXlXlXlXlXlXlXlXlXlXlXlXlXlXlXlXlXlXlXlXlXlXlXlXlXlXlXlXlXlXlXlXlXlXlXlXO O O O k O O O O O ",
"O O O O O O O O O O O lXlXlXlXlXlXlXlXlXlXlXlXlXlXlXlXlXlXlXlXlXlXlXlXlXlXlXlXlXlXlXlXlXlXlXlXO O U O O O O O O O ",
"O O O O O O O O O O k lXlXlXlXlXlXlXlXlXlXlXlXlXlXlXlXlXlXlXlXlXlXlXlXlXlX4X4XlXlXlXlXlXlXlXlXk O O O O k O O O O ",
"O O O O O O O +.O O O lXlXlXlXlXlXlXlXlXlXlXlXlXlXlXlXlXlXlXlXlXlXlXlXlXlXlXlXlXlXlXlXlXlXlXlXO O O +.O O O O O O ",
"O O O O O O O O U O k lXlXlXlXlXlXlXlXlXlXlXlXlXlXlXlXlXlXlXlXlXlXlXlXlXlXlXlXlXlXlXlXlXlXlXlXk O U O O O O O O O ",
"O O O O O k U >.lXlXlXlXlXlXlXlXlXlXlX4XlXlXlXlXlXlXlXlXlXlXlXlXlXlXlXlXlXlXlXlXlXlXlXlXlXlXlXlXlXlX>.U k O O O O ",
"O O O O O O O O lXlXlXlXlXlXlXlXlXlXlXlXlXlXlXlXlXlXlXlXlXlXlXlXlXlXlXlXlXlXlXlXlXlXlXlXlXlXlXlXlXlXO O O O O O O ",
"O O O O O O k k lXlXlXlXlXlXlXlXlXlXlXlXlXlXlXlXlXlXlXlXlXlXlXlXlXlXlXlXlXlXlXlXlXlXlXlXlXlXlXlXlXlXk k O O O O O ",
"O O O O O O O O lXlXlXlXlXlXlXlXlXlXlXlXlXlXlXlXlXlXlXlXlXlXlXlXlXlXlXlXlXlXlXlXlXlXlXlXlXlXlXlXlXlXO O O O O O O ",
"O O O O O O O O lXlXlXlXlXlXlXlXlXlXlXlXlXlXlXlXlXlXlXlXlXlXlXlXlXlXlXlXlXlXlXlXlXlXlXlXlXlXlXlXlXlXO O O O O O O ",
"O O O O O U U O lXlXlXlXlXlXlXlXlXlXlXlXlXlXlXlXlXlXlXlXlXlXlXlXlXlXlXlXlXlXlXlXlXlXlXlXlXlXlXlXlXlXO U U O O O O ",
"O O O O O O O O lXlXlXlXlXlXlXlXlXlXlXlXlXlXlXlXlXlXlXlXlXlXlXlXlXlXlXlXlXlXlXlXlXlXlXlXlXlXlXlXlXlXO O O O O O O ",
"O O O O O N O O @XlXlXlXlXlXlXlX0X0X1X:X:X:X:X:X:X0XlXlXlXlXlXeX0X:X:X:X:X:X1X1X0X0XlXlXlXlXlXlXlXlXO O U O O O O ",
"O O O O O O k >.*XlXlXlXlXlXlX0X:XXX`./.^.^././.^.[.0XlXlXlXlX0X[.^././.^.^./.`.XX:X0XlXlXlXlXlXlX@X>.k O O O O O ",
"O O O O O lXlXlXlXlXlXlXlXlXlX0XXXi.f.9.3.3.9.9.3.u.&XlXlXlXlX%Xu.3.9.9.3.3.9.f.i.XX0XlXlXlXlXlXlXlXlXlXlXO O O O ",
"O O O O O lXlXlXlXlXlXlXlXlXlX:X).d.n.C.C.C.C.A.M.4.XXlXlXlXlXXX2.C.C.C.C.C.C.m.g.`.1XlXlXlXlXlXlXlXlXlXlXO O O O ",
"O O O O O lXlXlXlXlXlXlXlXlXlX:X^.<.C.U.U.U.U.U.H.j.XXlXlXlXlXXXj.U.U.U.U.U.U.C.9./.:XlXlXlXlXlXlXlXlXlXlXO O O O ",
"n z U O O lXlXlXlXlXlXlXlXlXlX:X/.9.F.U.U.U.U.U.E.j.XXlXlXlXlXXXj.U.U.U.L.E.U.C.9._.1XlXlXlXlXlXlXlXlXlXlXO O O O ",
"2 2 k t i lXlXlXlXlXlXlXlXlXlX:X/.h.C.U.U.U.U.U.E.j.XXlXlXlXlXXXj.H.U.U.E.E.U.A.9./.1XlXlXlXlXlXlXlXlXlXlXO O O O ",
"O O O O 2 lXlXlXlXlXlX4XlXlXlX:X/.7.C.U.U.U.U.U.U.j.XXlXlXlXlXXXj.U.U.U.U.U.U.A.9./.:XlXlXlX4XlXlXlXlXlXlXO O O O ",
"O O O O N lXlXlXlXlXlXlXlXlXlX:X^.<.C.U.U.U.U.U.U.j.XXlXlXlXlXXXj.L.U.U.E.U.U.A.3.^.:XlXlXlXlXlXlXlXlXlXlXO O O O ",
"O O O O O lXlXlXlXlXlXlXlXlXlX:X^.<.V.U.U.U.U.U.U.j.XXlXlXlXlXXXz.L.L.U.U.U.U.V.3.^.:XlXlXlXlXlXlXlXlXlXlXO O O O ",
"O O O k C lXlXlXlXlXlXlXlXlXlX0X[.u.1.j.j.j.j.j.j.a.$XlXlXlXlX$XQ.z.j.j.j.j.j.1.e.[.0XlXlXlXlXlXlXlXlXlXlXO O O O ",
"O O O O O lXlXlXlXlXlXlXlXlXlXlX0X%XXXXXXXXXXXXXXX$X0XlXlXlXlX0X$XXXXXXXXXXXXXXX%X0XlXlXlXlXlXlXlXlXlXlXlXO O O O ",
"O O O O O lXlXlXlXlXlXlXlXlXlXlXlXlXlXlXlXlXlXlXlXlXlXlXlXlXlXlXlXlXlXlXlXlXlXlXlXlXlXlXlXlXlXlXlXlXlXlXlXO O O O ",
"O O O O O lXlXlXlXlXlXlXlXlXlXlXlXlXlXlXlXlXlXlXlXlXlXlXlXlXlXlXlXlXlXlXlXlXlXlXlXlXlXlXlXlXlXlXlXlXlXlXlXO O O ) ",
"O O lXlXlXlXlXlXlXlXlXlXlXlX0X:X:X:X:X0XlXlXlXlXlXtX0X:X:X:X:X0XlXlXlXlXlXlX0X:X:X:X:X0XlXlXlXlXlXlXlXlXlXlXlXlXO ",
"O O lXlXlXlXlXlXlXlXlXlXlX0X{./.^.^./.{.0XlXlXlXlX0X{./.^.^./.{.0XlXlXlXlX0X{./.^.^./.{.0XlXlXlXlXlXlXlXlXlXlXlXO ",
"O O lXlXlXlXlXlXlXlXlXlXlX&Xu.9.3.3.9.u.&XlXlXlXlX&Xu.9.3.3.9.u.&XlXlXlXlX&Xu.3.3.3.9.u.&XlXlXlXlXlXlXlXlXlXlXlX+.",
"k O lXlXlXlXlXlXlXlXlXlXlXXX2.C.C.C.C.2.XXlXlXlXlXXX2.C.C.F.C.2.XXlXlXlXlX+X4.C.C.C.C.2.+XlXlXlXlXlXlXlXlXlXlXlXO ",
"~ k lXlXlXlXlXlXlXlX0X:X:X[.b.C.C.C.C.v.[.:X:X:X:X[.v.A.C.C.C.v.[.:X:X:X:X[.v.C.C.C.C.v.[.:X:X0XlXlXlXlXlXlXlXlXO ",
"i i lXlXlXlXlXlXlX0X{./.^.!.a.9.9.9.9.a.!.^././.^.!.a.7.3.3.9.a.!./.~./.^.!.a.3.3.3.9.a.!.^./.{.0XlXlXlXlXlXlXlXO ",
"b i lXlXlXlXlXlXlX&Xu.9.3.a.!././././.!.a.3.9.9.6.p.!./.^.^./.!.a.9.9.9.3.a.!.~.^.^./.!.a.3.9.u.&XlXlXlXlXlXlXlXO ",
"O O lXlXlXlXlXlXlXXX2.C.C.v.[.:X:X:X:X[.v.C.C.C.C.v.[.:X:X:X:X[.v.C.C.C.M.v.[.:X:X:X:X[.v.C.C.2.XXlXlXlXlXlXlXlXk ",
"e C lXlXlXlXlXlXlXXX2.C.C.2.XXlXlXlXlXXX2.C.C.C.M.2.XXlXlXlXlXXX2.C.C.C.C.2.XXlXlXlXlXXX2.C.C.2.XXlXlXlXlXlXlXlXU ",
"O O lXlXlXlXlXlXlX&Xu.9.3.u.&XlXlXlXlX%Xu.3.9.9.3.u.&XlXlXlXlX%Xu.3.9.9.3.u.$XlXlXlXlX%Xu.3.9.u.&XlXlXlXlXlXlXlXO ",
"O O lXlXlXlXlXlXlX0X{./.^.[.0XlXlXlXlX0X[.^././.^.[.0XlXlXlXlX0X[./././.^.[.0XlXlXlXlX0X[.^./.{.0XlXlXlXlXlXlXlXO ",
"C O lXlXlXlXlXlXlXlX0X:X:X0XlXlXlXlXlXlX0X:X:X:X:X0XlXlXlXlXlXlX0X:X:X:X:X<XlXlXlXlXlXlX0X:X:X0XlXlXlXlXlXlXlXlXO ",
"O O lXlXlXlXlXlXlXlXlXlXlXlXlXlXlXlXlXlXlXlXlXlXlXlXlXlXlXlXlXlXlXlXlXlXlXlXlXlXlXlXlXlXlXlXlXlXlXlXlXlXlXlXlXlXO ",
"k O lXlXlXlXlXlXlXlXlXlXlXlXlXlXlXlXlXlXlXlXlXlXlXlXlXlXlXlXlXlXlXlXlXlXlXlXlXlXlXlXlXlXlXlXlXlXlXlXlXlXlXlXlXlXO ",
"O O lXlXlXlXlXlXlXlXlXlXlXlXlXlXlXlXlXlXlXlXlXlXlXlXlXlXlXlXlXlXlXlXlXlXlXlXlXlXlXlXlXlXlXlXlXlXlXlXlXlXlXlXlXlXU ",
"O O O O O lXlXlXlXlXlXlXlXlXlXlXlXlXlXlXlXlXlXlXlXlXlXlXlXlXlXlXlXlXlXlXlXlXlXlXlXlXlXlXlXlXlXlXlXlXlXlXlXO O O O ",
"O O O O O lXlXlXlXlXlXlXlXlXlXlXlXlXlXlXlXlXlXlXlXlXlXlXlXlXlXlXlXlXlXlXlXlXlXlXlXlXlXlXlXlXlXlXlXlXlXlXlXO O O O ",
"O O O O O lXlXlXlXlXlXlXlXlXlXlXlXlXlXlXlXlXlXlXlXlXlXlXlXlXlXlXlXlXlXlXlXlXlXlXlXlXlXlXlXlXlXlXlXlXlXlXlXO O O O ",
"O O O O O lXlXlXlXlXlXlXlXlXlXlXlXO O O lXlXlXlXlXlXlXlXlXlXlXlXlXlXlXlXlXlXO O O lXlXlXlXlXlXlXlXlXlXlXlXO O O O ",
"O O O O O lXlXlXlXlXlXlXlXlXlXlXlX) O U lXlXlXlXlXlXlXlXlXlXlXlXlXlXlXlXlXlXU O ) lXlXlXlXlXlXlXlXlXlXlXlXO O O O ",
"O O O O O lXlXlXlXlXlXlXlXlXlXlXlXO O +.lXlXlXlXlXlXlXlXlXlXlXlXlXlXlXlXlXlX+.O O lXlXlXlXlXlXlXlXlXlXlXlXO O O O ",
"O O O O O O O +.lXlXlXlXlXlXU k O U ) O O O k lXlXlXlXlXlXlXlXlXlXlXlXk O O O ) U O k U lXlXlXlXlXlX+.O O O O O O ",
"O O O O O ) O O lXlXlXlXlXlXO O O O O O k O k lXlXlXlXlXlXlXlXlXlXlXlXO O k O O O O O O lXlXlXlXlXlXO O ) O O O O ",
"O O O O O O ) O lXlXlXlXlXeXX.V i N e O P O S lXlXlXlXlXlXlXlXlXlXlXlXS 0 C O e N O V X.lXlXlXlXlXlXO ) O O O O O ",
"O O O O O O U O +.U O e 2 -.O S c z O ) O U t ;.2 2 N Q i i Q N 2 t ;.O U O ! O i c C O -.2 e O U +.O U O O O O O ",
"O O O O O O U C O O O =.2 [ ]  . .v 2 k i ~ L F o.F F F F F F F F o.F L ~ 2 k 2 n  ...x { 2 =.O O O k U O O O O O "
};
