/* XPM */
static char *_277eb99ebc34f98ae291c84a6bea73bFAcNETyuUyvQ9ten[] = {
/* columns rows colors chars-per-pixel */
"57 59 145 2 ",
"   c #010101",
".  c #0C0306",
"X  c #080806",
"o  c #01010B",
"O  c #0B0B0B",
"+  c #10100E",
"@  c #000013",
"#  c #080613",
"$  c #0B0B13",
"%  c #00001A",
"&  c #110013",
"*  c #110F12",
"=  c #12011C",
"-  c #131313",
";  c #13131A",
":  c #181818",
">  c #010223",
",  c #0C0026",
"<  c #020822",
"1  c #0A0A24",
"2  c #00012D",
"3  c #0B032B",
"4  c #070A2D",
"5  c #130924",
"6  c #0A1121",
"7  c #000033",
"8  c #060933",
"9  c #0A0C34",
"0  c #01033A",
"q  c #0B0E3D",
"w  c #190633",
"e  c #0E1134",
"r  c #131639",
"t  c #000044",
"y  c #0D0F45",
"u  c #00004C",
"i  c #080C4C",
"p  c #111447",
"a  c #171A45",
"s  c #14164A",
"d  c #17184E",
"f  c #000051",
"g  c #00015B",
"h  c #030B59",
"j  c #181353",
"k  c #000061",
"l  c #00026B",
"z  c #000073",
"x  c #00037A",
"c  c #1E2379",
"v  c #000082",
"b  c #050B83",
"n  c #1E1F89",
"m  c #191F97",
"M  c #171F9C",
"N  c #191F99",
"B  c #1C218A",
"V  c #172099",
"C  c #19209D",
"Z  c #161EA7",
"A  c #191CA7",
"S  c #151EA9",
"D  c #1A1DAA",
"F  c #141DB3",
"G  c #121CBC",
"H  c #1120A7",
"J  c #0F1BC5",
"K  c #0F1BC9",
"L  c #101BC3",
"P  c #101ACA",
"I  c #0F1AD6",
"U  c #0E19D5",
"Y  c #0F19D2",
"T  c #0B17DB",
"R  c #0B17DB",
"E  c #0C19D9",
"W  c #0E18DA",
"Q  c #0B19DD",
"!  c #0C18DC",
"~  c #0D19DD",
"^  c #0E18DC",
"/  c #0D18DC",
"(  c #101AD1",
")  c #0A17E1",
"_  c #0C17E2",
"`  c #0B17E5",
"'  c #0B17E7",
"]  c #0C17E3",
"[  c #0B18E0",
"{  c #0B18E2",
"}  c #0B18E3",
"|  c #0C18E0",
" . c #0918E5",
".. c #0B18E2",
"X. c #0716ED",
"o. c #0A16E8",
"O. c #0B17E9",
"+. c #0917EC",
"@. c #0B16EC",
"#. c #0916EE",
"$. c #0817EE",
"%. c #0916ED",
"&. c #0715F4",
"*. c #0716F5",
"=. c #0716F7",
"-. c #0716F5",
";. c #0916F0",
":. c #0816F1",
">. c #0814F2",
",. c #0915F3",
"<. c #0816F3",
"1. c #0A17F2",
"2. c #0814F4",
"3. c #0915F5",
"4. c #0816F5",
"5. c #0815F7",
"6. c #0817F6",
"7. c #0917F6",
"8. c #0816F5",
"9. c #E9F3FF",
"0. c #EAF2FF",
"q. c #EDF3FF",
"w. c #EEF3FF",
"e. c #EBF4FF",
"r. c #EDF4FF",
"t. c #EEF6FF",
"y. c #F0F5FF",
"u. c #F0F6FF",
"i. c #F1F7FF",
"p. c #F2F7FF",
"a. c #F4F6FF",
"s. c #F4F7FF",
"d. c #F1F8FF",
"f. c #F2F8FF",
"g. c #F4F8FF",
"h. c #F4F9FF",
"j. c #F7F9FF",
"k. c #F7FAFF",
"l. c #FAFBFF",
"z. c #FCFBFF",
"x. c #FBFCFF",
"c. c #FFFFFD",
"v. c #FEFEFE",
"b. c #FFFEFF",
"n. c white",
/* pixels */
"            -             O     X     7 L =.4.4.4.4.4.4.4.4.<.<.4.4.4.4.=.L 7 X         X   X   X                 ",
"        O       X X -     o @ 1 < % % t K =.4.4.4.4.4.4.4.4.<.<.=.4.4.4.4.P t % % > 1 @ o                         ",
"            X X         - @ 0 u u f h l U 4.4.4.4.4.4.4.4.4.4.4.4.4.4.4.4.U b f u u u 0 @ X X X X                 ",
"          X         - -   r B S S S S G { 4.4.4.4.4.4.4.4.4.4.4.4.4.4.4.4._ G S S S S B > O         X X           ",
"          X     X X       2 F ! ! ! ! { #.4.4.4.4.4.4.4.4.4.4.4.<.<.4.=.4.#._ ! T ! ! F 2       O                 ",
"          X   X X   @ r 2 l Y 4.4.4.4.4.4.4.4.4.4.4.4.4.4.4.4.4.<.<.4.=.4.4.4.4.4.4.4.Y g 2 e @ o X               ",
"          X       @ i B F ( O.4.4.4.4.4.4.4.4.4.4.4.4.4.4.4.4.4.4.4.4.4.4.4.4.4.4.4.4.O.Y F B t @                 ",
"                X % u S ! 4.4.4.4.=.4.4.4.4.4.4.4.4.4.4.4.4.4.4.4.4.4.4.4.4.4.4.4.4.4.4.4.! S u % X               ",
"                  % u S ! 4.4.4.4.4.4.4.=.=.<.<.4.4.4.4.4.4.4.4.4.4.4.4.4.4.4.4.4.4.4.4.4.! S u %                 ",
"          X   O   % u S ! 4.4.4.4.4.4.4.=.=.<.<.4.4.4.4.4.4.4.4.4.4.4.4.4.4.4.4.4.4.4.4.4.! S u %                 ",
"          X       % u S ! 4.4.4.4.4.4.4.4.4.4.4.4.4.<.<.4.4.4.4.4.4.=.=.4.4.4.4.4.4.4.4.4.! S u %     X           ",
"          - O o 8 t x G { 4.4.4.4.4.4.4.4.4.4.4.4.4.<.<.4.4.4.4.4.4.=.=.4.4.4.4.4.4.4.4.4._ G z t 8 o X           ",
"        X     2 M K U ) #.4.4.4.4.4.4.4.4.4.4.4.4.4.4.4.4.4.<.<.<.<.4.4.4.<.4.4.4.4.4.4.4.#._ U P C q             ",
"            - 0 L =.4.4.4.=.4.4.4.4.4.4.4.4.4.4.4.4.4.4.4.4.<.<.<.<.4.4.<.<.4.4.4.4.4.4.4.4.4.4.4.L 7             ",
"        X     7 L 4.4.4.4.4.4.4.4.4.4.4.4.4.4.4.=.=.4.4.4.4.4.4.4.4.4.4.4.4.4.4.=.4.4.4.4.4.4.4.4.L 7 X           ",
"              0 L =.=.4.4.4.4.4.4.4.4.4.4.4.4.4.4.=.4.4.4.4.4.4.4.4.4.4.4.4.4.4.4.4.4.4.4.4.4.4.4.L 7             ",
"        O   X 7 L 4.4.4.4.4.4.4.4.4.4.4.=.=.4.4.4.4.4.4.4.4.4.4.4.4.4.4.4.4.4.4.4.4.4.4.=.=.4.4.4.L 7     X X X   ",
"            X 7 L 4.4.4.4.4.4.4.4.4.4.4.4.4.4.4.4.4.4.4.4.4.4.4.4.4.4.4.4.4.4.4.4.4.4.4.=.=.4.4.4.L 0 O           ",
"          X X y L 4.4.4.4.4.4.4.4.4.4.4.4.4.4.4.4.4.=.=.4.4.4.4.4.4.4.4.4.4.4.4.4.4.=.4.=.4.4.4.4.L 7   - O X X X ",
"        ; @ @ t P 4.4.4.4.4.4.<.#.' | ! ! ! ! ! ! { #.=.4.4.4.#.{ ! ! ! ! Q ! | ' #.<.4.4.4.4.4.4.P u @ @ o $     ",
"      o % 0 t x U 4.4.4.4.4.4.#.E J F S S S S S S G { =.4.4.4.{ G S S S S S S F J E #.4.4.4.4.4.4.U z t d % o     ",
"      @ 7 c N G _ 4.4.4.4.4.4.' J 9.i.i.i.i.i.i.d.e.U =.4.4.4.U e.d.i.i.i.i.i.i.9.L ' 4.4.4.4.4.4._ G N c p @   O ",
"      @ t V L _ #.4.4.4.4.4.4.| F t.k.l.x.x.x.x.x.d.J <.4.4.4.K d.x.x.x.x.x.x.k.t.F | 4.4.4.4.4.4.#._ L V u @   X ",
"      % u S ! 4.4.4.4.4.4.4.4.! S i.x.n.n.n.n.n.n.k.L <.4.4.4.L k.n.n.n.n.n.n.x.i.S ! 4.4.4.4.4.4.4.4.! S u % X   ",
"      % u S ! 4.4.4.4.4.4.4.4.! S i.x.n.n.n.n.n.n.k.L 4.4.4.4.L k.n.n.n.n.n.n.x.i.S ! 4.4.4.4.4.<.<.4.! S u %     ",
"      % u S ! 4.4.4.4.4.4.4.4.! S i.x.n.n.n.n.n.n.k.L 4.4.4.=.L k.n.n.n.n.n.n.x.i.S ! 4.4.4.4.4.<.<.4.! S u %     ",
"      % f S ! 4.4.4.4.4.4.4.4.! S i.x.n.n.n.n.n.n.k.L 4.4.=.4.L k.n.n.n.n.n.n.x.i.S ! =.4.4.4.4.4.4.4.! S u %     ",
"      % u S ! 4.4.4.4.4.4.4.4.! S i.x.n.n.n.n.n.n.k.L 4.4.4.4.L k.n.n.n.n.n.n.x.i.S ! 4.4.4.4.4.4.4.4.! S u %     ",
"      % u S ! 4.4.4.4.4.4.4.4.! S i.x.n.n.n.n.n.n.k.L 4.4.4.4.L k.n.n.n.n.n.n.x.i.S ! 4.4.4.4.4.4.4.4.! S u %     ",
"      % u S ! 4.4.4.4.4.4.4.4.{ G e.d.k.k.k.k.k.k.i.Y 4.4.4.4.Y i.k.k.k.k.k.k.s.t.G { 4.4.4.4.4.4.4.4.! S u %     ",
"      % u S ! 4.=.=.4.4.<.<.4.#.{ U K L L L L L L Y O.4.<.<.4.O.Y L L L L L L K U { #.4.4.4.4.4.4.4.=.Q S u %     ",
"  o @ 7 k F | 4.=.=.4.4.<.<.4.4.4.4.4.4.4.4.4.4.4.4.4.4.<.<.4.4.4.4.<.<.<.<.=.=.4.4.4.4.4.4.4.4.4.4.=.Q F g 7 @ o ",
"  @ t g v L ' 4.4.4.4.4.4.4.4.4.4.4.4.4.4.4.4.4.4.4.4.4.4.4.=.=.4.4.=.4.4.4.4.4.4.4.4.4.=.=.4.4.4.4.4. .J x g t % ",
"- 4 B F L E #.=.4.4.=.4.4.#.{ ! ! ! ! { #.4.4.4.4.#.{ ! ! ! ! { #.4.4.4.4.#.{ ! ! ! ! { #.=.4.4.4.4.=.#.E L F B > ",
"  2 F { ' #.<.4.=.=.4.4.4.{ G S S S S G { 4.4.4.4.{ G S S S S G { 4.4.4.4.{ G S S S S G { 4.4.4.=.=.4.<.#.' | F 2 ",
"X 0 L =.4.4.4.4.=.=.4.4.4.U q.i.i.i.i.e.U 4.4.4.4.U q.i.i.i.i.q.U 4.4.4.4.U q.i.i.i.i.q.U 4.4.4.=.=.4.4.4.4.4.L 7 ",
"  7 L 4.4.4.4.4.4.4.4.4.4.K s.x.x.x.x.d.K 4.=.=.4.K s.x.l.x.x.d.P 4.4.4.4.K s.x.x.x.x.d.P 4.4.4.4.4.4.4.4.4.4.L 7 ",
"X 7 L 4.4.4.4.4.4.#.{ ! ! F k.x.x.x.x.k.F ! ! ! ! F k.x.x.x.x.k.F ! ! ! ! F k.x.x.x.x.k.F ! ! { #.4.4.4.4.4.4.L 7 ",
"X 7 L 4.4.4.4.4.4.{ G S S M i.i.i.i.i.i.M S S S S M i.i.i.i.i.i.M S S S S M i.i.i.i.i.i.M S S G { 4.4.4.4.4.4.L 7 ",
"+ 7 L 4.4.4.4.4.4.U q.i.i.i.M S S S S M i.i.i.i.i.i.M S S S S M i.i.i.i.d.i.M S S S S M i.i.i.q.U 4.4.4.=.4.4.L 7 ",
"  0 L 4.4.4.4.4.4.P s.x.x.k.F ! ! ! ! F k.x.x.x.x.k.F ! ! ! ! F k.x.x.x.x.k.F ! ! ! ! F k.x.x.d.P 4.4.4.4.4.4.L 0 ",
"  0 L 4.4.4.4.4.4.P s.z.x.d.K =.4.4.4.K d.x.x.x.x.d.K 4.4.4.4.K d.x.x.x.x.d.P 4.4.4.4.K d.x.x.d.P 4.4.4.4.4.4.L 0 ",
"  7 L 4.4.4.4.4.4.U q.s.i.e.U 4.<.<.4.U e.i.i.i.i.e.U 4.4.4.=.U e.i.i.i.i.e.U 4.4.4.4.U e.i.i.q.U 4.4.4.<.<.4.L 7 ",
"  7 L 4.4.4.4.4.4._ G S S G { 4.<.<.4.{ G S S S S G { 4.4.4.=.{ G S S S S G { 4.4.4.4.{ G S S G { 4.4.4.<.<.4.L 7 ",
"  7 L 4.4.4.4.4.4.#._ ! ! { #.4.4.4.4.#.{ ! ! ! ! { #.<.4.4.4.#.{ ! ! ! ! { <.4.4.4.4.#.{ ! ! { <.4.4.4.4.4.4.L 7 ",
"  7 L 4.4.4.4.4.4.4.4.4.4.4.4.4.4.4.4.4.4.4.=.4.4.4.<.<.4.4.4.4.4.4.=.=.4.4.4.4.4.4.4.4.4.4.=.4.4.4.4.4.4.4.4.L 7 ",
"  7 L 4.4.4.<.<.4.4.4.4.4.4.4.4.4.4.4.4.4.4.4.4.4.4.4.4.4.4.=.4.4.4.4.4.4.4.4.4.4.4.4.4.4.4.4.4.4.4.4.4.4.4.4.L 7 ",
"  > M K U { #.<.4.4.4.4.4.4.4.4.4.4.4.4.4.4.4.4.4.4.4.4.4.4.4.4.4.4.4.4.4.4.=.4.4.4.4.4.4.4.4.4.4.4.4.#.{ U K M 2 ",
"  o > t z G { 4.4.4.4.4.4.4.=.=.4.4.4.4.4.4.4.4.=.=.4.4.4.4.4.4.4.4.4.4.=.4.4.4.4.4.4.4.4.4.4.4.4.4.<.{ G l h > o ",
"      @ t V L { <.4.4.4.4.4.=.=.4.4.4.4.4.4.4.4.=.X.{ ! ! ! ! | #.4.4.=.4.4.4.4.4.4.4.4.4.4.4.4.4.#.{ L V t @   X ",
"      @ 0 c N G { 4.4.4.4.4.4.4.4.4.4.4.4.4.4.4.4.{ G S S S S G _ =.4.4.=.=.4.4.4.4.4.4.4.>.=.4.4.{ G N c s # X O ",
"      o % q t l U 4.4.4.4.4.4.4.4.4.4.4.4.4.4.4.4.U z u u u u z U 4.4.4.4.=.4.4.4.4.4.4.4.<.4.4.4.U z t s % o     ",
"        o @ % t P 4.4.4.4.4.<.<.4.4.4.4.4.4.4.4.4.K t % % 1 % u K 4.4.4.4.4.4.4.4.4.4.4.=.4.4.4.=.K t @ o # :     ",
"        :     2 M L L L L K ' <.4.4.4.4.4.#.{ U P M 9         8 M P U _ #.4.4.4.=.4.4.O.Y L L L J M 2     X X   X ",
"            O o 2 0 7 7 7 k P =.4.4.=.=.4.{ G b u 2 o X   O O o > t x G _ 4.4.4.4.4.4.Y g 7 0 7 7 a o   X         ",
"        X                 2 F ! T Q Q Q ! L N t %   O     X   -   1 t N L E ! E ! E ! F 2 X         O   X   X X   ",
"                          9 B S S Z H H Z m c 0 @ X +   X   O   O @ 0 c C Z D Z S A D n %                         ",
"                        * @ j u u u f h u t s > o     :   X -     # % y u f u f f u f 0 @                         ",
"                        . . & = = 5 % % > % 1 1 # o o o o o o o o ; @ % , w , 3 3 > < 6                           "
};
