/* XPM */
static char *ddda206c78aa4c9ac44f1bb772ea6fdcsDfZHMCXJ1fr0onF[] = {
/* columns rows colors chars-per-pixel */
"57 59 80 1 ",
"  c black",
". c #010000",
"X c #000100",
"o c #010100",
"O c #010101",
"+ c #030100",
"@ c #000201",
"# c #020200",
"$ c #030200",
"% c #000002",
"& c #010103",
"* c #040200",
"= c #040300",
"- c #060300",
"; c #070300",
": c #050400",
"> c #060400",
", c #070400",
"< c #070500",
"1 c #080400",
"2 c #080500",
"3 c #0A0500",
"4 c #080600",
"5 c #0A0600",
"6 c #0B0600",
"7 c #0A0700",
"8 c #0B0700",
"9 c #0D0800",
"0 c #0E0800",
"q c #0E0900",
"w c #0F0900",
"e c #FBEF29",
"r c #FDEF2A",
"t c #FCEF2E",
"y c #FAF12A",
"u c #FCF028",
"i c #FCF02A",
"p c #FDF12B",
"a c #FAF02E",
"s c #FAF02F",
"d c #FCF02C",
"f c #F9EE32",
"g c #FAEF33",
"h c #F9EE3A",
"j c #F8EF3A",
"k c #F8EE3F",
"l c #FBF034",
"z c #F5EC47",
"x c #F6ED46",
"c c #F9EF40",
"v c #F8ED43",
"b c #F8ED46",
"n c #F6ED48",
"m c #F6EC4D",
"M c #F5EC51",
"N c #F5EB56",
"B c #F3EC56",
"V c #F2EB5C",
"C c #F3EB5C",
"Z c #F3EA5F",
"A c #F2EB5F",
"S c #EFE96D",
"D c #EFE96F",
"F c #F2E968",
"G c #F1EA68",
"H c #F2EB69",
"J c #F1E96A",
"K c #F1E96D",
"L c #F1E86F",
"P c #EFE874",
"I c #EFE876",
"U c #EEE77F",
"Y c #ECE87D",
"T c #EDE97E",
"R c #F1E871",
"E c #F0E977",
"W c #ECE781",
"Q c #EEE681",
"! c #EBE786",
"~ c #ECE686",
/* pixels */
"                                                         ",
"                                                         ",
"                                                         ",
"                                                         ",
"                                                         ",
"                                                         ",
"                                                         ",
"                                                         ",
"                                                         ",
"                                                         ",
"                                                         ",
"                                                         ",
"                                                         ",
"                                                         ",
"                                                         ",
"                                                         ",
"                                                         ",
"                                                         ",
"                                                         ",
"                           ==                            ",
"                          6666<=                         ",
"                        =6UKKP~66=                       ",
"                      =6RMbkvvnBKq=                      ",
"                     =6EviiiiiigvF6<                     ",
"                    =6FvgiiiiiitgbFq=                    ",
"                    6YxiiiiiiiiiigvK6                    ",
"                   =qAhiiiyyyyiiitgB6=                   ",
"                   <Dvgiiiiyyyiiiiix!<                   ",
"                   <AgtdriiiiiiiiiivP6                   ",
"                   <NeddrriiiiiiiiikK6=                  ",
"                   <NieiiiiiiiiiiiikD6=                  ",
"                   <FhsiiiiiiiiiiiixY6                   ",
"                   =qAhiiiiiiieiiiiM6                    ",
"                    6QmgtiieiiiiigvD=                    ",
"                     6FvgiiiiiyyivP6=                    ",
"                     =qFmhsiislhxF6=                     ",
"                      =6QAhiigvAY6=                      ",
"                        6qFBNAKq6=                       ",
"                         =<<6<<==                        ",
"                                                         ",
"                                                         ",
"                                                         ",
"                                                         ",
"                                                         ",
"                                                         ",
"                                                         ",
"                                                         ",
"                                                         ",
"                                                         ",
"                                                         ",
"                                                         ",
"                                                         ",
"                                                         ",
"                                                         ",
"                                                         ",
"                                                         ",
"                                                         ",
"                                                         ",
"                                                         "
};
