/* XPM */
static char * exit_1_xpm[] = {
"57 59 22 1",
" 	c #000000",
".	c #010101",
"+	c #040404",
"@	c #050505",
"#	c #060606",
"$	c #101010",
"%	c #1D1D1D",
"&	c #232323",
"*	c #1B1B1B",
"=	c #2E2E2E",
"-	c #3F3F3F",
";	c #484848",
">	c #363636",
",	c #505050",
"'	c #636363",
")	c #6C6C6C",
"!	c #707070",
"~	c #878787",
"{	c #959595",
"]	c #A8A8A8",
"^	c #BFBFBF",
"/	c #DFDFDF",
"                                                         ",
"                                                         ",
"                                                         ",
"                                                         ",
"                                                         ",
"                                                         ",
"                                                         ",
"                                                         ",
"                                                         ",
"                                                         ",
"                                                         ",
"                                                         ",
"                                                         ",
"                                                         ",
"                                                         ",
"                                                         ",
"                                                         ",
"                                                         ",
"                                                         ",
"                                                         ",
"                                                         ",
"                                                         ",
"                                                         ",
"                          .+@@+.                         ",
"                         #$%&&%$#                        ",
"                        #*=-;;-=*#                       ",
"                       #*>,'))',>*#                      ",
"                      .$=,!~{{~!,=$.                     ",
"                      +%-'~]^^]~'-%+                     ",
"                      @&;){^//^{);&@                     ",
"                      @&;){^//^{);&@                     ",
"                      +%-'~]^^]~'-%+                     ",
"                      .$=,!~{{~!,=$.                     ",
"                       #*>,'))',>*#                      ",
"                        #*=-;;-=*#                       ",
"                         #$%&&%$#                        ",
"                          .+@@+.                         ",
"                                                         ",
"                                                         ",
"                                                         ",
"                                                         ",
"                                                         ",
"                                                         ",
"                                                         ",
"                                                         ",
"                                                         ",
"                                                         ",
"                                                         ",
"                                                         ",
"                                                         ",
"                                                         ",
"                                                         ",
"                                                         ",
"                                                         ",
"                                                         ",
"                                                         ",
"                                                         ",
"                                                         ",
"                                                         "};
