/* XPM */
static char *_d7cd46da2d14b75ab15f04602e9e9efPukNX1UR8sslFDcr[] = {
/* columns rows colors chars-per-pixel */
"57 59 21 1 ",
"  c black",
". c #010000",
"X c #000100",
"o c #030000",
"O c #000002",
"+ c #040000",
"@ c #060000",
"# c #E7DDDC",
"$ c #E6DDDE",
"% c #E7DDDE",
"& c #E8DDDB",
"* c #EADCDB",
"= c #EBDBDC",
"- c #EADBDE",
"; c #EBDBDE",
": c #E8DCDC",
"> c #E9DDDD",
", c #EADCDC",
"< c #EBDDDD",
"1 c #E8DCDE",
"2 c #ECDCDF",
/* pixels */
",,,,,,,,,,,,,,,,,,,,,,,,,,,,,,,,,,,,,,,,,,,,,,,,,,,,=2,,,",
",,,,,,,,%%%%,,,,,,,,%%%%,,,,,,,,%%%%,,,,,,,,%%%%,,,,==,,,",
",,,%%%%%%%%%%%%%%%%%%%%%%%%%%%%%%%%%%%%%%%%%%%%%%%%%%%,,,",
",,%@@o@@oooooo@@oo@@oooooo@@oo@@oooooo@@oo@@oooooo@@@@,,,",
",%%ooooooooooooooooooooooooooooooooooooooooooooooooooo%,,",
",%%ooooooooooooooooooooooooooooooooooooooooooooooooooo%,,",
"=,%ooooooooooooooooooooooooooooooooooooooooooooooooooo%,,",
"=,%ooooooooooooooooooooooooooooooooooooooooooooooooooo%,,",
",,%@oooooooooooooooooooooooooooooooooooooooooooooooooo%,,",
",,%@oooooooooooooooooooooooooooooooooooooooooooooooooo%,,",
",,%@oooooooooooooooooooooooooooooooooooooooooooooooooo%=,",
",,%@oooooooooooooooooooooooooooooooooooooooooooooooooo%=,",
",,%@oooooooooooooooooooooooooooooooooooooooooooooooooo%,,",
",%%@oooooooooooooooooooooooooooooooooooooooooooooooooo%,,",
",,%@oooooooooooooooooooooooooooooooooooooooooooooooooo%,,",
",,%@oooooooooooooooooooooooooooooooooooooooooooooooooo%,,",
",%%ooooooooooooooooooooooooooooooooooooooooooooooooooo%,,",
",%%ooooooooooooooooooooooooooooooooooooooooooooooooooo%,,",
",%%ooooooooooooooooooooooooooooooooooooooooooooooooooo%,,",
",,%ooooooooooooooooooooooooooooooooooooooooooooooooooo%,,",
",,%@oooooooooooooooooooooooooooooooooooooooooooooooooo%,,",
",,%@oooooooooooooooooooooooooooooooooooooooooooooooooo%,,",
",,%@oooooooooooooooooooooooooooooooooooooooooooooooooo%,,",
",,%@oooooooooooooooooooooooooooooooooooooooooooooooooo%,,",
",,%@oooooooooooooooooooooooooooooooooooooooooooooooooo%,,",
",%%@oooooooooooooooooooooooooooooooooooooooooooooooooo%,,",
",,%@oooooooooooooooooooooooooooooooooooooooooooooooooo%,,",
",,%@oooooooooooooooooooooooooooooooooooooooooooooooooo%,,",
",%%ooooooooooooooooooooooooooooooooooooooooooooooooooo%,,",
",%%ooooooooooooooooooooooooooooooooooooooooooooooooooo%,,",
",%%ooooooooooooooooooooooooooooooooooooooooooooooooooo%,,",
",,%ooooooooooooooooooooooooooooooooooooooooooooooooooo%,,",
",,%@oooooooooooooooooooooooooooooooooooooooooooooooooo%,,",
",,%@oooooooooooooooooooooooooooooooooooooooooooooooooo%,,",
",,%@oooooooooooooooooooooooooooooooooooooooooooooooooo%,,",
",,%@oooooooooooooooooooooooooooooooooooooooooooooooooo%,,",
",,%@oooooooooooooooooooooooooooooooooooooooooooooooooo%,,",
",%%@oooooooooooooooooooooooooooooooooooooooooooooooooo%,,",
",,%@oooooooooooooooooooooooooooooooooooooooooooooooooo%,,",
",,%@oooooooooooooooooooooooooooooooooooooooooooooooooo%,,",
",%%ooooooooooooooooooooooooooooooooooooooooooooooooooo%,,",
",%%ooooooooooooooooooooooooooooooooooooooooooooooooooo%,,",
",%%ooooooooooooooooooooooooooooooooooooooooooooooooooo%,,",
",,%ooooooooooooooooooooooooooooooooooooooooooooooooooo%,,",
",,%@oooooooooooooooooooooooooooooooooooooooooooooooooo%,,",
",,%@oooooooooooooooooooooooooooooooooooooooooooooooooo%,,",
",,%@oooooooooooooooooooooooooooooooooooooooooooooooooo%,,",
",,%@oooooooooooooooooooooooooooooooooooooooooooooooooo%,,",
",,%@oooooooooooooooooooooooooooooooooooooooooooooooooo%,,",
",%%@oooooooooooooooooooooooooooooooooooooooooooooooooo%,,",
"*,%@oooooooooooooooooooooooooooooooooooooooooooooooooo%,=",
"**%@oooooooooooooooooooooooooooooooooooooooooooooooooo%,=",
"*&%ooooooooooooooooooooooooooooooooooooooooooooooooooo%,,",
"*%%ooooooooooooooooooooooooooooooooooooooooooooooooooo%,,",
",,%ooooooooooooooooooooooooooooooooooooooooooooooooooo%==",
",,%@oooooooooooooooooooooooooooooooooooooooooooooooooo%,=",
",,,,,%%%%%%%%%%%%%%%%%%%%%%%%%%%%%%%%%%%%%%%%%%%%%%%%,,,,",
",,,,,,,,,,,,,,,,,,,,,,,,,,,,,,,,,,,,,,,,,,,,,,,,,,,,,,**,",
",,,,,,,,,,,,,,,,,,,,,,,,,,,,,,,,,,,,,,,,,,,,,,,,,,,,,,,,,"
};
