/* XPM */
static char * exit_7_xpm[] = {
"57 59 116 2",
"  	c #000000",
". 	c #010101",
"+ 	c #020202",
"@ 	c #030303",
"# 	c #040404",
"$ 	c #070707",
"% 	c #080808",
"& 	c #060606",
"* 	c #090909",
"= 	c #0D0D0D",
"- 	c #111111",
"; 	c #141414",
"> 	c #161616",
", 	c #0C0C0C",
"' 	c #131313",
") 	c #181818",
"! 	c #1C1C1C",
"~ 	c #202020",
"{ 	c #242424",
"] 	c #262626",
"^ 	c #1A1A1A",
"/ 	c #272727",
"( 	c #2C2C2C",
"_ 	c #313131",
": 	c #343434",
"< 	c #363636",
"[ 	c #373737",
"} 	c #101010",
"| 	c #212121",
"1 	c #292929",
"2 	c #2F2F2F",
"3 	c #3E3E3E",
"4 	c #434343",
"5 	c #454545",
"6 	c #484848",
"7 	c #4A4A4A",
"8 	c #121212",
"9 	c #1B1B1B",
"0 	c #252525",
"a 	c #303030",
"b 	c #383838",
"c 	c #414141",
"d 	c #494949",
"e 	c #505050",
"f 	c #565656",
"g 	c #595959",
"h 	c #5B5B5B",
"i 	c #5E5E5E",
"j 	c #1E1E1E",
"k 	c #474747",
"l 	c #515151",
"m 	c #5A5A5A",
"n 	c #626262",
"o 	c #6A6A6A",
"p 	c #6E6E6E",
"q 	c #707070",
"r 	c #727272",
"s 	c #2A2A2A",
"t 	c #424242",
"u 	c #4E4E4E",
"v 	c #636363",
"w 	c #757575",
"x 	c #7C7C7C",
"y 	c #818181",
"z 	c #858585",
"A 	c #888888",
"B 	c #444444",
"C 	c #6B6B6B",
"D 	c #808080",
"E 	c #898989",
"F 	c #909090",
"G 	c #959595",
"H 	c #9B9B9B",
"I 	c #9E9E9E",
"J 	c #7B7B7B",
"K 	c #878787",
"L 	c #929292",
"M 	c #A6A6A6",
"N 	c #ABABAB",
"O 	c #B0B0B0",
"P 	c #B3B3B3",
"Q 	c #7D7D7D",
"R 	c #8B8B8B",
"S 	c #989898",
"T 	c #A5A5A5",
"U 	c #BABABA",
"V 	c #C0C0C0",
"W 	c #C5C5C5",
"X 	c #C7C7C7",
"Y 	c #999999",
"Z 	c #A9A9A9",
"` 	c #B7B7B7",
" .	c #C2C2C2",
"..	c #CCCCCC",
"+.	c #D3D3D3",
"@.	c #D7D7D7",
"#.	c #D9D9D9",
"$.	c #B8B8B8",
"%.	c #DBDBDB",
"&.	c #E2E2E2",
"*.	c #E7E7E7",
"=.	c #E9E9E9",
"-.	c #D5D5D5",
";.	c #E0E0E0",
">.	c #E8E8E8",
",.	c #EEEEEE",
"'.	c #F2F2F2",
").	c #F4F4F4",
"!.	c #F7F7F7",
"~.	c #FAFAFA",
"{.	c #FBFBFB",
"].	c #F8F8F8",
"^.	c #FCFCFC",
"/.	c #FDFDFD",
"(.	c #FEFEFE",
"_.	c #FFFFFF",
"                                                                                                                  ",
"                                                                                                                  ",
"                                                                                                                  ",
"                                                                                                                  ",
"                                                                                                                  ",
"                                                                                                                  ",
"                                                                                                                  ",
"                                                                                                                  ",
"                                                                                                                  ",
"                                                    . . . . . .                                                   ",
"                                            . + @ # $ % % % % $ # @ + .                                           ",
"                                        . @ & * = - ; > > > > ; - = * & @ .                                       ",
"                                    . # $ , ' ) ! ~ { ] ] ] ] { ~ ! ) ' , $ # .                                   ",
"                                  + & , ' ^ ~ / ( _ : < [ [ < : _ ( / ~ ^ ' , & +                                 ",
"                              . + % } ) | 1 2 [ 3 4 5 6 7 7 6 5 4 3 [ 2 1 | ) } % + .                             ",
"                            . @ % 8 9 0 a b c d e f g h i i h g f e d c b a 0 9 8 % @ .                           ",
"                            + % 8 j 1 : 3 k l m n o p q r r q p o n m l k 3 : 1 j 8 % +                           ",
"                          + % 8 j s [ t u g v p w x y z A A z y x w p v g u t [ s j 8 % +                         ",
"                        . & } 9 1 [ B e i C w D E F G H I I H G F E D w C i e B [ 1 9 } & .                       ",
"                        # , ) 0 : t e i p J K L I M N O P P O N M I L K J p i e t : 0 ) , #                       ",
"                      . $ ' | a 3 u i p Q R S T O U V W X X W V U O T S R Q p i u 3 a | ' $ .                     ",
"                      @ , ^ 1 b k g C J R Y Z `  ...+.@.#.#.@.+... .` Z Y R J C g k b 1 ^ , @                     ",
"                    . & ' ~ 2 c l v w K S Z $.X +.%.&.*.=.=.*.&.%.+.X $.Z S K w v l c 2 ~ ' & .                   ",
"                    + * ) / [ d m p D L T ` X -.;.>.,.'.).).'.,.>.;.-.X ` T L D p m d [ / ) * +                   ",
"                    @ = ! ( 3 e n w E I O  .+.;.=.'.!.~.{.{.~.!.'.=.;.+. .O I E w n e 3 ( ! = @                   ",
"                    # - ~ _ 4 f o x F M U ..%.>.'.].^./.(.(./.^.].'.>.%...U M F x o f 4 _ ~ - #                   ",
"                  . $ ; { : 5 g p y G N V +.&.,.!.^.(._._._._.(.^.!.,.&.+.V N G y p g 5 : { ; $ .                 ",
"                  . % > ] < 6 h q z H O W @.*.'.~./._._._._._._./.~.'.*.@.W O H z q h 6 < ] > % .                 ",
"                  . % > ] [ 7 i r A I P X #.=.).{.(._._._._._._.(.{.).=.#.X P I A r i 7 [ ] > % .                 ",
"                  . % > ] [ 7 i r A I P X #.=.).{.(._._._._._._.(.{.).=.#.X P I A r i 7 [ ] > % .                 ",
"                  . % > ] < 6 h q z H O W @.*.'.~./._._._._._._./.~.'.*.@.W O H z q h 6 < ] > % .                 ",
"                  . $ ; { : 5 g p y G N V +.&.,.!.^.(._._._._.(.^.!.,.&.+.V N G y p g 5 : { ; $ .                 ",
"                    # - ~ _ 4 f o x F M U ..%.>.'.].^./.(.(./.^.].'.>.%...U M F x o f 4 _ ~ - #                   ",
"                    @ = ! ( 3 e n w E I O  .+.;.=.'.!.~.{.{.~.!.'.=.;.+. .O I E w n e 3 ( ! = @                   ",
"                    + * ) / [ d m p D L T ` X -.;.>.,.'.).).'.,.>.;.-.X ` T L D p m d [ / ) * +                   ",
"                    . & ' ~ 2 c l v w K S Z $.X +.%.&.*.=.=.*.&.%.+.X $.Z S K w v l c 2 ~ ' & .                   ",
"                      @ , ^ 1 b k g C J R Y Z `  ...+.@.#.#.@.+... .` Z Y R J C g k b 1 ^ , @                     ",
"                      . $ ' | a 3 u i p Q R S T O U V W X X W V U O T S R Q p i u 3 a | ' $ .                     ",
"                        # , ) 0 : t e i p J K L I M N O P P O N M I L K J p i e t : 0 ) , #                       ",
"                        . & } 9 1 [ B e i C w D E F G H I I H G F E D w C i e B [ 1 9 } & .                       ",
"                          + % 8 j s [ t u g v p w x y z A A z y x w p v g u t [ s j 8 % +                         ",
"                            + % 8 j 1 : 3 k l m n o p q r r q p o n m l k 3 : 1 j 8 % +                           ",
"                            . @ % 8 9 0 a b c d e f g h i i h g f e d c b a 0 9 8 % @ .                           ",
"                              . + % } ) | 1 2 [ 3 4 5 6 7 7 6 5 4 3 [ 2 1 | ) } % + .                             ",
"                                  + & , ' ^ ~ / ( _ : < [ [ < : _ ( / ~ ^ ' , & +                                 ",
"                                    . # $ , ' ) ! ~ { ] ] ] ] { ~ ! ) ' , $ # .                                   ",
"                                        . @ & * = - ; > > > > ; - = * & @ .                                       ",
"                                            . + @ # $ % % % % $ # @ + .                                           ",
"                                                    . . . . . .                                                   ",
"                                                                                                                  ",
"                                                                                                                  ",
"                                                                                                                  ",
"                                                                                                                  ",
"                                                                                                                  ",
"                                                                                                                  ",
"                                                                                                                  ",
"                                                                                                                  ",
"                                                                                                                  ",
"                                                                                                                  "};
