/* XPM */
static char * exit_3_xpm[] = {
"57 59 55 1",
" 	c #000000",
".	c #010101",
"+	c #020202",
"@	c #040404",
"#	c #070707",
"$	c #0C0C0C",
"%	c #0E0E0E",
"&	c #060606",
"*	c #0F0F0F",
"=	c #161616",
"-	c #1B1B1B",
";	c #212121",
">	c #232323",
",	c #090909",
"'	c #151515",
")	c #202020",
"!	c #2A2A2A",
"~	c #313131",
"{	c #373737",
"]	c #3A3A3A",
"^	c #0A0A0A",
"/	c #191919",
"(	c #282828",
"_	c #343434",
":	c #404040",
"<	c #4A4A4A",
"[	c #505050",
"}	c #535353",
"|	c #292929",
"1	c #494949",
"2	c #575757",
"3	c #636363",
"4	c #6D6D6D",
"5	c #707070",
"6	c #4D4D4D",
"7	c #5E5E5E",
"8	c #6F6F6F",
"9	c #7D7D7D",
"0	c #898989",
"a	c #8F8F8F",
"b	c #727272",
"c	c #878787",
"d	c #989898",
"e	c #A6A6A6",
"f	c #ADADAD",
"g	c #9E9E9E",
"h	c #B3B3B3",
"i	c #C2C2C2",
"j	c #C9C9C9",
"k	c #CBCBCB",
"l	c #DADADA",
"m	c #E2E2E2",
"n	c #EBEBEB",
"o	c #F4F4F4",
"p	c #FCFCFC",
"                                                         ",
"                                                         ",
"                                                         ",
"                                                         ",
"                                                         ",
"                                                         ",
"                                                         ",
"                                                         ",
"                                                         ",
"                                                         ",
"                                                         ",
"                                                         ",
"                                                         ",
"                                                         ",
"                                                         ",
"                                                         ",
"                                                         ",
"                           ....                          ",
"                        +@#$%%$#@+                       ",
"                      .&*=-;>>;-=*&.                     ",
"                     +,')!~{]]{~!)',+                    ",
"                    +^/(_:<[}}[<:_(/^+                   ",
"                   .,/|]1234554321]|/,.                  ",
"                   &'(]67890aa09876]('&                  ",
"                  +*)_17bcdeffedcb71_)*+                 ",
"                  @=!:28cghijjihgc82:!=@                 ",
"                  #-~<39dhklmmlkhd93<~-#                 ",
"                 .$;{[40eilnoonlie04[{;$.                ",
"                 .%>]}5afjmoppomjfa5}]>%.                ",
"                 .%>]}5afjmoppomjfa5}]>%.                ",
"                 .$;{[40eilnoonlie04[{;$.                ",
"                  #-~<39dhklmmlkhd93<~-#                 ",
"                  @=!:28cghijjihgc82:!=@                 ",
"                  +*)_17bcdeffedcb71_)*+                 ",
"                   &'(]67890aa09876]('&                  ",
"                   .,/|]1234554321]|/,.                  ",
"                    +^/(_:<[}}[<:_(/^+                   ",
"                     +,')!~{]]{~!)',+                    ",
"                      .&*=-;>>;-=*&.                     ",
"                        +@#$%%$#@+                       ",
"                           ....                          ",
"                                                         ",
"                                                         ",
"                                                         ",
"                                                         ",
"                                                         ",
"                                                         ",
"                                                         ",
"                                                         ",
"                                                         ",
"                                                         ",
"                                                         ",
"                                                         ",
"                                                         ",
"                                                         ",
"                                                         ",
"                                                         ",
"                                                         ",
"                                                         "};
