/* XPM */
static char * exit_5_xpm[] = {
"57 59 85 1",
" 	c #000000",
".	c #010101",
"+	c #020202",
"@	c #050505",
"#	c #080808",
"$	c #0A0A0A",
"%	c #0C0C0C",
"&	c #0E0E0E",
"*	c #070707",
"=	c #121212",
"-	c #181818",
";	c #1A1A1A",
">	c #1C1C1C",
",	c #1E1E1E",
"'	c #0B0B0B",
")	c #131313",
"!	c #1B1B1B",
"~	c #212121",
"{	c #282828",
"]	c #2C2C2C",
"^	c #2E2E2E",
"/	c #303030",
"(	c #111111",
"_	c #232323",
":	c #333333",
"<	c #393939",
"[	c #3E3E3E",
"}	c #424242",
"|	c #454545",
"1	c #292929",
"2	c #323232",
"3	c #3D3D3D",
"4	c #464646",
"5	c #4D4D4D",
"6	c #535353",
"7	c #595959",
"8	c #5C5C5C",
"9	c #383838",
"0	c #444444",
"a	c #505050",
"b	c #656565",
"c	c #6B6B6B",
"d	c #717171",
"e	c #747474",
"f	c #3A3A3A",
"g	c #474747",
"h	c #565656",
"i	c #646464",
"j	c #7C7C7C",
"k	c #848484",
"l	c #8A8A8A",
"m	c #8D8D8D",
"n	c #575757",
"o	c #686868",
"p	c #797979",
"q	c #878787",
"r	c #939393",
"s	c #9D9D9D",
"t	c #A3A3A3",
"u	c #A6A6A6",
"v	c #7A7A7A",
"w	c #A9A9A9",
"x	c #B4B4B4",
"y	c #BCBCBC",
"z	c #BFBFBF",
"A	c #A0A0A0",
"B	c #B0B0B0",
"C	c #BEBEBE",
"D	c #C9C9C9",
"E	c #D2D2D2",
"F	c #D6D6D6",
"G	c #C1C1C1",
"H	c #D0D0D0",
"I	c #DCDCDC",
"J	c #E5E5E5",
"K	c #E9E9E9",
"L	c #E0E0E0",
"M	c #ECECEC",
"N	c #F3F3F3",
"O	c #F5F5F5",
"P	c #F6F6F6",
"Q	c #FAFAFA",
"R	c #FCFCFC",
"S	c #FEFEFE",
"T	c #FFFFFF",
"                                                         ",
"                                                         ",
"                                                         ",
"                                                         ",
"                                                         ",
"                                                         ",
"                                                         ",
"                                                         ",
"                                                         ",
"                                                         ",
"                                                         ",
"                                                         ",
"                                                         ",
"                         ..++++..                        ",
"                      .+@#$%&&%$#@+.                     ",
"                    .+*%=-;>,,>;-=%*+.                   ",
"                   .@')!~{]^//^]{~!)'@.                  ",
"                  +*(;_]:<[}||}[<:]_;(*+                 ",
"                 +#=,1234567887654321,=#+                ",
"                .*=,]90a8bcdeedcb8a09],=*.               ",
"               .@(,]fghidjklmmlkjdihgf],(@.              ",
"               +';19gnopqrstuutsrqpong91;'+              ",
"              .*)_20hovmswxyzzyxwsmvoh02_)*.             ",
"              +%!]3aipmABCDEFFEDCBAmpia3]!%+             ",
"              @=~:48dqsBGHIJKKJIHGBsqd84:~=@             ",
"             .#-{<5bjrwCHLMNOONMLHCwrjb5<{-#.            ",
"             .$;][6cksxDIMPQRRQPMIDxskc6[];$.            ",
"             +%>^}7dltyEJNQSTTSQNJEytld7}^>%+            ",
"             +&,/|8emuzFKORTTTTROKFzume8|/,&+            ",
"             +&,/|8emuzFKORTTTTROKFzume8|/,&+            ",
"             +%>^}7dltyEJNQSTTSQNJEytld7}^>%+            ",
"             .$;][6cksxDIMPQRRQPMIDxskc6[];$.            ",
"             .#-{<5bjrwCHLMNOONMLHCwrjb5<{-#.            ",
"              @=~:48dqsBGHIJKKJIHGBsqd84:~=@             ",
"              +%!]3aipmABCDEFFEDCBAmpia3]!%+             ",
"              .*)_20hovmswxyzzyxwsmvoh02_)*.             ",
"               +';19gnopqrstuutsrqpong91;'+              ",
"               .@(,]fghidjklmmlkjdihgf],(@.              ",
"                .*=,]90a8bcdeedcb8a09],=*.               ",
"                 +#=,1234567887654321,=#+                ",
"                  +*(;_]:<[}||}[<:]_;(*+                 ",
"                   .@')!~{]^//^]{~!)'@.                  ",
"                    .+*%=-;>,,>;-=%*+.                   ",
"                      .+@#$%&&%$#@+.                     ",
"                         ..++++..                        ",
"                                                         ",
"                                                         ",
"                                                         ",
"                                                         ",
"                                                         ",
"                                                         ",
"                                                         ",
"                                                         ",
"                                                         ",
"                                                         ",
"                                                         ",
"                                                         ",
"                                                         ",
"                                                         "};
