/* XPM */
static char * exit_2_xpm[] = {
"57 59 34 1",
" 	c #000000",
".	c #010101",
"+	c #020202",
"@	c #030303",
"#	c #070707",
"$	c #0F0F0F",
"%	c #151515",
"&	c #181818",
"*	c #0D0D0D",
"=	c #1B1B1B",
"-	c #272727",
";	c #313131",
">	c #343434",
",	c #121212",
"'	c #222222",
")	c #333333",
"!	c #414141",
"~	c #4C4C4C",
"{	c #525252",
"]	c #363636",
"^	c #4B4B4B",
"/	c #5B5B5B",
"(	c #696969",
"_	c #707070",
":	c #616161",
"<	c #777777",
"[	c #868686",
"}	c #8F8F8F",
"|	c #919191",
"1	c #A5A5A5",
"2	c #B0B0B0",
"3	c #BFBFBF",
"4	c #D1D1D1",
"5	c #E8E8E8",
"                                                         ",
"                                                         ",
"                                                         ",
"                                                         ",
"                                                         ",
"                                                         ",
"                                                         ",
"                                                         ",
"                                                         ",
"                                                         ",
"                                                         ",
"                                                         ",
"                                                         ",
"                                                         ",
"                                                         ",
"                                                         ",
"                                                         ",
"                                                         ",
"                                                         ",
"                                                         ",
"                          .+@@+.                         ",
"                        .#$%&&%$#.                       ",
"                       @*=-;>>;-=*@                      ",
"                      @,')!~{{~!)',@                     ",
"                     .*']^/(__(/^]'*.                    ",
"                     #=)^:<[}}[<:^)=#                    ",
"                    .$-!/<|1221|</!-$.                   ",
"                    +%;~([134431[(~;%+                   ",
"                    @&>{_}245542}_{>&@                   ",
"                    @&>{_}245542}_{>&@                   ",
"                    +%;~([134431[(~;%+                   ",
"                    .$-!/<|1221|</!-$.                   ",
"                     #=)^:<[}}[<:^)=#                    ",
"                     .*']^/(__(/^]'*.                    ",
"                      @,')!~{{~!)',@                     ",
"                       @*=-;>>;-=*@                      ",
"                        .#$%&&%$#.                       ",
"                          .+@@+.                         ",
"                                                         ",
"                                                         ",
"                                                         ",
"                                                         ",
"                                                         ",
"                                                         ",
"                                                         ",
"                                                         ",
"                                                         ",
"                                                         ",
"                                                         ",
"                                                         ",
"                                                         ",
"                                                         ",
"                                                         ",
"                                                         ",
"                                                         ",
"                                                         ",
"                                                         ",
"                                                         ",
"                                                         "};
