/* XPM */
static char * exit_12_xpm[] = {
"57 59 141 2",
"  	c #000000",
". 	c #080808",
"+ 	c #0D0D0D",
"@ 	c #101010",
"# 	c #151515",
"$ 	c #1A1A1A",
"% 	c #1E1E1E",
"& 	c #212121",
"* 	c #242424",
"= 	c #181818",
"- 	c #272727",
"; 	c #2C2C2C",
"> 	c #333333",
", 	c #373737",
"' 	c #3A3A3A",
") 	c #3C3C3C",
"! 	c #141414",
"~ 	c #1C1C1C",
"{ 	c #252525",
"] 	c #2E2E2E",
"^ 	c #383838",
"/ 	c #3F3F3F",
"( 	c #454545",
"_ 	c #4C4C4C",
": 	c #4E4E4E",
"< 	c #525252",
"[ 	c #545454",
"} 	c #0F0F0F",
"| 	c #191919",
"1 	c #262626",
"2 	c #323232",
"3 	c #4D4D4D",
"4 	c #565656",
"5 	c #5C5C5C",
"6 	c #616161",
"7 	c #646464",
"8 	c #686868",
"9 	c #6A6A6A",
"0 	c #232323",
"a 	c #313131",
"b 	c #484848",
"c 	c #535353",
"d 	c #5A5A5A",
"e 	c #636363",
"f 	c #696969",
"g 	c #727272",
"h 	c #767676",
"i 	c #797979",
"j 	c #7D7D7D",
"k 	c #808080",
"l 	c #0E0E0E",
"m 	c #292929",
"n 	c #515151",
"o 	c #676767",
"p 	c #717171",
"q 	c #848484",
"r 	c #898989",
"s 	c #8E8E8E",
"t 	c #939393",
"u 	c #969696",
"v 	c #575757",
"w 	c #656565",
"x 	c #7B7B7B",
"y 	c #8C8C8C",
"z 	c #979797",
"A 	c #9C9C9C",
"B 	c #A0A0A0",
"C 	c #A5A5A5",
"D 	c #A8A8A8",
"E 	c #303030",
"F 	c #787878",
"G 	c #838383",
"H 	c #9D9D9D",
"I 	c #A4A4A4",
"J 	c #AAAAAA",
"K 	c #AFAFAF",
"L 	c #B3B3B3",
"M 	c #B6B6B6",
"N 	c #B8B8B8",
"O 	c #404040",
"P 	c #505050",
"Q 	c #606060",
"R 	c #707070",
"S 	c #7C7C7C",
"T 	c #888888",
"U 	c #949494",
"V 	c #9E9E9E",
"W 	c #A6A6A6",
"X 	c #ADADAD",
"Y 	c #B5B5B5",
"Z 	c #BABABA",
"` 	c #BEBEBE",
" .	c #C2C2C2",
"..	c #C6C6C6",
"+.	c #C9C9C9",
"@.	c #999999",
"#.	c #AEAEAE",
"$.	c #BCBCBC",
"%.	c #C3C3C3",
"&.	c #CACACA",
"*.	c #CECECE",
"=.	c #D1D1D1",
"-.	c #D3D3D3",
";.	c #D5D5D5",
">.	c #D6D6D6",
",.	c #919191",
"'.	c #CCCCCC",
").	c #D0D0D0",
"!.	c #DBDBDB",
"~.	c #DEDEDE",
"{.	c #E0E0E0",
"].	c #E1E1E1",
"^.	c #E2E2E2",
"/.	c #A9A9A9",
"(.	c #C8C8C8",
"_.	c #D7D7D7",
":.	c #DDDDDD",
"<.	c #E5E5E5",
"[.	c #E9E9E9",
"}.	c #EAEAEA",
"|.	c #EBEBEB",
"1.	c #C0C0C0",
"2.	c #D4D4D4",
"3.	c #E6E6E6",
"4.	c #EDEDED",
"5.	c #F0F0F0",
"6.	c #F2F2F2",
"7.	c #CDCDCD",
"8.	c #E4E4E4",
"9.	c #F3F3F3",
"0.	c #F6F6F6",
"a.	c #F7F7F7",
"b.	c #F8F8F8",
"c.	c #DFDFDF",
"d.	c #F1F1F1",
"e.	c #FAFAFA",
"f.	c #FBFBFB",
"g.	c #F5F5F5",
"h.	c #FDFDFD",
"i.	c #FEFEFE",
"j.	c #FFFFFF",
"                                                                                                                  ",
"                                                                                                                  ",
"                                                                                                                  ",
"                                                . . . + + + + . . .                                               ",
"                                        . . @ # $ % & * * * * & % $ # @ . .                                       ",
"                                    . @ = & - ; > , ' ) ) ) ) ' , > ; - & = @ .                                   ",
"                                . ! ~ { ] ^ / ( _ : < [ [ [ [ < : _ ( / ^ ] { ~ ! .                               ",
"                            . } | 1 2 ) ( 3 4 5 6 7 8 9 9 9 9 8 7 6 5 4 3 ( ) 2 1 | } .                           ",
"                          . ! 0 a ) b c d e f g h i j k k k k j i h g f e d c b ) a 0 ! .                         ",
"                        l | m ^ ( n 5 o p i j q r s t u u u u t s r q j i p o 5 n ( ^ m | l                       ",
"                      l % ; ) _ v w p x q y t z A B C D D D D C B A z t y q x p w v _ ) ; % l                     ",
"                    l % E / : 5 9 F G s u H I J K L M N N N N M L K J I H u s G F 9 5 : / E % l                   ",
"                  l % E O P Q R S T U V W X Y Z `  ...+.+.+.+... .` Z Y X W V U T S R Q P O E % l                 ",
"                . | ; / P Q p k s @.I #.Y $.%.&.*.=.-.;.>.>.;.-.=.*.&.%.$.Y #.I @.s k p Q P / ; | .               ",
"              . ! m ) : Q p k ,.A D L Z %.'.).>.!.~.{.].^.^.].{.~.!.>.).'.%.Z L D A ,.k p Q : ) m ! .             ",
"              } 0 ^ _ 5 R k ,.H /.Y ` (.)._.:.].<.[.}.|.|.|.|.}.[.<.].:._.).(.` Y /.H ,.k R 5 _ ^ 0 }             ",
"            . | a ( v 9 S s A /.Y 1.'.2.!.].3.}.4.5.6.6.6.6.6.6.5.4.}.3.].!.2.'.1.Y /.A s S 9 v ( a | .           ",
"            ! 1 ) n w F T @.D Y 1.7.>.~.8.}.4.6.9.0.a.a.b.b.a.a.0.9.6.4.}.8.~.>.7.1.Y D @.T F w n ) 1 !           ",
"          . ~ 2 b 5 p G U I L ` '.>.c.<.|.d.9.a.b.e.f.f.f.f.f.f.e.b.a.9.d.|.<.c.>.'.` L I U G p 5 b 2 ~ .         ",
"          @ { ) c o x s V #.Z (.2.~.<.|.6.g.b.e.f.h.h.i.i.i.i.h.h.f.e.b.g.6.|.<.~.2.(.Z #.V s x o c ) { @         ",
"        . = ] ( d p q u W Y %.).!.8.|.6.a.b.f.h.i.i.i.i.i.i.i.i.i.i.h.f.b.a.6.|.8.!.).%.Y W u q p d ( ] = .       ",
"        . & ^ 3 e i y H X $.'._.].}.d.g.b.f.h.i.i.i.i.i.i.i.i.i.i.i.i.h.f.b.g.d.}.]._.'.$.X H y i e 3 ^ & .       ",
"        @ - / 4 f j t I Y %.).:.3.4.9.b.f.h.i.i.i.i.j.j.j.j.j.j.i.i.i.i.h.f.b.9.4.3.:.).%.Y I t j f 4 / - @       ",
"        # ; ( 5 g q z J Z &.>.].}.6.a.e.h.i.i.i.i.j.j.j.j.j.j.j.j.i.i.i.i.h.e.a.6.}.].>.&.Z J z q g 5 ( ; #       ",
"      . $ > _ 6 h r A K ` *.!.<.4.9.b.f.i.i.i.i.j.j.j.j.j.j.j.j.j.j.i.i.i.i.f.b.9.4.<.!.*.` K A r h 6 _ > $ .     ",
"      . % , : 7 i s B L  .=.~.[.5.0.e.h.i.i.i.j.j.j.j.j.j.j.j.j.j.j.j.i.i.i.h.e.0.5.[.~.=. .L B s i 7 : , % .     ",
"      . & ' < 8 j t C M ..-.{.}.6.a.f.h.i.i.j.j.j.j.j.j.j.j.j.j.j.j.j.j.i.i.h.f.a.6.}.{.-...M C t j 8 < ' & .     ",
"      + * ) [ 9 k u D N +.;.].|.6.a.f.i.i.i.j.j.j.j.j.j.j.j.j.j.j.j.j.j.i.i.i.f.a.6.|.].;.+.N D u k 9 [ ) * +     ",
"      + * ) [ 9 k u D N +.>.^.|.6.b.f.i.i.i.j.j.j.j.j.j.j.j.j.j.j.j.j.j.i.i.i.f.b.6.|.^.>.+.N D u k 9 [ ) * +     ",
"      + * ) [ 9 k u D N +.>.^.|.6.b.f.i.i.i.j.j.j.j.j.j.j.j.j.j.j.j.j.j.i.i.i.f.b.6.|.^.>.+.N D u k 9 [ ) * +     ",
"      + * ) [ 9 k u D N +.;.].|.6.a.f.i.i.i.j.j.j.j.j.j.j.j.j.j.j.j.j.j.i.i.i.f.a.6.|.].;.+.N D u k 9 [ ) * +     ",
"      . & ' < 8 j t C M ..-.{.}.6.a.f.h.i.i.j.j.j.j.j.j.j.j.j.j.j.j.j.j.i.i.h.f.a.6.}.{.-...M C t j 8 < ' & .     ",
"      . % , : 7 i s B L  .=.~.[.5.0.e.h.i.i.i.j.j.j.j.j.j.j.j.j.j.j.j.i.i.i.h.e.0.5.[.~.=. .L B s i 7 : , % .     ",
"      . $ > _ 6 h r A K ` *.!.<.4.9.b.f.i.i.i.i.j.j.j.j.j.j.j.j.j.j.i.i.i.i.f.b.9.4.<.!.*.` K A r h 6 _ > $ .     ",
"        # ; ( 5 g q z J Z &.>.].}.6.a.e.h.i.i.i.i.j.j.j.j.j.j.j.j.i.i.i.i.h.e.a.6.}.].>.&.Z J z q g 5 ( ; #       ",
"        @ - / 4 f j t I Y %.).:.3.4.9.b.f.h.i.i.i.i.j.j.j.j.j.j.i.i.i.i.h.f.b.9.4.3.:.).%.Y I t j f 4 / - @       ",
"        . & ^ 3 e i y H X $.'._.].}.d.g.b.f.h.i.i.i.i.i.i.i.i.i.i.i.i.h.f.b.g.d.}.]._.'.$.X H y i e 3 ^ & .       ",
"        . = ] ( d p q u W Y %.).!.8.|.6.a.b.f.h.i.i.i.i.i.i.i.i.i.i.h.f.b.a.6.|.8.!.).%.Y W u q p d ( ] = .       ",
"          @ { ) c o x s V #.Z (.2.~.<.|.6.g.b.e.f.h.h.i.i.i.i.h.h.f.e.b.g.6.|.<.~.2.(.Z #.V s x o c ) { @         ",
"          . ~ 2 b 5 p G U I L ` '.>.c.<.|.d.9.a.b.e.f.f.f.f.f.f.e.b.a.9.d.|.<.c.>.'.` L I U G p 5 b 2 ~ .         ",
"            ! 1 ) n w F T @.D Y 1.7.>.~.8.}.4.6.9.0.a.a.b.b.a.a.0.9.6.4.}.8.~.>.7.1.Y D @.T F w n ) 1 !           ",
"            . | a ( v 9 S s A /.Y 1.'.2.!.].3.}.4.5.6.6.6.6.6.6.5.4.}.3.].!.2.'.1.Y /.A s S 9 v ( a | .           ",
"              } 0 ^ _ 5 R k ,.H /.Y ` (.)._.:.].<.[.}.|.|.|.|.}.[.<.].:._.).(.` Y /.H ,.k R 5 _ ^ 0 }             ",
"              . ! m ) : Q p k ,.A D L Z %.'.).>.!.~.{.].^.^.].{.~.!.>.).'.%.Z L D A ,.k p Q : ) m ! .             ",
"                . | ; / P Q p k s @.I #.Y $.%.&.*.=.-.;.>.>.;.-.=.*.&.%.$.Y #.I @.s k p Q P / ; | .               ",
"                  l % E O P Q R S T U V W X Y Z `  ...+.+.+.+... .` Z Y X W V U T S R Q P O E % l                 ",
"                    l % E / : 5 9 F G s u H I J K L M N N N N M L K J I H u s G F 9 5 : / E % l                   ",
"                      l % ; ) _ v w p x q y t z A B C D D D D C B A z t y q x p w v _ ) ; % l                     ",
"                        l | m ^ ( n 5 o p i j q r s t u u u u t s r q j i p o 5 n ( ^ m | l                       ",
"                          . ! 0 a ) b c d e f g h i j k k k k j i h g f e d c b ) a 0 ! .                         ",
"                            . } | 1 2 ) ( 3 4 5 6 7 8 9 9 9 9 8 7 6 5 4 3 ( ) 2 1 | } .                           ",
"                                . ! ~ { ] ^ / ( _ : < [ [ [ [ < : _ ( / ^ ] { ~ ! .                               ",
"                                    . @ = & - ; > , ' ) ) ) ) ' , > ; - & = @ .                                   ",
"                                        . . @ # $ % & * * * * & % $ # @ . .                                       ",
"                                                . . . + + + + . . .                                               ",
"                                                                                                                  ",
"                                                                                                                  ",
"                                                                                                                  ",
"                                                                                                                  "};
