/* XPM */
static char * exit_6_xpm[] = {
"57 59 100 2",
"  	c #000000",
". 	c #010101",
"+ 	c #020202",
"@ 	c #040404",
"# 	c #060606",
"$ 	c #090909",
"% 	c #0A0A0A",
"& 	c #030303",
"* 	c #0B0B0B",
"= 	c #101010",
"- 	c #141414",
"; 	c #171717",
"> 	c #191919",
", 	c #1A1A1A",
"' 	c #070707",
") 	c #0D0D0D",
"! 	c #131313",
"~ 	c #202020",
"{ 	c #252525",
"] 	c #272727",
"^ 	c #292929",
"/ 	c #2C2C2C",
"( 	c #1B1B1B",
"_ 	c #232323",
": 	c #2A2A2A",
"< 	c #313131",
"[ 	c #373737",
"} 	c #3A3A3A",
"| 	c #3C3C3C",
"1 	c #3E3E3E",
"2 	c #050505",
"3 	c #323232",
"4 	c #3B3B3B",
"5 	c #424242",
"6 	c #4A4A4A",
"7 	c #4E4E4E",
"8 	c #505050",
"9 	c #525252",
"0 	c #0E0E0E",
"a 	c #242424",
"b 	c #2F2F2F",
"c 	c #444444",
"d 	c #555555",
"e 	c #5C5C5C",
"f 	c #616161",
"g 	c #656565",
"h 	c #686868",
"i 	c #4B4B4B",
"j 	c #606060",
"k 	c #696969",
"l 	c #707070",
"m 	c #767676",
"n 	c #7C7C7C",
"o 	c #7F7F7F",
"p 	c #5B5B5B",
"q 	c #676767",
"r 	c #737373",
"s 	c #888888",
"t 	c #8E8E8E",
"u 	c #939393",
"v 	c #969696",
"w 	c #5D5D5D",
"x 	c #6B6B6B",
"y 	c #797979",
"z 	c #878787",
"A 	c #9E9E9E",
"B 	c #A5A5A5",
"C 	c #ABABAB",
"D 	c #ADADAD",
"E 	c #7A7A7A",
"F 	c #8B8B8B",
"G 	c #9B9B9B",
"H 	c #A8A8A8",
"I 	c #B3B3B3",
"J 	c #BCBCBC",
"K 	c #C1C1C1",
"L 	c #C3C3C3",
"M 	c #9C9C9C",
"N 	c #C6C6C6",
"O 	c #CFCFCF",
"P 	c #D5D5D5",
"Q 	c #D8D8D8",
"R 	c #BEBEBE",
"S 	c #CCCCCC",
"T 	c #D7D7D7",
"U 	c #E0E0E0",
"V 	c #E6E6E6",
"W 	c #E9E9E9",
"X 	c #D9D9D9",
"Y 	c #E5E5E5",
"Z 	c #EDEDED",
"` 	c #F3F3F3",
" .	c #F5F5F5",
"..	c #F0F0F0",
"+.	c #F7F7F7",
"@.	c #FAFAFA",
"#.	c #FBFBFB",
"$.	c #FCFCFC",
"%.	c #FEFEFE",
"&.	c #FFFFFF",
"                                                                                                                  ",
"                                                                                                                  ",
"                                                                                                                  ",
"                                                                                                                  ",
"                                                                                                                  ",
"                                                                                                                  ",
"                                                                                                                  ",
"                                                                                                                  ",
"                                                                                                                  ",
"                                                                                                                  ",
"                                                                                                                  ",
"                                                  . . + + + + . .                                                 ",
"                                            . + @ # $ % % % % $ # @ + .                                           ",
"                                        . & # * = - ; > , , > ; - = * # & .                                       ",
"                                      + ' ) ! , ~ { ] ^ / / ^ ] { ~ , ! ) ' +                                     ",
"                                  . & % ! ( _ : < [ } | 1 1 | } [ < : _ ( ! % & .                                 ",
"                                . 2 ) ; ~ ^ 3 4 5 6 7 8 9 9 8 7 6 5 4 3 ^ ~ ; ) 2 .                               ",
"                              . 2 0 , a b } c 7 d e f g h h g f e d 7 c } b a , 0 2 .                             ",
"                              & ) , { < 1 i d j k l m n o o n m l k j d i 1 < { , ) &                             ",
"                            + % ; a < 1 7 p q r o s t u v v u t s o r q p 7 1 < a ; % +                           ",
"                          . ' ! ~ b 1 7 w x y z u A B C D D C B A u z y x w 7 1 b ~ ! ' .                         ",
"                          & ) ( ^ } i p x E F G H I J K L L K J I H G F E x p i } ^ ( ) &                         ",
"                        . # ! _ 3 c d q y F M D J N O P Q Q P O N J D M F y q d c 3 _ ! # .                       ",
"                        + * , : 4 7 j r z G D R S T U V W W V U T S R D G z r j 7 4 : , * +                       ",
"                        @ = ~ < 5 d k o u H J S X Y Z `  . .` Z Y X S J H u o k d 5 < ~ = @                       ",
"                      . # - { [ 6 e l s A I N T Y ..+.@.#.#.@.+...Y T N I A s l e 6 [ { - # .                     ",
"                      . $ ; ] } 7 f m t B J O U Z +.$.%.%.%.%.$.+.Z U O J B t m f 7 } ] ; $ .                     ",
"                      + % > ^ | 8 g n u C K P V ` @.%.&.&.&.&.%.@.` V P K C u n g 8 | ^ > % +                     ",
"                      + % , / 1 9 h o v D L Q W  .#.%.&.&.&.&.%.#. .W Q L D v o h 9 1 / , % +                     ",
"                      + % , / 1 9 h o v D L Q W  .#.%.&.&.&.&.%.#. .W Q L D v o h 9 1 / , % +                     ",
"                      + % > ^ | 8 g n u C K P V ` @.%.&.&.&.&.%.@.` V P K C u n g 8 | ^ > % +                     ",
"                      . $ ; ] } 7 f m t B J O U Z +.$.%.%.%.%.$.+.Z U O J B t m f 7 } ] ; $ .                     ",
"                      . # - { [ 6 e l s A I N T Y ..+.@.#.#.@.+...Y T N I A s l e 6 [ { - # .                     ",
"                        @ = ~ < 5 d k o u H J S X Y Z `  . .` Z Y X S J H u o k d 5 < ~ = @                       ",
"                        + * , : 4 7 j r z G D R S T U V W W V U T S R D G z r j 7 4 : , * +                       ",
"                        . # ! _ 3 c d q y F M D J N O P Q Q P O N J D M F y q d c 3 _ ! # .                       ",
"                          & ) ( ^ } i p x E F G H I J K L L K J I H G F E x p i } ^ ( ) &                         ",
"                          . ' ! ~ b 1 7 w x y z u A B C D D C B A u z y x w 7 1 b ~ ! ' .                         ",
"                            + % ; a < 1 7 p q r o s t u v v u t s o r q p 7 1 < a ; % +                           ",
"                              & ) , { < 1 i d j k l m n o o n m l k j d i 1 < { , ) &                             ",
"                              . 2 0 , a b } c 7 d e f g h h g f e d 7 c } b a , 0 2 .                             ",
"                                . 2 ) ; ~ ^ 3 4 5 6 7 8 9 9 8 7 6 5 4 3 ^ ~ ; ) 2 .                               ",
"                                  . & % ! ( _ : < [ } | 1 1 | } [ < : _ ( ! % & .                                 ",
"                                      + ' ) ! , ~ { ] ^ / / ^ ] { ~ , ! ) ' +                                     ",
"                                        . & # * = - ; > , , > ; - = * # & .                                       ",
"                                            . + @ # $ % % % % $ # @ + .                                           ",
"                                                  . . + + + + . .                                                 ",
"                                                                                                                  ",
"                                                                                                                  ",
"                                                                                                                  ",
"                                                                                                                  ",
"                                                                                                                  ",
"                                                                                                                  ",
"                                                                                                                  ",
"                                                                                                                  ",
"                                                                                                                  ",
"                                                                                                                  ",
"                                                                                                                  ",
"                                                                                                                  "};
